<svg width="56" height="34" viewBox="0 0 56 34" fill="none" xmlns="http://www.w3.org/2000/svg">
<g clip-path="url(#clip0_58_4111)">
<path d="M9.54243 14.2598C9.93346 14.2598 10.2489 13.9336 10.2489 13.5293C10.2489 13.125 9.93346 12.7988 9.54243 12.7988C9.15139 12.7988 8.83594 13.125 8.83594 13.5293C8.83594 13.9336 9.15139 14.2598 9.54243 14.2598Z" fill="#A7A7A9"/>
<path d="M24.7207 25.3396H22.9692L25.3384 12.7988L29.2586 21.857L33.2183 12.7988L35.3476 25.3396H33.5962L32.4493 18.3132L29.1732 25.4551L25.9201 18.2997L24.724 25.3396H24.7207Z" fill="#A7A7A9"/>
<path d="M36.2576 12.9177H38.124L41.0978 20.7256L44.1374 12.7988L47.0751 20.7256L50.1508 12.9279H52.0172L46.9732 25.3362L44.0355 17.0731L41.0617 25.3362L36.2576 12.9177Z" fill="#A7A7A9"/>
<path d="M54.2717 12.7988H56.0002V25.3396H54.2717V12.7988Z" fill="#A7A7A9"/>
<path fill-rule="evenodd" clip-rule="evenodd" d="M24.3821 32.39C24.7994 32.39 25.0755 32.1929 25.1642 32.0366V32.3492H25.5684V28.6865H25.1642V29.9369C25.013 29.7806 24.7731 29.6752 24.4084 29.6752C23.7151 29.6752 23.1367 30.2359 23.1367 31.0445C23.1367 31.8532 23.6526 32.3866 24.3854 32.3866L24.3821 32.39ZM25.1642 30.4363V31.493C25.0623 31.7003 24.8126 31.9891 24.4314 31.9891C23.9286 31.9891 23.5606 31.6357 23.5606 31.0377C23.5606 30.4397 23.9779 30.0728 24.4544 30.0728C24.783 30.0728 25.0097 30.2019 25.1609 30.4363H25.1642Z" fill="#A7A7A9"/>
<path fill-rule="evenodd" clip-rule="evenodd" d="M26.8007 28.8828C26.8007 28.7401 26.6857 28.6348 26.5477 28.6348C26.3965 28.6348 26.2815 28.7401 26.2815 28.8828C26.2815 29.0391 26.3965 29.1444 26.5477 29.1444C26.6857 29.1444 26.8007 29.0391 26.8007 28.8828ZM26.7382 29.7288H26.3341V32.3484H26.7382V29.7288Z" fill="#A7A7A9"/>
<path fill-rule="evenodd" clip-rule="evenodd" d="M28.667 33.3952C29.311 33.3952 29.8006 33.0317 29.8006 32.1449V29.7189H29.3833V29.9534C29.2683 29.8107 29.0054 29.668 28.6275 29.668C27.9342 29.668 27.3657 30.1776 27.3657 31.0236C27.3657 31.8697 27.8685 32.3793 28.6275 32.3793C29.0547 32.3793 29.2322 32.2502 29.3965 32.0531V32.2094C29.3965 32.6919 29.1434 32.9773 28.6538 32.9773C28.2497 32.9773 28.0098 32.7802 27.9112 32.5866L27.5465 32.7565C27.6845 33.1472 28.1149 33.3952 28.667 33.3952ZM29.3998 30.4494V31.5061C29.311 31.7541 29.058 32.0022 28.6933 31.9886C28.1511 31.9886 27.7995 31.6352 27.7995 31.0372C27.7995 30.4392 28.2168 30.0723 28.6933 30.0723C29.035 30.0723 29.2847 30.2422 29.3998 30.4494Z" fill="#A7A7A9"/>
<path fill-rule="evenodd" clip-rule="evenodd" d="M31.036 28.8828C31.036 28.7401 30.921 28.6348 30.783 28.6348C30.6319 28.6348 30.5168 28.7401 30.5168 28.8828C30.5168 29.0391 30.6319 29.1444 30.783 29.1444C30.921 29.1444 31.036 29.0391 31.036 28.8828ZM30.9736 29.7288H30.5694V32.3484H30.9736V29.7288Z" fill="#A7A7A9"/>
<path d="M31.4798 29.7323H32.0089V29.0664H32.4131V29.7323H33.2839V30.1367H32.4131V31.2851C32.4131 31.8049 32.5511 31.9748 32.8534 31.9748C33.0308 31.9748 33.1689 31.8967 33.3069 31.7913L33.4942 32.1039C33.343 32.2738 33.09 32.3791 32.7745 32.3791C32.2816 32.3791 32.0056 32.0394 32.0056 31.387V30.1367H31.4766V29.7323H31.4798Z" fill="#A7A7A9"/>
<path fill-rule="evenodd" clip-rule="evenodd" d="M34.9072 29.6645C34.5425 29.6645 34.1383 29.8208 33.8984 30.0417L34.0989 30.3543C34.3388 30.1708 34.5655 30.0689 34.8547 30.0689C35.3837 30.0689 35.5349 30.3814 35.5349 30.8503C35.41 30.8129 35.1307 30.7722 34.9434 30.7722C34.2139 30.7722 33.7341 31.0066 33.7341 31.5808C33.7341 32.0633 34.0989 32.3759 34.6542 32.3759C35.0945 32.3759 35.387 32.1788 35.5381 31.958V32.3487H35.9423V30.7178C35.9423 30.0519 35.5907 29.6611 34.9072 29.6611V29.6645ZM35.5381 31.2275V31.4891C35.4494 31.6963 35.1734 31.9987 34.7429 31.9987C34.4012 31.9987 34.1646 31.8424 34.1646 31.5672C34.1646 31.2546 34.4801 31.1493 34.996 31.1493C35.1964 31.1493 35.4133 31.1867 35.5381 31.2275Z" fill="#A7A7A9"/>
<path d="M36.6716 28.6758H37.0758V32.3521H36.6716V28.6758Z" fill="#A7A7A9"/>
<path fill-rule="evenodd" clip-rule="evenodd" d="M40.4045 29.6645C40.0398 29.6645 39.6356 29.8208 39.3957 30.0417L39.5962 30.3543C39.8361 30.1708 40.0628 30.0689 40.352 30.0689C40.881 30.0689 41.0322 30.3814 41.0322 30.8503C40.9073 30.8129 40.628 30.7722 40.4407 30.7722C39.7112 30.7722 39.2314 31.0066 39.2314 31.5808C39.2314 32.0633 39.5962 32.3759 40.1515 32.3759C40.5918 32.3759 40.881 32.1788 41.0322 31.958V32.3487H41.4364V30.7178C41.4364 30.0519 41.0847 29.6611 40.4013 29.6611L40.4045 29.6645ZM41.0355 31.2275V31.4891C40.9467 31.6963 40.6707 31.9987 40.2402 31.9987C39.9018 31.9987 39.6619 31.8424 39.6619 31.5672C39.6619 31.2546 39.9774 31.1493 40.4933 31.1493C40.6937 31.1493 40.9106 31.1867 41.0355 31.2275Z" fill="#A7A7A9"/>
<path fill-rule="evenodd" clip-rule="evenodd" d="M43.2898 33.3952C43.9338 33.3952 44.4235 33.0317 44.4235 32.1449V29.7189H44.0061V29.9534C43.8911 29.8107 43.6282 29.668 43.2503 29.668C42.557 29.668 41.9885 30.1776 41.9885 31.0236C41.9885 31.8697 42.4946 32.3793 43.2503 32.3793C43.6775 32.3793 43.855 32.2502 44.0193 32.0531V32.2094C44.0193 32.6919 43.7663 32.9773 43.2766 32.9773C42.8725 32.9773 42.6326 32.7802 42.534 32.5866L42.1693 32.7565C42.3073 33.1472 42.7377 33.3952 43.2898 33.3952ZM44.0094 30.4494V31.5061C43.9338 31.7541 43.6808 32.0022 43.3029 31.9886C42.7607 31.9886 42.4091 31.6352 42.4091 31.0372C42.4091 30.4392 42.8265 30.0723 43.3029 30.0723C43.6447 30.0723 43.8944 30.2422 44.0094 30.4494Z" fill="#A7A7A9"/>
<path fill-rule="evenodd" clip-rule="evenodd" d="M46.3425 32.4027C46.7598 32.4027 47.1114 32.2192 47.3513 31.8556L47.0851 31.6076C46.934 31.8285 46.6579 31.9983 46.3523 31.9983C45.8364 31.9983 45.4586 31.7129 45.4323 31.1761H47.4236C47.4499 31.0572 47.4499 30.9553 47.4499 30.8635C47.4499 30.133 46.9438 29.6777 46.2768 29.6777C45.4323 29.6777 44.9919 30.2757 44.9919 31.047C44.9919 31.8692 45.5341 32.4027 46.3425 32.4027ZM47.0227 30.799H45.4224C45.4848 30.3675 45.7872 30.0549 46.2538 30.0685C46.7072 30.0685 46.9964 30.3301 47.0227 30.799Z" fill="#A7A7A9"/>
<path d="M48.0186 29.7326H48.4227V30.0724C48.587 29.8108 48.9288 29.6816 49.2935 29.6816C49.9507 29.6816 50.3155 30.035 50.3155 30.8674V32.3522H49.9113V30.9184C49.9113 30.3442 49.6714 30.0826 49.1687 30.0826C48.8532 30.0826 48.564 30.2898 48.426 30.616V32.3488H48.0218V29.7292L48.0186 29.7326Z" fill="#A7A7A9"/>
<path d="M53.2628 31.8051C53.0755 32.1822 52.6188 32.3929 52.2179 32.3929C51.4095 32.3929 50.8706 31.8595 50.8706 31.0372C50.8706 30.2694 51.3997 29.668 52.1949 29.668C52.6483 29.668 53.0525 29.8752 53.2168 30.2014L52.9014 30.4223C52.7239 30.1742 52.5103 30.0689 52.1949 30.0689C51.679 30.0689 51.2879 30.4732 51.2879 31.0338C51.2879 31.5944 51.6658 31.9988 52.2474 31.9988C52.5498 31.9988 52.8028 31.8425 52.9539 31.5944L53.2694 31.8017L53.2628 31.8051Z" fill="#A7A7A9"/>
<path d="M53.9068 32.9773C53.9429 32.9909 53.9692 33.0045 54.0087 33.0045C54.196 33.0045 54.3241 32.8753 54.5016 32.4574L54.5771 32.2604L53.3547 29.7461H53.8345L54.7809 31.7269L55.5005 29.7461H55.9408L54.9813 32.3283C54.6396 33.2151 54.3767 33.4224 54.0218 33.4224C53.9199 33.4224 53.8213 33.3952 53.7458 33.3578L53.9101 32.9807L53.9068 32.9773Z" fill="#A7A7A9"/>
<path d="M15.7071 25.3266H18.4674L19.0983 24.2326H14.9743L13.1703 29.4208L12.0235 27.2837L10.0683 30.9735V15.1846H9.01025V33.2636H10.0683L12.0235 29.4038L13.2328 32.0234L13.5219 31.2284L13.775 30.5522" fill="#A7A7A9"/>
<path d="M3.39115 23.1215H0.617768L0 24.2156H4.12393L5.92794 19.0137L7.06161 21.1645L9.01678 17.4746V33.2602H10.088V15.1846H9.01678L7.07476 19.0443L5.86551 16.4247L5.57634 17.2198H5.5632L5.32332 17.8857V17.8993" fill="#A7A7A9"/>
</g>
<path d="M1.81299 2.44571C2.40071 2.44571 2.82956 2.56097 3.09954 2.79149C3.37159 3.01993 3.50761 3.34805 3.50761 3.77586C3.50761 3.969 3.47543 4.15279 3.41105 4.32723C3.34874 4.4996 3.24698 4.65224 3.10577 4.78516C2.96455 4.91599 2.77868 5.01983 2.54816 5.09667C2.31972 5.17143 2.03936 5.20881 1.70708 5.20881H1.15259V7H0.623022V2.44571H1.81299ZM1.76315 2.8974H1.15259V4.75401H1.64789C1.93864 4.75401 2.18058 4.72285 2.37371 4.66055C2.56893 4.59825 2.71534 4.49753 2.81295 4.35839C2.91055 4.21717 2.95936 4.03026 2.95936 3.79767C2.95936 3.49446 2.86279 3.26914 2.66965 3.12169C2.47651 2.97216 2.17435 2.8974 1.76315 2.8974ZM5.66016 3.52977C6.0672 3.52977 6.36936 3.62114 6.56665 3.8039C6.76394 3.98665 6.86259 4.27843 6.86259 4.67924V7H6.48566L6.38598 6.49535H6.36106C6.26553 6.61996 6.16584 6.72483 6.06201 6.80998C5.95817 6.89305 5.83772 6.95639 5.70065 7C5.56566 7.04153 5.39953 7.0623 5.20224 7.0623C4.99456 7.0623 4.80973 7.02596 4.64775 6.95327C4.48784 6.88059 4.36116 6.77052 4.2677 6.62307C4.17633 6.47562 4.13064 6.28872 4.13064 6.06235C4.13064 5.72177 4.26563 5.4601 4.5356 5.27734C4.80558 5.09459 5.21677 4.99491 5.76919 4.97829L6.35794 4.95337V4.74466C6.35794 4.44976 6.2946 4.24313 6.16792 4.12475C6.04124 4.00638 5.86264 3.94719 5.63212 3.94719C5.45352 3.94719 5.28323 3.97315 5.12124 4.02507C4.95926 4.07699 4.80558 4.13825 4.66021 4.20886L4.50134 3.81636C4.65501 3.73744 4.83154 3.66995 5.0309 3.61387C5.23027 3.5578 5.44002 3.52977 5.66016 3.52977ZM6.35171 5.31784L5.83149 5.33965C5.40576 5.35626 5.10567 5.42583 4.93122 5.54836C4.75677 5.67089 4.66955 5.84429 4.66955 6.06858C4.66955 6.2638 4.72874 6.40813 4.84711 6.50158C4.96549 6.59504 5.12228 6.64176 5.31749 6.64176C5.6207 6.64176 5.86887 6.55765 6.06201 6.38944C6.25514 6.22122 6.35171 5.9689 6.35171 5.63247V5.31784ZM8.80642 3.52354C9.06186 3.52354 9.28303 3.55884 9.46994 3.62945C9.65684 3.69798 9.80118 3.7987 9.90294 3.93162C10.0047 4.06453 10.0556 4.22651 10.0556 4.41757C10.0556 4.62317 9.99951 4.78723 9.88736 4.90976C9.77522 5.03229 9.6205 5.12055 9.42321 5.17455V5.19947C9.56235 5.23685 9.68799 5.29084 9.80014 5.36145C9.91436 5.42998 10.0047 5.52136 10.0712 5.63558C10.1397 5.74773 10.174 5.88791 10.174 6.05612C10.174 6.24718 10.122 6.41955 10.0182 6.57323C9.91436 6.72483 9.75653 6.84424 9.5447 6.93147C9.33287 7.01869 9.06497 7.0623 8.741 7.0623C8.58109 7.0623 8.42949 7.05296 8.28619 7.03427C8.1429 7.01765 8.0131 6.99273 7.89681 6.9595C7.78051 6.92628 7.67875 6.88682 7.59152 6.84113V6.37075C7.7369 6.44136 7.90719 6.50366 8.1024 6.55765C8.29762 6.61165 8.50841 6.63865 8.73477 6.63865C8.90922 6.63865 9.06601 6.61892 9.20515 6.57946C9.34429 6.53793 9.45436 6.47251 9.53535 6.38321C9.61842 6.29183 9.65996 6.17242 9.65996 6.02497C9.65996 5.88998 9.62362 5.77888 9.55093 5.69165C9.47824 5.60235 9.36921 5.53694 9.22384 5.4954C9.08055 5.45179 8.89883 5.42998 8.6787 5.42998H8.22078V5.00633H8.59771C8.89053 5.00633 9.12416 4.96479 9.29861 4.88172C9.47305 4.79866 9.56027 4.65848 9.56027 4.46118C9.56027 4.29089 9.49278 4.16421 9.35779 4.08114C9.2228 3.99599 9.02967 3.95342 8.77838 3.95342C8.59148 3.95342 8.42637 3.97315 8.28308 4.01261C8.13978 4.04999 7.98507 4.10399 7.81893 4.17459L7.63514 3.76028C7.81374 3.68137 8.00064 3.62218 8.19586 3.58272C8.39107 3.54327 8.59459 3.52354 8.80642 3.52354ZM12.6162 3.52354C13.0419 3.52354 13.3815 3.66995 13.6348 3.96277C13.8882 4.25559 14.0149 4.69586 14.0149 5.28357C14.0149 5.67192 13.9567 5.99797 13.8404 6.26172C13.7241 6.52546 13.5601 6.72483 13.3482 6.85982C13.1385 6.99481 12.8903 7.0623 12.6037 7.0623C12.4231 7.0623 12.2642 7.03842 12.1271 6.99065C11.9901 6.94289 11.8727 6.87851 11.7751 6.79752C11.6775 6.71652 11.5965 6.62826 11.5321 6.53273H11.4948C11.501 6.61373 11.5083 6.71133 11.5166 6.82555C11.5269 6.93977 11.5321 7.03946 11.5321 7.1246V8.5264H11.0119V3.58584H11.4387L11.5072 4.09049H11.5321C11.5986 3.98665 11.6796 3.89216 11.7751 3.80701C11.8706 3.71979 11.9869 3.65126 12.124 3.60141C12.2632 3.5495 12.4272 3.52354 12.6162 3.52354ZM12.5259 3.95965C12.2891 3.95965 12.0981 4.00534 11.9527 4.09672C11.8094 4.18809 11.7045 4.32516 11.6381 4.50791C11.5716 4.68859 11.5363 4.91599 11.5321 5.19012V5.2898C11.5321 5.57847 11.5633 5.82249 11.6256 6.02186C11.69 6.22122 11.7948 6.37282 11.9402 6.47666C12.0877 6.5805 12.285 6.63242 12.5321 6.63242C12.7439 6.63242 12.9204 6.57531 13.0617 6.46109C13.2029 6.34687 13.3078 6.18799 13.3763 5.98447C13.4469 5.77888 13.4822 5.54317 13.4822 5.27734C13.4822 4.87446 13.4033 4.55464 13.2455 4.31789C13.0897 4.07906 12.8498 3.95965 12.5259 3.95965ZM16.1955 3.52977C16.6025 3.52977 16.9047 3.62114 17.102 3.8039C17.2992 3.98665 17.3979 4.27843 17.3979 4.67924V7H17.021L16.9213 6.49535H16.8964C16.8008 6.61996 16.7011 6.72483 16.5973 6.80998C16.4935 6.89305 16.373 6.95639 16.236 7C16.101 7.04153 15.9348 7.0623 15.7375 7.0623C15.5299 7.0623 15.345 7.02596 15.1831 6.95327C15.0231 6.88059 14.8965 6.77052 14.803 6.62307C14.7116 6.47562 14.6659 6.28872 14.6659 6.06235C14.6659 5.72177 14.8009 5.4601 15.0709 5.27734C15.3409 5.09459 15.7521 4.99491 16.3045 4.97829L16.8932 4.95337V4.74466C16.8932 4.44976 16.8299 4.24313 16.7032 4.12475C16.5765 4.00638 16.3979 3.94719 16.1674 3.94719C15.9888 3.94719 15.8185 3.97315 15.6565 4.02507C15.4946 4.07699 15.3409 4.13825 15.1955 4.20886L15.0366 3.81636C15.1903 3.73744 15.3668 3.66995 15.5662 3.61387C15.7656 3.5578 15.9753 3.52977 16.1955 3.52977ZM16.887 5.31784L16.3668 5.33965C15.9411 5.35626 15.641 5.42583 15.4665 5.54836C15.2921 5.67089 15.2049 5.84429 15.2049 6.06858C15.2049 6.2638 15.264 6.40813 15.3824 6.50158C15.5008 6.59504 15.6576 6.64176 15.8528 6.64176C16.156 6.64176 16.4042 6.55765 16.5973 6.38944C16.7904 6.22122 16.887 5.9689 16.887 5.63247V5.31784ZM18.2857 4.95026C18.2857 4.4643 18.3324 4.04999 18.4259 3.70733C18.5193 3.36259 18.6637 3.08638 18.8589 2.87871C19.0562 2.66896 19.3095 2.52566 19.619 2.44882C19.8848 2.37614 20.1548 2.31383 20.4289 2.26192C20.703 2.20792 20.9699 2.16119 21.2295 2.12174L21.3198 2.57654C21.189 2.59523 21.0519 2.61704 20.9086 2.64196C20.7653 2.6648 20.622 2.68973 20.4787 2.71672C20.3354 2.74164 20.2005 2.76864 20.0738 2.79772C19.9471 2.82471 19.8349 2.85275 19.7373 2.88182C19.5608 2.92959 19.4082 3.01266 19.2794 3.13103C19.1527 3.24941 19.052 3.41243 18.9773 3.6201C18.9046 3.82778 18.861 4.08945 18.8464 4.40511H18.8838C18.9461 4.31374 19.0313 4.2234 19.1392 4.1341C19.2472 4.0448 19.376 3.97107 19.5255 3.91293C19.675 3.8527 19.8433 3.82259 20.0302 3.82259C20.3251 3.82259 20.5712 3.88697 20.7684 4.01572C20.9657 4.14241 21.1142 4.321 21.2139 4.55152C21.3136 4.78204 21.3634 5.05202 21.3634 5.36145C21.3634 5.73319 21.2991 6.04574 21.1703 6.2991C21.0436 6.55246 20.865 6.74352 20.6345 6.87228C20.404 6.99896 20.133 7.0623 19.8215 7.0623C19.5805 7.0623 19.3646 7.01558 19.1735 6.92212C18.9845 6.82867 18.8236 6.6916 18.6907 6.51093C18.5598 6.33025 18.4591 6.10908 18.3885 5.84741C18.32 5.58574 18.2857 5.28669 18.2857 4.95026ZM19.8619 6.63242C20.0592 6.63242 20.2285 6.59088 20.3697 6.50781C20.513 6.42474 20.6231 6.29391 20.6999 6.11531C20.7788 5.93463 20.8183 5.69996 20.8183 5.41129C20.8183 5.04994 20.7487 4.7675 20.6096 4.56398C20.4725 4.35839 20.2524 4.25559 19.9492 4.25559C19.7602 4.25559 19.5889 4.29608 19.4352 4.37708C19.2815 4.45599 19.1517 4.55048 19.0458 4.66055C18.9399 4.77062 18.863 4.86926 18.8153 4.95649C18.8153 5.16831 18.8308 5.37391 18.862 5.57328C18.8931 5.77265 18.9471 5.95228 19.024 6.11219C19.1008 6.2721 19.2067 6.39878 19.3417 6.49224C19.4788 6.58569 19.6522 6.63242 19.8619 6.63242ZM25.2012 5.28669C25.2012 5.56705 25.1649 5.8173 25.0922 6.03743C25.0195 6.25757 24.9147 6.44343 24.7776 6.59504C24.6405 6.74664 24.4744 6.86294 24.2792 6.94393C24.086 7.02284 23.8669 7.0623 23.6219 7.0623C23.3934 7.0623 23.1837 7.02284 22.9926 6.94393C22.8036 6.86294 22.6396 6.74664 22.5004 6.59504C22.3634 6.44343 22.2564 6.25757 22.1796 6.03743C22.1048 5.8173 22.0674 5.56705 22.0674 5.28669C22.0674 4.91288 22.1308 4.59513 22.2575 4.33347C22.3841 4.06972 22.5648 3.86931 22.7995 3.73225C23.0362 3.59311 23.3176 3.52354 23.6437 3.52354C23.9552 3.52354 24.2273 3.59311 24.4598 3.73225C24.6945 3.87139 24.8762 4.07283 25.005 4.33658C25.1358 4.59825 25.2012 4.91495 25.2012 5.28669ZM22.6032 5.28669C22.6032 5.56082 22.6396 5.79861 22.7123 6.00005C22.785 6.20149 22.8971 6.35725 23.0487 6.46732C23.2003 6.57738 23.3955 6.63242 23.6343 6.63242C23.8711 6.63242 24.0653 6.57738 24.2169 6.46732C24.3706 6.35725 24.4837 6.20149 24.5564 6.00005C24.6291 5.79861 24.6654 5.56082 24.6654 5.28669C24.6654 5.01464 24.6291 4.77996 24.5564 4.58267C24.4837 4.38331 24.3716 4.22963 24.22 4.12164C24.0684 4.01365 23.8721 3.95965 23.6312 3.95965C23.2761 3.95965 23.0155 4.07699 22.8493 4.31166C22.6853 4.54633 22.6032 4.87134 22.6032 5.28669ZM28.4223 4.02507H27.2977V7H26.7868V4.02507H25.6779V3.58584H28.4223V4.02507ZM31.0888 3.58584H31.6589L30.1854 5.23373L31.7772 7H31.1698L29.6185 5.268V7H29.0982V3.58584H29.6185V5.24308L31.0888 3.58584ZM33.6712 3.52977C34.0783 3.52977 34.3804 3.62114 34.5777 3.8039C34.775 3.98665 34.8737 4.27843 34.8737 4.67924V7H34.4967L34.3971 6.49535H34.3721C34.2766 6.61996 34.1769 6.72483 34.0731 6.80998C33.9692 6.89305 33.8488 6.95639 33.7117 7C33.5767 7.04153 33.4106 7.0623 33.2133 7.0623C33.0056 7.0623 32.8208 7.02596 32.6588 6.95327C32.4989 6.88059 32.3722 6.77052 32.2788 6.62307C32.1874 6.47562 32.1417 6.28872 32.1417 6.06235C32.1417 5.72177 32.2767 5.4601 32.5467 5.27734C32.8167 5.09459 33.2278 4.99491 33.7803 4.97829L34.369 4.95337V4.74466C34.369 4.44976 34.3057 4.24313 34.179 4.12475C34.0523 4.00638 33.8737 3.94719 33.6432 3.94719C33.4646 3.94719 33.2943 3.97315 33.1323 4.02507C32.9703 4.07699 32.8167 4.13825 32.6713 4.20886L32.5124 3.81636C32.6661 3.73744 32.8426 3.66995 33.042 3.61387C33.2413 3.5578 33.4511 3.52977 33.6712 3.52977ZM34.3628 5.31784L33.8426 5.33965C33.4168 5.35626 33.1167 5.42583 32.9423 5.54836C32.7678 5.67089 32.6806 5.84429 32.6806 6.06858C32.6806 6.2638 32.7398 6.40813 32.8582 6.50158C32.9766 6.59504 33.1334 6.64176 33.3286 6.64176C33.6318 6.64176 33.8799 6.55765 34.0731 6.38944C34.2662 6.22122 34.3628 5.9689 34.3628 5.63247V5.31784ZM38.9638 7.0623C38.6564 7.0623 38.3854 6.99896 38.1508 6.87228C37.9161 6.7456 37.7333 6.55246 37.6025 6.29287C37.4717 6.03328 37.4063 5.70619 37.4063 5.31161C37.4063 4.89834 37.4748 4.56087 37.6118 4.2992C37.751 4.03545 37.9421 3.84024 38.185 3.71356C38.428 3.58688 38.7042 3.52354 39.0136 3.52354C39.1839 3.52354 39.348 3.54119 39.5058 3.57649C39.6657 3.60972 39.7966 3.65229 39.8983 3.70421L39.7426 4.13721C39.6387 4.09568 39.5183 4.0583 39.3812 4.02507C39.2462 3.99184 39.1196 3.97523 39.0012 3.97523C38.7644 3.97523 38.5671 4.02611 38.4093 4.12787C38.2536 4.22963 38.1362 4.37915 38.0573 4.57644C37.9805 4.77373 37.9421 5.01671 37.9421 5.30538C37.9421 5.58159 37.9794 5.8173 38.0542 6.01251C38.131 6.20772 38.2442 6.35725 38.3937 6.46109C38.5453 6.56285 38.7343 6.61373 38.9607 6.61373C39.1414 6.61373 39.3044 6.59504 39.4498 6.55765C39.5951 6.5182 39.727 6.47251 39.8454 6.42059V6.88163C39.7312 6.93977 39.6034 6.98442 39.4622 7.01558C39.3231 7.04673 39.1569 7.0623 38.9638 7.0623ZM41.9325 3.52977C42.3395 3.52977 42.6417 3.62114 42.839 3.8039C43.0363 3.98665 43.1349 4.27843 43.1349 4.67924V7H42.758L42.6583 6.49535H42.6334C42.5379 6.61996 42.4382 6.72483 42.3344 6.80998C42.2305 6.89305 42.1101 6.95639 41.973 7C41.838 7.04153 41.6719 7.0623 41.4746 7.0623C41.2669 7.0623 41.0821 7.02596 40.9201 6.95327C40.7602 6.88059 40.6335 6.77052 40.5401 6.62307C40.4487 6.47562 40.403 6.28872 40.403 6.06235C40.403 5.72177 40.538 5.4601 40.808 5.27734C41.0779 5.09459 41.4891 4.99491 42.0415 4.97829L42.6303 4.95337V4.74466C42.6303 4.44976 42.567 4.24313 42.4403 4.12475C42.3136 4.00638 42.135 3.94719 41.9045 3.94719C41.7259 3.94719 41.5556 3.97315 41.3936 4.02507C41.2316 4.07699 41.0779 4.13825 40.9326 4.20886L40.7737 3.81636C40.9274 3.73744 41.1039 3.66995 41.3033 3.61387C41.5026 3.5578 41.7124 3.52977 41.9325 3.52977ZM42.6241 5.31784L42.1038 5.33965C41.6781 5.35626 41.378 5.42583 41.2036 5.54836C41.0291 5.67089 40.9419 5.84429 40.9419 6.06858C40.9419 6.2638 41.0011 6.40813 41.1195 6.50158C41.2378 6.59504 41.3946 6.64176 41.5898 6.64176C41.8931 6.64176 42.1412 6.55765 42.3344 6.38944C42.5275 6.22122 42.6241 5.9689 42.6241 5.63247V5.31784ZM44.6925 3.58584V5.73215C44.6925 5.77368 44.6915 5.82768 44.6894 5.89414C44.6873 5.95851 44.6842 6.02809 44.68 6.10285C44.6759 6.17553 44.6717 6.24614 44.6676 6.31468C44.6655 6.38113 44.6624 6.43616 44.6582 6.47978L46.5211 3.58584H47.1565V7H46.6737V4.90665C46.6737 4.84019 46.6747 4.75504 46.6768 4.65121C46.6789 4.54737 46.682 4.44561 46.6862 4.34593C46.6903 4.24417 46.6934 4.16525 46.6955 4.10918L44.8389 7H44.2003V3.58584H44.6925ZM46.9011 2.18092C46.8824 2.39067 46.8295 2.56616 46.7422 2.70738C46.6571 2.8486 46.5314 2.95555 46.3653 3.02823C46.1992 3.09884 45.9863 3.13415 45.7267 3.13415C45.4588 3.13415 45.2428 3.09988 45.0788 3.03135C44.9168 2.96074 44.7963 2.85483 44.7174 2.71361C44.6406 2.57239 44.5949 2.39483 44.5804 2.18092H45.0663C45.0892 2.40937 45.1504 2.56512 45.2501 2.64819C45.3498 2.73126 45.5118 2.77279 45.7361 2.77279C45.9354 2.77279 46.0922 2.72918 46.2064 2.64196C46.3207 2.55474 46.3892 2.40106 46.412 2.18092H46.9011ZM50.5832 4.02507H49.4586V7H48.9477V4.02507H47.8388V3.58584H50.5832V4.02507ZM52.5363 3.52977C52.9434 3.52977 53.2456 3.62114 53.4428 3.8039C53.6401 3.98665 53.7388 4.27843 53.7388 4.67924V7H53.3618L53.2622 6.49535H53.2372C53.1417 6.61996 53.042 6.72483 52.9382 6.80998C52.8344 6.89305 52.7139 6.95639 52.5768 7C52.4419 7.04153 52.2757 7.0623 52.0784 7.0623C51.8707 7.0623 51.6859 7.02596 51.5239 6.95327C51.364 6.88059 51.2373 6.77052 51.1439 6.62307C51.0525 6.47562 51.0068 6.28872 51.0068 6.06235C51.0068 5.72177 51.1418 5.4601 51.4118 5.27734C51.6818 5.09459 52.093 4.99491 52.6454 4.97829L53.2341 4.95337V4.74466C53.2341 4.44976 53.1708 4.24313 53.0441 4.12475C52.9174 4.00638 52.7388 3.94719 52.5083 3.94719C52.3297 3.94719 52.1594 3.97315 51.9974 4.02507C51.8354 4.07699 51.6818 4.13825 51.5364 4.20886L51.3775 3.81636C51.5312 3.73744 51.7077 3.66995 51.9071 3.61387C52.1065 3.5578 52.3162 3.52977 52.5363 3.52977ZM53.2279 5.31784L52.7077 5.33965C52.2819 5.35626 51.9819 5.42583 51.8074 5.54836C51.633 5.67089 51.5457 5.84429 51.5457 6.06858C51.5457 6.2638 51.6049 6.40813 51.7233 6.50158C51.8417 6.59504 51.9985 6.64176 52.1937 6.64176C52.4969 6.64176 52.7451 6.55765 52.9382 6.38944C53.1313 6.22122 53.2279 5.9689 53.2279 5.63247V5.31784Z" fill="#A7A7A9"/>
<defs>
<clipPath id="clip0_58_4111">
<rect width="56" height="20.6205" fill="white" transform="translate(0 12.7988)"/>
</clipPath>
</defs>
</svg>
