<svg width="66" height="40" viewBox="0 0 66 40" fill="none" xmlns="http://www.w3.org/2000/svg">
<g clip-path="url(#clip0_1_23647)">
<path d="M65.3402 15.2345L62.8417 22.8069H60.3431L62.5566 16.3458C62.7763 14.9818 61.543 15.7523 61.0151 16.2805C60.1676 17.1279 59.4993 18.2706 58.7158 19.181L57.4601 22.8069H55.0257L57.3211 16.0025C57.2724 15.4102 56.6587 15.5717 56.2621 15.7757C55.5023 16.1671 53.7367 18.3871 53.3061 19.1533C52.9076 19.862 52.4688 21.4873 52.1901 22.3287C52.1389 22.4834 52.0914 22.6436 52.0786 22.8063H49.5801L52.7193 13.6949H55.2819L54.1934 16.7113C55.41 15.3011 56.6805 13.2918 58.901 13.5106C60.698 13.6875 59.9837 15.6629 59.5749 16.7113C60.6352 15.4946 61.7481 13.6659 63.5797 13.5112C64.5176 13.4317 65.0686 13.6598 65.3402 14.5565V15.2339V15.2345Z" fill="#BDBDBE"/>
<path d="M19.8042 39.9775C10.9813 39.6918 -0.687623 36.6583 2.99834 25.3342C3.05702 25.1551 3.33255 24.2892 3.42568 24.2491L4.36965 24.2397C2.97665 27.7626 2.33437 31.7972 5.0687 34.879C9.41735 39.7801 20.5084 39.4951 26.5249 38.7802C33.2023 37.9871 40.1583 36.0249 46.3171 33.4174C51.5313 31.2096 56.6568 28.3728 60.7841 24.5198H62.4744C61.5757 25.4821 60.5979 26.3793 59.571 27.2094C50.1638 34.8095 34.8319 39.5803 22.7382 39.9769C21.7949 40.0076 20.7476 40.0076 19.8042 39.9769V39.9775Z" fill="#BDBDBE"/>
<path d="M0.150391 22.744L0.580582 21.5602C2.71862 21.4173 4.6519 20.8055 6.02644 19.1751C7.2718 17.6975 7.75754 15.8504 8.53589 14.1411C10.0273 10.8666 11.94 8.43375 15.6528 7.38968C16.0946 7.26545 16.7909 7.07602 17.236 7.04745C17.4142 7.03627 17.3206 7.19154 17.3031 7.29899L12.0678 22.6198H9.77479L11.035 18.5876C9.86328 19.1012 8.51651 19.2671 7.23692 19.2689C5.72156 21.6968 3.05773 22.8434 0.150391 22.8061V22.744ZM14.3609 8.90952C10.4776 10.6219 9.56938 15.015 7.7724 18.3385C9.48218 18.2988 11.2495 17.5895 11.9722 16.0137L14.3609 8.90952Z" fill="#BDBDBE"/>
<path d="M47.4128 0.620014C50.39 0.729016 55.7937 1.32268 57.561 3.99538C59.2985 6.62251 56.9793 10.0047 55.2641 12.0615H53.8337C55.9107 9.7109 58.8516 5.65135 55.4536 3.0821C52.149 0.583065 44.5762 0.836171 40.5869 1.30482C32.4788 2.25751 24.3192 4.93021 17.3433 8.98607L17.663 8.15839C24.3745 4.47203 31.9772 2.13988 39.634 1.1213C41.3695 0.890364 43.2017 0.67975 44.9335 0.62063C45.7249 0.593534 46.622 0.591686 47.4128 0.62063V0.620014Z" fill="#BDBDBE"/>
<path d="M18.8455 13.7119L17.6831 17.2647C18.3855 16.2773 19.1369 15.293 20.1164 14.5629C22.4805 12.8001 25.2019 13.0336 24.3458 16.6595C23.6945 19.4195 20.9234 22.7349 18.0191 23.1883C17.2108 23.3144 16.4859 23.2827 15.6821 23.1443L14.1308 27.7635C13.4053 27.7492 12.5446 27.8728 11.8326 27.7965C11.7364 27.7861 11.6711 27.7913 11.6123 27.6969L16.1971 13.7119H18.8461H18.8455ZM21.156 15.4056C20.2269 15.5401 18.9056 17.0112 18.2956 17.7155C17.9564 18.1067 17.2076 18.9584 16.9718 19.3632C16.6132 19.9808 16.4807 21.0368 16.1428 21.7009C16.8161 22.5694 18.2039 22.5901 19.0716 21.9796C20.2236 21.1694 21.4428 18.2613 21.7323 16.8884C21.8505 16.329 22.1135 15.2659 21.1553 15.4049L21.156 15.4056Z" fill="#BDBDBE"/>
<path d="M28.7102 13.4941L27.1271 18.3392C28.3581 18.3625 29.7316 18.0116 30.5789 17.0818C31.4446 16.1312 31.5757 14.6243 32.0981 13.4941H34.5361L31.5598 22.8069H29.0268L30.3244 18.5899C29.194 18.9723 28.0193 19.1979 26.8193 19.1657L25.6072 22.8069H23.0742L26.2088 13.4941H28.7102Z" fill="#BDBDBE"/>
<path d="M42.2402 21.0462C42.022 21.7061 42.0997 22.0276 41.4496 22.3575C39.0387 23.5809 33.4906 24.8669 33.8352 20.4299C34.0765 17.3264 37.4005 13.777 40.4839 13.5141C43.9163 13.2213 43.7193 16.2161 41.5645 17.9244C40.1572 19.0398 38.3611 19.5383 36.5887 19.5793C36.3474 20.318 36.4174 21.3286 37.0745 21.8265C38.4137 22.841 40.8817 21.572 42.2396 21.0468L42.2402 21.0462ZM39.5932 14.4968C38.2912 14.7005 37.2606 16.958 36.9327 18.1066C36.8974 18.2316 36.7209 18.7418 36.8801 18.7613C38.1981 18.6839 39.6708 18.1756 40.342 16.9457C40.8079 16.0918 41.0665 14.2658 39.5925 14.4968H39.5932Z" fill="#BDBDBE"/>
<path d="M7.81544 24.241C7.14489 26.6043 7.34726 28.7997 9.53337 30.1772C13.6506 32.7713 22.612 31.0228 27.165 29.8621C31.9547 28.6409 36.7234 26.8718 41.1001 24.5729C41.2022 24.5195 41.567 24.2404 41.5968 24.2404H43.8489L43.4479 24.5085C37.34 27.8692 30.663 30.39 23.7602 31.4877C19.6202 32.1462 11.6884 32.9572 8.29377 30.0833C6.51367 28.5766 6.32335 26.4204 6.86448 24.2397H7.81607L7.81544 24.241Z" fill="#BDBDBE"/>
<path d="M49.7692 16.618C49.9279 15.8079 50.3504 14.6582 49.2076 14.4236C46.5172 13.8708 44.613 17.9355 44.4804 20.082C44.3126 22.8104 47.1656 22.1863 48.9066 21.686C48.9869 21.6626 49.4055 21.4066 49.3767 21.6328C49.3669 21.7099 49.1325 22.4863 49.1057 22.5311C48.9856 22.7339 47.2975 23.1804 46.9619 23.2543C45.4129 23.5952 43.3893 23.8479 42.2609 22.4753C40.9117 20.8344 42.268 17.8338 43.467 16.4236C45.5259 14.0004 48.6075 12.749 51.7289 13.9654L50.88 16.6186H49.7698L49.7692 16.618Z" fill="#BDBDBE"/>
<path d="M43.7671 10.0202C43.3189 10.5145 42.6801 11.0578 42.1328 11.4412C41.7421 11.7151 41.251 12.1161 40.7618 12.0557L42.3727 10.8003C47.1694 6.38192 43.7753 3.71062 38.4547 3.87872C32.2169 4.07578 25.3169 6.95861 19.9515 9.9705C19.485 10.2324 18.3873 11.025 17.977 11.1478C17.7719 11.2089 17.5516 11.1648 17.3433 11.1761L17.597 10.5176C24.163 6.69733 32.5072 3.06153 40.2909 3.50161C44.4785 3.73833 47.1006 6.34351 43.7671 10.0209V10.0202Z" fill="#BDBDBE"/>
<path d="M13.7613 9.1958L11.4238 16.2125C10.7165 17.7688 8.98711 18.4693 7.31396 18.5086C9.07181 15.226 9.96053 10.8871 13.7613 9.1958Z" fill="white"/>
<path d="M20.9382 15.6562C21.8992 15.5141 21.6354 16.6008 21.5169 17.1726C21.2265 18.5759 20.0037 21.5485 18.8482 22.3767C17.9779 23.0007 16.5859 22.9802 15.9106 22.0918C16.2496 21.413 16.3824 20.3336 16.7421 19.7023C16.978 19.2878 17.7297 18.4179 18.0699 18.018C18.6817 17.2982 20.0069 15.7944 20.9388 15.6569L20.9382 15.6562Z" fill="white"/>
<path d="M39.2414 14.2305C40.5983 13.9988 40.3598 15.8313 39.9311 16.6872C39.3134 17.9211 37.9583 18.431 36.7454 18.5087C36.599 18.4891 36.7608 17.9766 36.7939 17.8519C37.095 16.6996 38.0433 14.4349 39.242 14.2305H39.2414Z" fill="white"/>
</g>
<defs>
<clipPath id="clip0_1_23647">
<rect width="65.1896" height="39.4003" fill="white" transform="translate(0.150391 0.599609)"/>
</clipPath>
</defs>
</svg>
