<svg width="91" height="56" viewBox="0 0 91 56" fill="none" xmlns="http://www.w3.org/2000/svg">
<g clip-path="url(#clip0_1_1512)">
<path d="M91 20.9295L87.5122 31.5H84.0244L87.1142 22.4807C87.421 20.5767 85.6994 21.6522 84.9625 22.3895C83.7793 23.5725 82.8466 25.1676 81.7528 26.4384L80 31.5H76.6016L79.8059 22.0015C79.738 21.1747 78.8812 21.4001 78.3276 21.6849C77.267 22.2312 74.8023 25.3303 74.2013 26.3997C73.645 27.3891 73.0324 29.6579 72.6434 30.8323C72.5719 31.0483 72.5057 31.272 72.4878 31.4991H69L73.3821 18.7802H76.9593L75.4399 22.9909C77.1382 21.0224 78.9116 18.2176 82.0113 18.523C84.5198 18.7699 83.5227 21.5274 82.9521 22.9909C84.4322 21.2925 85.9856 18.7398 88.5424 18.5238C89.8517 18.4129 90.6208 18.7312 91 19.983V20.9286V20.9295Z" fill="#BDBDBE"/>
<path d="M27.4356 55.4687C15.1194 55.0699 -1.16955 50.8354 3.97578 35.0278C4.05769 34.7777 4.44232 33.5691 4.57231 33.5131L5.89003 33.5C3.94551 38.4176 3.04893 44.0497 6.86586 48.3516C12.9363 55.1933 28.4186 54.7953 36.8172 53.7975C46.1383 52.6903 55.8484 49.9512 64.4457 46.3113C71.7243 43.2294 78.8791 39.2694 84.6406 33.8909H87C85.7455 35.2342 84.3806 36.4866 82.9471 37.6454C69.8154 48.2546 48.4131 54.9143 31.5312 55.4679C30.2144 55.5107 28.7524 55.5107 27.4356 55.4679V55.4687Z" fill="#BDBDBE"/>
<path d="M0 31.4121L0.600516 29.7595C3.58506 29.5601 6.28377 28.7061 8.20254 26.4302C9.94097 24.3676 10.619 21.789 11.7055 19.403C13.7875 14.8321 16.4574 11.436 21.6402 9.97852C22.2569 9.80512 23.229 9.54068 23.8502 9.5008C24.0991 9.48519 23.9683 9.70195 23.944 9.85194L16.6359 31.2387H13.435L15.1941 25.61C13.5585 26.327 11.6785 26.5585 9.89228 26.5611C7.77695 29.9503 4.05844 31.5508 0 31.4988V31.4121ZM19.8369 12.1001C14.416 14.4905 13.1482 20.6229 10.6398 25.2623C13.0265 25.2068 15.4935 24.2167 16.5025 22.0171L19.8369 12.1001Z" fill="#BDBDBE"/>
<path d="M65.9749 0.528484C70.1308 0.680643 77.674 1.50935 80.1411 5.24025C82.5665 8.90753 79.3291 13.6288 76.9348 16.5H74.938C77.8373 13.2187 81.9426 7.55186 77.1992 3.96538C72.5863 0.476905 62.0152 0.830223 56.4465 1.48442C45.1281 2.8143 33.7379 6.5452 24 12.2069L24.4464 11.0515C33.8151 5.90562 44.4279 2.65011 55.1162 1.22824C57.5389 0.905872 60.0965 0.61187 62.5139 0.529344C63.6188 0.491519 64.8709 0.48894 65.9749 0.529344V0.528484Z" fill="#BDBDBE"/>
<path d="M26.097 18.804L24.4744 23.7635C25.4548 22.385 26.5038 21.0111 27.8711 19.992C31.1712 17.5312 34.9701 17.8571 33.775 22.9186C32.8659 26.7713 28.9976 31.3995 24.9434 32.0323C23.8151 32.2083 22.8032 32.1641 21.6812 31.9709L19.5157 38.419C18.5028 38.3991 17.3015 38.5715 16.3076 38.465C16.1732 38.4506 16.0821 38.4578 16 38.326L22.4 18.804H26.0979H26.097ZM29.3223 21.1682C28.0253 21.356 26.1809 23.4096 25.3295 24.3927C24.856 24.9388 23.8106 26.1277 23.4814 26.6928C22.9809 27.5549 22.796 29.029 22.3243 29.9561C23.2641 31.1684 25.2014 31.1973 26.4127 30.3451C28.0208 29.214 29.7227 25.1546 30.1268 23.2381C30.2918 22.4573 30.6589 20.9732 29.3214 21.1673L29.3223 21.1682Z" fill="#BDBDBE"/>
<path d="M39.8674 18.5L37.6575 25.2634C39.3759 25.2959 41.2933 24.8061 42.476 23.5081C43.6844 22.1811 43.8674 20.0776 44.5967 18.5H48L43.8453 31.5H40.3094L42.1207 25.6134C40.5428 26.1472 38.903 26.462 37.2278 26.4171L35.5359 31.5H32L36.3757 18.5H39.8674Z" fill="#BDBDBE"/>
<path d="M58.7542 29.0421C58.4497 29.9633 58.5581 30.412 57.6507 30.8726C54.2852 32.5805 46.5404 34.3755 47.0214 28.1818C47.3582 23.8495 51.9983 18.8949 56.3025 18.5279C61.094 18.1191 60.819 22.2997 57.811 24.6844C55.8466 26.2414 53.3393 26.9373 50.8652 26.9945C50.5284 28.0256 50.626 29.4364 51.5433 30.1313C53.4128 31.5476 56.8579 29.7761 58.7533 29.043L58.7542 29.0421ZM55.0592 19.8996C53.2417 20.184 51.8031 23.3353 51.3453 24.9387C51.296 25.1131 51.0497 25.8253 51.2719 25.8526C53.1118 25.7445 55.1676 25.035 56.1045 23.3181C56.7549 22.1262 57.1159 19.5771 55.0583 19.8996H55.0592Z" fill="#BDBDBE"/>
<path d="M10.6999 33.5018C9.76389 36.8007 10.0464 39.8654 13.098 41.7882C18.8454 45.4094 31.3548 42.9687 37.7105 41.3484C44.3965 39.6437 51.0533 37.1742 57.1628 33.965C57.3054 33.8905 57.8146 33.5009 57.8562 33.5009H61L60.4403 33.8752C51.9141 38.5665 42.5935 42.0854 32.9577 43.6177C27.1785 44.5369 16.1063 45.6689 11.3676 41.6572C8.88275 39.5539 8.61709 36.544 9.37247 33.5H10.7008L10.6999 33.5018Z" fill="#BDBDBE"/>
<path d="M69.2644 22.8607C69.4859 21.7298 70.0757 20.125 68.4805 19.7975C64.7249 19.0258 62.0668 24.6999 61.8817 27.6961C61.6474 31.5048 65.63 30.6336 68.0602 29.9352C68.1724 29.9026 68.7567 29.5453 68.7166 29.861C68.7029 29.9687 68.3756 31.0525 68.3383 31.1149C68.1705 31.398 65.8142 32.0214 65.3456 32.1245C63.1834 32.6003 60.3585 32.9532 58.7833 31.0371C56.9 28.7465 58.7934 24.5578 60.467 22.5893C63.3411 19.2067 67.6428 17.4598 72 19.1579L70.815 22.8616H69.2653L69.2644 22.8607Z" fill="#BDBDBE"/>
<path d="M60.8857 13.6502C60.2601 14.3401 59.3684 15.0985 58.6044 15.6337C58.059 16.016 57.3735 16.5758 56.6906 16.4915L58.9393 14.7391C65.6351 8.57134 60.8972 4.84241 53.47 5.07706C44.7625 5.35214 35.1307 9.37636 27.6409 13.5807C26.9897 13.9463 25.4574 15.0528 24.8847 15.2242C24.5983 15.3094 24.2908 15.2479 24 15.2637L24.3542 14.3445C33.5199 9.01164 45.1678 3.93632 56.0333 4.55064C61.8788 4.88108 65.5391 8.51773 60.8857 13.651V13.6502Z" fill="#BDBDBE"/>
<path d="M19 12.5L15.7371 22.2947C14.7497 24.4673 12.3356 25.4452 10 25.5C12.4538 20.9178 13.6944 14.8609 19 12.5Z" fill="white"/>
<path d="M29.018 21.5177C30.3596 21.3193 29.9914 22.8363 29.8259 23.6344C29.4206 25.5934 27.7136 29.7429 26.1006 30.899C24.8857 31.7701 22.9426 31.7415 22 30.5013C22.4731 29.5537 22.6586 28.0469 23.1606 27.1657C23.4899 26.5872 24.5393 25.3728 25.0142 24.8146C25.8682 23.8098 27.7181 21.7106 29.0189 21.5186L29.018 21.5177Z" fill="white"/>
<path d="M54.5685 19.528C56.4626 19.2045 56.1296 21.7626 55.5312 22.9574C54.669 24.6798 52.7773 25.3916 51.0843 25.5C50.8799 25.4727 51.1057 24.7573 51.1519 24.5832C51.5722 22.9747 52.896 19.8133 54.5693 19.528H54.5685Z" fill="white"/>
</g>
<defs>
<clipPath id="clip0_1_1512">
<rect width="91" height="55" fill="white" transform="translate(0 0.5)"/>
</clipPath>
</defs>
</svg>
