<svg width="94" height="20" viewBox="0 0 94 20" fill="none" xmlns="http://www.w3.org/2000/svg">
<path d="M64.4441 9.92909C64.4441 7.1025 64.4528 4.2759 64.4355 1.4493C64.4333 1.07128 64.5285 0.944553 64.9138 0.974623C65.3661 1.00899 65.8249 1.00469 66.2772 0.974623C66.6234 0.953145 66.7078 1.06698 66.7057 1.40205C66.6905 3.61865 66.71 5.83525 66.6862 8.05185C66.6819 8.44491 66.8031 8.53083 67.171 8.51579C67.8851 8.48787 68.6015 8.48357 69.3157 8.51579C69.7117 8.53298 69.8329 8.44277 69.8286 8.02608C69.8048 5.82666 69.8286 3.62509 69.8091 1.42568C69.8069 1.06698 69.8913 0.942405 70.2636 0.972475C70.6834 1.00684 71.1097 1.00684 71.5296 0.972475C71.9429 0.938109 72.075 1.03906 72.0706 1.48582C72.0447 4.18354 72.0576 6.88126 72.0576 9.58114C72.0576 12.5194 72.0511 15.4599 72.0663 18.3981C72.0663 18.7654 71.9927 18.9115 71.5945 18.8771C71.1595 18.8406 70.7159 18.8385 70.2809 18.8771C69.8718 18.9136 69.8112 18.7504 69.8134 18.3917C69.8286 15.6768 69.8134 12.9619 69.8307 10.2491C69.8329 9.85606 69.7463 9.72075 69.3286 9.74223C68.6166 9.77874 67.8981 9.77874 67.184 9.74223C66.7598 9.72075 66.6884 9.8711 66.6905 10.2556C66.7078 12.9705 66.6905 15.6854 66.7079 18.3981C66.71 18.7697 66.6278 18.9072 66.2317 18.875C65.7794 18.8385 65.3206 18.8449 64.8683 18.875C64.5285 18.8964 64.4333 18.7976 64.4377 18.4561C64.455 16.2889 64.4463 14.1196 64.4463 11.9524C64.4463 11.278 64.4463 10.6035 64.4463 9.92909H64.4441Z" fill="#232327"/>
<path d="M74.343 9.94199C74.343 7.13257 74.3516 4.32101 74.3322 1.5116C74.33 1.10135 74.4512 1.01544 74.8451 1.01973C76.94 1.03907 79.037 1.03907 81.1319 1.01973C81.5085 1.01544 81.6319 1.10135 81.6145 1.49012C81.5842 2.25906 81.608 2.25906 80.8051 2.25906C79.5391 2.25906 78.2709 2.26979 77.0049 2.25046C76.6781 2.24617 76.6045 2.34497 76.6067 2.65426C76.6218 4.46921 76.624 6.28416 76.6067 8.09696C76.6024 8.44492 76.7127 8.52009 77.0438 8.5158C78.1324 8.49647 79.221 8.52224 80.3096 8.50076C80.6688 8.49432 80.8246 8.55017 80.8051 8.96256C80.7683 9.75512 80.7965 9.75512 79.9741 9.75512C78.9829 9.75512 77.9917 9.76371 77.0006 9.74868C76.7127 9.74438 76.6067 9.81096 76.6088 10.1181C76.6218 12.4786 76.624 14.8391 76.6088 17.1996C76.6067 17.5476 76.7387 17.5884 77.033 17.5863C78.3964 17.5734 79.762 17.5927 81.1254 17.5734C81.4847 17.5691 81.6362 17.6314 81.6189 18.0373C81.5842 18.8707 81.6102 18.8728 80.7813 18.8728C78.799 18.8728 76.8166 18.8599 74.8364 18.8836C74.4231 18.8879 74.3343 18.7654 74.3365 18.3745C74.3538 15.5651 74.3451 12.7535 74.3451 9.94413L74.343 9.94199Z" fill="#232327"/>
<path d="M84.0622 9.93768C84.0622 7.11323 84.0708 4.28664 84.0514 1.46219C84.0492 1.05409 84.1661 0.938108 84.5664 0.972474C84.9863 1.00899 85.4126 1.01114 85.8325 0.972474C86.2566 0.933812 86.3302 1.0992 86.3259 1.48367C86.3064 3.42534 86.3172 5.36916 86.3172 7.31084C86.3172 10.5863 86.3237 13.8597 86.3086 17.1352C86.3086 17.4917 86.3887 17.5991 86.7609 17.5927C88.0767 17.5691 89.3925 17.5927 90.7061 17.5777C91.0005 17.5734 91.0892 17.6485 91.0892 17.9492C91.0849 18.8707 91.1 18.8707 90.1456 18.8707C88.2953 18.8707 86.4428 18.8578 84.5924 18.8793C84.1855 18.8836 84.047 18.8148 84.0514 18.3659C84.0773 15.5565 84.0644 12.7471 84.0644 9.93768H84.0622Z" fill="#232327"/>
<path d="M57.4907 19.4979C57.3782 19.485 56.558 18.7096 56.5839 18.6666C56.638 18.5743 56.7116 18.4905 56.7917 18.4175C57.4236 17.8161 58.0426 17.2018 58.5749 16.5102C59.0294 15.9174 59.406 15.2859 59.6051 14.562C59.8518 13.6664 59.7133 12.8459 59.1008 12.1242C58.6312 11.5701 58.1356 11.0417 57.5946 10.552C57.1769 10.174 56.7917 9.75726 56.4195 9.33199C55.108 7.84136 54.9305 6.40874 55.82 4.62815C56.5212 3.2213 57.6032 2.113 58.7199 1.03262C59.4449 0.332413 59.4406 0.3453 60.2392 0.938112C60.4837 1.11853 60.5184 1.21089 60.2652 1.41923C59.5423 2.01849 58.8693 2.6693 58.2914 3.41031C57.8716 3.94728 57.5318 4.5272 57.3371 5.1823C57.0925 6.00923 57.2332 6.77173 57.772 7.45045C58.2525 8.0583 58.8043 8.60601 59.38 9.12579C59.9319 9.62624 60.4426 10.1632 60.9295 10.7238C61.9142 11.8557 62.0939 13.123 61.5831 14.5019C61.2845 15.3074 60.8365 16.0312 60.2998 16.7013C59.5207 17.6743 58.6139 18.5249 57.6811 19.3496C57.6119 19.4098 57.5383 19.4635 57.4907 19.5V19.4979Z" fill="#232327"/>
<path d="M26.5628 9.40716C27.1342 9.41146 27.5973 9.83674 27.5843 10.3458C27.5713 10.8376 27.119 11.2393 26.5715 11.2479C26.0023 11.2565 25.5327 10.8419 25.5305 10.3286C25.5284 9.81311 25.9872 9.40287 26.565 9.40716H26.5628Z" fill="#232327"/>
<path fill-rule="evenodd" clip-rule="evenodd" d="M52.5805 18.8666C52.8037 18.8676 53.0297 18.8685 53.2598 18.8685L53.2339 18.7687C53.165 18.5023 53.1051 18.2707 53.0434 18.0373C52.7365 16.8819 52.4293 15.7266 52.1222 14.5714C50.9655 10.2201 49.8089 5.86933 48.6631 1.51588C48.5657 1.1443 48.4381 0.972473 48.0225 1.01758C47.6049 1.06268 47.1764 1.04765 46.7565 1.01973C46.4622 1.0004 46.3735 1.11208 46.3215 1.38272C45.5744 5.24895 44.8219 9.11413 44.0693 12.9797C43.7515 14.6118 43.4338 16.2439 43.1164 17.8762C42.9279 18.8517 42.9301 18.8518 43.87 18.8775C43.8903 18.8781 43.9111 18.8787 43.9323 18.8793C44.3153 18.89 44.4149 18.7504 44.4842 18.411C44.6519 17.5938 44.8299 16.7786 45.0079 15.9635C45.1859 15.1484 45.3639 14.3333 45.5316 13.516C45.5965 13.1939 45.7242 13.1079 46.0423 13.1144C46.9989 13.1359 47.9598 13.1423 48.9163 13.1122C49.2778 13.0993 49.3751 13.2433 49.4509 13.5525C49.7436 14.7551 50.0489 15.9532 50.3543 17.1516C50.4688 17.6013 50.5835 18.0511 50.6974 18.5012C50.7033 18.525 50.7084 18.5489 50.7135 18.5726C50.7473 18.7312 50.7787 18.8784 51.0329 18.8728C51.5435 18.8623 52.0541 18.8644 52.5805 18.8666ZM47.6598 6.64703C47.522 6.11709 47.3828 5.58143 47.2413 5.0384C47.2179 5.13241 47.2001 5.1998 47.1863 5.25228C47.1682 5.32089 47.1569 5.36402 47.1483 5.40783C47.0398 5.96966 46.9318 6.5315 46.8238 7.09329C46.5289 8.62766 46.234 10.1617 45.9298 11.6946C45.8714 11.9889 45.9948 12.0104 46.2307 12.0082C47.0574 11.9996 47.8862 11.9996 48.7151 12.0082C48.9532 12.0104 49.0657 11.9953 48.9835 11.6925C48.5399 10.0333 48.1077 8.37042 47.6598 6.64703Z" fill="#232327"/>
<path fill-rule="evenodd" clip-rule="evenodd" d="M40.1812 18.6929C40.3903 18.6937 40.599 18.6946 40.8073 18.6946L40.8051 18.6924C40.8391 18.5699 40.7844 18.5017 40.7363 18.4417C40.7262 18.4291 40.7164 18.4169 40.7077 18.4046C39.9871 17.3715 39.6949 16.2331 39.7836 14.9852C39.8118 14.6029 39.7923 14.2141 39.762 13.8296C39.6516 12.3927 38.9548 11.351 37.6087 10.756C37.5049 10.7105 37.4036 10.6601 37.2923 10.6046C37.2249 10.571 37.1538 10.5356 37.0763 10.4983C37.1414 10.457 37.2011 10.42 37.257 10.3854L37.2573 10.3852C37.3759 10.3116 37.477 10.249 37.574 10.1804C38.9807 9.18593 39.8875 7.87573 40 6.1424C40.1212 4.24368 38.8054 2.41155 36.8231 1.61254C35.2194 0.968183 33.5357 0.931669 31.8369 0.968183C31.4451 0.976775 31.3694 1.10994 31.3694 1.47078C31.3798 5.97989 31.3791 10.4904 31.3784 15.0011C31.3782 16.1284 31.3781 17.2558 31.3781 18.3831C31.3781 18.4046 31.379 18.4263 31.38 18.448C31.3819 18.4915 31.3838 18.5349 31.3781 18.5764C31.3456 18.8148 31.456 18.8771 31.6832 18.8707C32.2351 18.8578 32.7891 18.8556 33.3409 18.8707C33.579 18.8771 33.6677 18.7955 33.6374 18.5678C33.6317 18.5148 33.6336 18.4608 33.6355 18.4071C33.6365 18.3803 33.6374 18.3537 33.6374 18.3273C33.6374 17.9555 33.6374 17.5837 33.6373 17.2118C33.637 15.3515 33.6367 13.49 33.6439 11.6302C33.6439 11.6003 33.6381 11.5672 33.6322 11.5334C33.6106 11.4097 33.5871 11.2756 33.8387 11.2436C35.3666 11.046 36.9551 12.0598 37.3663 13.5225C37.6022 14.3666 37.6454 15.2322 37.6022 16.1021C37.561 16.9247 37.7147 17.7001 38.1432 18.4132L38.1539 18.4309C38.2403 18.5745 38.3189 18.7051 38.5414 18.701C39.0887 18.6886 39.6363 18.6907 40.1812 18.6929ZM33.6374 2.87334V6.10159V6.10374V9.57255C33.6374 9.59425 33.6366 9.61581 33.6358 9.63692C33.6305 9.7829 33.6259 9.9068 33.8906 9.90117C36.2257 9.84747 38.1107 7.42038 37.5394 5.18445C37.1498 3.66161 35.9357 2.62848 34.2412 2.38148C33.8387 2.32277 33.6374 2.48672 33.6374 2.87334Z" fill="#232327"/>
<path fill-rule="evenodd" clip-rule="evenodd" d="M20.1053 10.5675L20.1049 10.5674C20.0788 10.5553 20.0522 10.5429 20.0249 10.5305H20.0271C20.0973 10.3988 20.2137 10.3398 20.3267 10.2824C20.3704 10.2603 20.4136 10.2384 20.4534 10.2126C22.2864 9.0141 23.3079 6.80609 22.8102 4.95462C22.3752 3.33728 21.2628 2.26764 19.7414 1.62328C18.1486 0.948846 16.4562 0.933811 14.7573 0.970325C14.3591 0.978917 14.2877 1.12497 14.292 1.48152C14.305 2.81861 14.3034 4.1557 14.3018 5.49279C14.3012 5.93843 14.3007 6.38407 14.3007 6.82971C14.3007 7.68971 14.3009 8.54982 14.3011 9.40998V9.41033C14.3019 12.4213 14.3026 15.4329 14.2942 18.4432C14.2942 18.7633 14.3548 18.9029 14.7141 18.8771C15.1664 18.8449 15.6252 18.8492 16.0775 18.8771C16.4411 18.8986 16.5796 18.817 16.5687 18.4132C16.547 17.5594 16.5509 16.7046 16.5548 15.8502V15.8498V15.8496C16.5564 15.5155 16.5579 15.1815 16.5579 14.8477C16.5579 14.5745 16.5578 14.3014 16.5576 14.0284V14.028C16.5572 13.2087 16.5568 12.39 16.5601 11.5701C16.5601 11.5463 16.5581 11.5221 16.5562 11.4983C16.5467 11.3799 16.5377 11.2686 16.77 11.2436C18.4148 11.0718 19.921 12.0898 20.3235 13.6771C20.527 14.4804 20.5465 15.2988 20.5097 16.1192C20.4729 16.9419 20.6395 17.7151 21.068 18.4261C21.0746 18.4368 21.081 18.4477 21.0874 18.4584C21.1615 18.5827 21.2319 18.7008 21.4251 18.6988C21.9798 18.6911 22.5346 18.6923 23.1313 18.6935C23.3633 18.694 23.6017 18.6945 23.849 18.6945C22.7734 17.3865 22.6002 15.9474 22.7128 14.4375C22.7209 14.3426 22.7144 14.2464 22.7079 14.15C22.7058 14.1177 22.7036 14.0854 22.702 14.053C22.6284 12.4335 21.8666 11.2865 20.3322 10.668C20.2562 10.6375 20.1827 10.6034 20.1053 10.5675ZM16.5574 5.15749C16.5566 5.47431 16.5558 5.79117 16.5558 6.10803H16.5579V9.57684C16.5579 9.59544 16.5575 9.61383 16.5571 9.63183C16.5535 9.78424 16.5505 9.90885 16.8176 9.90117C19.051 9.83888 20.9144 7.58147 20.501 5.41427C20.1764 3.7153 18.9082 2.62848 16.9605 2.34711C16.6337 2.29986 16.5449 2.35785 16.5493 2.68862C16.5618 3.51073 16.5596 4.33395 16.5574 5.15749Z" fill="#232327"/>
<path fill-rule="evenodd" clip-rule="evenodd" d="M0.00934818 8.02699C0.00900248 8.67542 0.00865681 9.32379 0.00865681 9.97205L0.0064922 9.9699V18.4497C0.0064922 18.4746 0.0058607 18.4992 0.0052418 18.5233C0.000247833 18.7181 -0.003926 18.8809 0.331115 18.8771C2.27885 18.8621 4.21577 18.7096 6.0012 17.8998C9.34482 16.3834 11.4678 13.864 11.5739 10.1482C11.6778 6.45384 9.66078 3.87854 6.44052 2.21609C4.588 1.25814 2.53639 1.08846 0.471786 1.05409C0.0670888 1.04765 0 1.17867 0 1.54166C0.0116535 3.70282 0.0105007 5.86525 0.00934818 8.02699ZM2.32065 8.47298C2.3203 9.0063 2.31996 9.53965 2.31996 10.073H2.31779C2.31779 10.6502 2.3182 11.2274 2.31861 11.8048C2.31982 13.5373 2.32104 15.2708 2.3113 17.0042C2.3113 17.307 2.37839 17.4144 2.68786 17.3285C2.86204 17.2808 3.03792 17.2402 3.21361 17.1997C3.43305 17.1492 3.65219 17.0987 3.86733 17.0342C6.95125 16.1171 9.23443 13.2196 9.27771 10.1782C9.33181 6.28845 6.66341 3.28573 2.71816 2.78743C2.40003 2.74876 2.3113 2.80891 2.3113 3.14183C2.32295 4.91793 2.3218 6.69531 2.32065 8.47298Z" fill="#232327"/>
<path fill-rule="evenodd" clip-rule="evenodd" d="M94 3.38453C93.9944 5.14686 92.3134 6.39788 90.5395 6.09729C88.7476 5.7923 87.6828 4.18784 88.2607 2.6607C88.687 1.53092 89.9422 0.779169 91.258 0.867231C92.5803 0.955294 93.6797 1.81874 93.9589 2.99792C93.9936 3.1413 93.9975 3.29235 93.9991 3.35776C93.9993 3.36591 93.9995 3.37273 93.9997 3.37804L93.9998 3.38151L94 3.38453ZM91.0546 5.85244C89.3211 5.85244 88.055 4.36397 88.5247 2.87549C88.8688 1.78223 90.0309 1.0541 91.271 1.15505C92.5067 1.256 93.4784 2.08723 93.6559 3.19982C93.8766 4.58305 92.6344 5.85029 91.0546 5.85029V5.85244ZM92.3324 4.49719C92.1171 4.19033 91.9053 3.88853 91.574 3.65516C92.2492 3.39097 92.4397 3.14826 92.3682 2.7101C92.2968 2.28482 92.009 2.08936 91.3727 2.06359C91.1247 2.05471 90.8751 2.05557 90.6253 2.05644C90.4524 2.05704 90.2794 2.05763 90.1067 2.055C89.9228 2.0507 89.7994 2.06789 89.8037 2.3063C89.8145 3.10745 89.8102 3.91076 89.8037 4.71406C89.8016 4.87515 89.8535 4.94388 90.0223 4.94818C90.2149 4.95247 90.2257 4.84079 90.2257 4.70117C90.2257 4.61518 90.226 4.52942 90.2262 4.44375V4.44351L90.2264 4.37939C90.2268 4.22978 90.227 4.0803 90.2257 3.93009L90.2257 3.91726C90.2255 3.78687 90.2253 3.66784 90.4118 3.66161L90.4123 3.66159C90.7909 3.64871 91.1651 3.63597 91.4203 3.99452C91.4827 4.08179 91.5486 4.1667 91.6144 4.25155C91.7268 4.39643 91.8391 4.5411 91.9333 4.69688C92.0999 4.97181 92.3076 4.99973 92.6128 4.87945C92.5129 4.75437 92.4225 4.62556 92.3327 4.49765L92.3326 4.4974L92.3324 4.49719ZM91.5935 2.42229C91.3901 2.37718 91.1801 2.37503 90.9702 2.37718V2.37503C90.9341 2.37551 90.8979 2.3762 90.8618 2.37689C90.7357 2.37931 90.6099 2.38171 90.4854 2.37503C90.2139 2.36094 90.2145 2.56354 90.2152 2.77313C90.2153 2.81911 90.2155 2.86542 90.2128 2.90985C90.2119 2.92466 90.2108 2.93945 90.2098 2.95416C90.1983 3.11862 90.1876 3.27207 90.3902 3.3115C90.7884 3.39098 91.2277 3.40172 91.6346 3.25996C91.8359 3.19122 91.9549 3.04302 91.9462 2.82609C91.9354 2.60486 91.7947 2.46739 91.5935 2.42229Z" fill="#232327"/>
</svg>
