<svg width="82" height="17" viewBox="0 0 82 17" fill="none" xmlns="http://www.w3.org/2000/svg">
<path d="M55.6463 8.73559C55.6463 6.29488 55.6538 3.85417 55.6388 1.41345C55.637 1.08704 55.7192 0.977613 56.0518 1.00358C56.4424 1.03325 56.8385 1.02954 57.2291 1.00358C57.5281 0.985032 57.601 1.08333 57.5991 1.37265C57.586 3.28665 57.6028 5.20064 57.5823 7.11463C57.5786 7.45403 57.6832 7.52822 58.0009 7.51524C58.6176 7.49113 59.2361 7.48742 59.8528 7.51524C60.1947 7.53007 60.2994 7.45218 60.2957 7.09238C60.2751 5.19322 60.2957 3.29221 60.2788 1.39305C60.277 1.08333 60.3498 0.975759 60.6713 1.00172C61.0338 1.0314 61.4019 1.0314 61.7645 1.00172C62.1214 0.972049 62.2354 1.05922 62.2316 1.44498C62.2092 3.77442 62.2204 6.10385 62.2204 8.43514C62.2204 10.9723 62.2148 13.5113 62.2279 16.0485C62.2279 16.3656 62.1644 16.4917 61.8205 16.462C61.4449 16.4305 61.0618 16.4287 60.6862 16.462C60.333 16.4936 60.2807 16.3526 60.2826 16.0429C60.2957 13.6986 60.2826 11.3544 60.2975 9.01194C60.2994 8.67253 60.2246 8.55569 59.864 8.57424C59.2492 8.60577 58.6288 8.60577 58.0121 8.57424C57.6458 8.55569 57.5842 8.68552 57.586 9.0175C57.601 11.3618 57.586 13.706 57.601 16.0485C57.6028 16.3693 57.5318 16.488 57.1899 16.4602C56.7993 16.4287 56.4031 16.4342 56.0126 16.4602C55.7192 16.4787 55.637 16.3934 55.6407 16.0985C55.6557 14.2272 55.6482 12.354 55.6482 10.4827C55.6482 9.90031 55.6482 9.31795 55.6482 8.73559H55.6463Z" fill="#BDBDBE"/>
<path d="M64.1938 8.74673C64.1938 6.32085 64.2012 3.89312 64.1844 1.46725C64.1826 1.11301 64.2872 1.03882 64.6273 1.04253C66.4362 1.05922 68.247 1.05922 70.0559 1.04253C70.3811 1.03882 70.4876 1.11301 70.4726 1.4487C70.4465 2.11266 70.467 2.11266 69.7737 2.11266C68.6805 2.11266 67.5855 2.12193 66.4923 2.10524C66.2101 2.10153 66.1466 2.18685 66.1484 2.45392C66.1615 4.02109 66.1634 5.58827 66.1484 7.15359C66.1447 7.45404 66.24 7.51895 66.5259 7.51524C67.4659 7.49855 68.4058 7.52081 69.3458 7.50226C69.656 7.4967 69.7905 7.54492 69.7737 7.90101C69.742 8.58537 69.7663 8.58537 69.0561 8.58537C68.2003 8.58537 67.3444 8.59279 66.4885 8.57981C66.24 8.5761 66.1484 8.63359 66.1503 8.89881C66.1615 10.9371 66.1634 12.9753 66.1503 15.0136C66.1484 15.314 66.2624 15.3493 66.5166 15.3474C67.6939 15.3363 68.873 15.353 70.0503 15.3363C70.3605 15.3326 70.4913 15.3864 70.4764 15.7369C70.4465 16.4565 70.4689 16.4583 69.7532 16.4583C68.0414 16.4583 66.3297 16.4472 64.6198 16.4676C64.2629 16.4713 64.1863 16.3656 64.1882 16.0281C64.2031 13.6022 64.1956 11.1745 64.1956 8.74858L64.1938 8.74673Z" fill="#BDBDBE"/>
<path d="M72.5861 8.74301C72.5861 6.30415 72.5936 3.86344 72.5768 1.42458C72.5749 1.0722 72.6758 0.972048 73.0215 1.00172C73.3841 1.03325 73.7522 1.03511 74.1147 1.00172C74.481 0.968339 74.5445 1.11115 74.5408 1.44313C74.524 3.11973 74.5333 4.79818 74.5333 6.47478C74.5333 9.30311 74.5389 12.1296 74.5258 14.9579C74.5258 15.2658 74.595 15.3585 74.9164 15.353C76.0526 15.3326 77.1888 15.353 78.3231 15.34C78.5772 15.3363 78.6538 15.4012 78.6538 15.6608C78.6501 16.4565 78.6632 16.4565 77.8391 16.4565C76.2413 16.4565 74.6417 16.4454 73.044 16.4639C72.6926 16.4676 72.573 16.4083 72.5768 16.0206C72.5992 13.5948 72.588 11.1689 72.588 8.74301H72.5861Z" fill="#BDBDBE"/>
<path d="M49.6422 16.998C49.545 16.9869 48.8367 16.3174 48.8592 16.2803C48.9059 16.2005 48.9694 16.1282 49.0386 16.0652C49.5842 15.5459 50.1187 15.0154 50.5784 14.4182C50.9708 13.9063 51.296 13.3611 51.4679 12.7361C51.6809 11.9627 51.5613 11.2542 51.0325 10.631C50.627 10.1525 50.199 9.6963 49.7318 9.27344C49.3712 8.94703 49.0386 8.58722 48.7171 8.22C47.5847 6.93288 47.4315 5.69583 48.1995 4.15833C48.805 2.94354 49.7393 1.98654 50.7036 1.05366C51.3296 0.449041 51.3259 0.46017 52.0154 0.972052C52.2266 1.12784 52.2565 1.20759 52.0378 1.38749C51.4137 1.90494 50.8325 2.4669 50.3336 3.10675C49.971 3.57041 49.6777 4.07116 49.5095 4.63683C49.2983 5.35087 49.4198 6.00927 49.8851 6.59534C50.2999 7.1202 50.7765 7.59313 51.2735 8.04196C51.75 8.47409 52.1911 8.93775 52.6115 9.42181C53.4618 10.3992 53.6169 11.4935 53.1759 12.6841C52.918 13.3796 52.5312 14.0046 52.0677 14.5833C51.395 15.4234 50.612 16.1579 49.8066 16.8701C49.7468 16.922 49.6833 16.9684 49.6422 16.9999V16.998Z" fill="#BDBDBE"/>
<path d="M22.9365 8.28492C23.4298 8.28863 23.8297 8.65585 23.8185 9.0954C23.8073 9.52011 23.4168 9.86693 22.944 9.87435C22.4525 9.88177 22.047 9.52382 22.0451 9.08056C22.0433 8.63545 22.4394 8.28121 22.9384 8.28492H22.9365Z" fill="#BDBDBE"/>
<path fill-rule="evenodd" clip-rule="evenodd" d="M45.4022 16.453C45.595 16.4538 45.7902 16.4546 45.9888 16.4546L45.9665 16.3684C45.907 16.1384 45.8552 15.9384 45.802 15.7369C45.5369 14.7392 45.2717 13.7416 45.0066 12.7441C44.0078 8.98687 43.0091 5.23006 42.0197 1.47095C41.9356 1.15009 41.8254 1.00172 41.4666 1.04067C41.1059 1.07962 40.7359 1.06663 40.3734 1.04252C40.1192 1.02583 40.0426 1.12227 39.9978 1.35596C39.3526 4.69438 38.7028 8.03189 38.053 11.3698C37.7786 12.779 37.5043 14.1883 37.2302 15.5978C37.0674 16.4401 37.0693 16.4402 37.8809 16.4624C37.8985 16.4629 37.9164 16.4634 37.9347 16.4639C38.2655 16.4732 38.3514 16.3526 38.4112 16.0596C38.5561 15.3539 38.7098 14.6501 38.8635 13.9462C39.0172 13.2424 39.1709 12.5385 39.3157 11.8328C39.3717 11.5547 39.482 11.4805 39.7567 11.486C40.5827 11.5046 41.4124 11.5101 42.2383 11.4842C42.5504 11.473 42.6345 11.5973 42.6999 11.8644C42.9526 12.9028 43.2163 13.9373 43.4799 14.9721C43.5789 15.3604 43.6779 15.7488 43.7763 16.1375C43.7814 16.158 43.7858 16.1786 43.7901 16.1991C43.8193 16.336 43.8464 16.4632 44.0659 16.4583C44.5068 16.4492 44.9478 16.4511 45.4022 16.453ZM41.1533 5.9016C41.0344 5.444 40.9142 4.98147 40.792 4.51257C40.7718 4.59375 40.7564 4.65194 40.7445 4.69726C40.7289 4.7565 40.7191 4.79374 40.7116 4.83157C40.618 5.3167 40.5247 5.80183 40.4315 6.28693C40.1768 7.61183 39.9222 8.93647 39.6596 10.2601C39.6091 10.5142 39.7156 10.5327 39.9193 10.5309C40.6332 10.5235 41.3489 10.5235 42.0646 10.5309C42.2701 10.5327 42.3673 10.5198 42.2963 10.2583C41.9133 8.82561 41.5401 7.38971 41.1533 5.9016Z" fill="#BDBDBE"/>
<path fill-rule="evenodd" clip-rule="evenodd" d="M34.6957 16.303C34.8763 16.3037 35.0565 16.3044 35.2363 16.3044L35.2344 16.3025C35.2638 16.1968 35.2166 16.1379 35.175 16.0861C35.1663 16.0752 35.1578 16.0647 35.1504 16.054C34.5281 15.1619 34.2758 14.179 34.3524 13.1014C34.3767 12.7713 34.3599 12.4356 34.3337 12.1036C34.2384 10.8629 33.6367 9.96337 32.4744 9.44963C32.3848 9.41037 32.2973 9.36678 32.2012 9.31888C32.143 9.28986 32.0816 9.25926 32.0147 9.22708C32.0709 9.19147 32.1225 9.15947 32.1707 9.12956L32.171 9.12941C32.2734 9.06591 32.3607 9.01182 32.4445 8.95259C33.6591 8.09389 34.4421 6.96256 34.5393 5.46586C34.6439 3.82635 33.5078 2.24434 31.796 1.55441C30.4113 0.998017 28.9575 0.966488 27.4905 0.998017C27.1523 1.00544 27.0869 1.12042 27.0869 1.432C27.0959 5.32553 27.0953 9.22024 27.0947 13.1152C27.0945 14.0886 27.0944 15.0621 27.0944 16.0355C27.0944 16.054 27.0952 16.0728 27.096 16.0915C27.0977 16.129 27.0993 16.1665 27.0944 16.2024C27.0663 16.4083 27.1616 16.462 27.3578 16.4565C27.8344 16.4454 28.3128 16.4435 28.7893 16.4565C28.9948 16.462 29.0715 16.3916 29.0453 16.195C29.0403 16.1492 29.042 16.1025 29.0436 16.0562C29.0445 16.0331 29.0453 16.0101 29.0453 15.9873C29.0453 15.6662 29.0452 15.3452 29.0452 15.0241C29.0449 13.4177 29.0447 11.8104 29.0509 10.2045C29.0509 10.1786 29.0459 10.1501 29.0408 10.1209C29.0221 10.0141 29.0018 9.89832 29.2191 9.87064C30.5384 9.70001 31.91 10.5754 32.2651 11.8384C32.4688 12.5673 32.5061 13.3147 32.4688 14.0658C32.4333 14.7762 32.5659 15.4457 32.9359 16.0614L32.9451 16.0767C33.0198 16.2007 33.0877 16.3135 33.2798 16.31C33.7524 16.2992 34.2252 16.3011 34.6957 16.303ZM29.0453 2.64308V5.43062V5.43247V8.42772C29.0453 8.44646 29.0446 8.46508 29.0439 8.48331C29.0393 8.60936 29.0353 8.71634 29.2639 8.71148C31.2802 8.66512 32.9079 6.56937 32.4145 4.63868C32.0782 3.32374 31.0298 2.43165 29.5666 2.21837C29.2191 2.16768 29.0453 2.30925 29.0453 2.64308Z" fill="#BDBDBE"/>
<path fill-rule="evenodd" clip-rule="evenodd" d="M17.3605 9.28689L17.3602 9.28675C17.3376 9.27629 17.3147 9.26565 17.2911 9.25489H17.293C17.3536 9.14119 17.4541 9.0902 17.5517 9.04069C17.5895 9.02155 17.6267 9.00264 17.6611 8.9804C19.2439 7.94551 20.1259 6.03894 19.6961 4.44023C19.3205 3.04369 18.36 2.12007 17.0463 1.56368C15.671 0.98132 14.2096 0.968338 12.7427 0.999867C12.3988 1.00729 12.3372 1.1334 12.3409 1.44127C12.3521 2.59583 12.3507 3.75038 12.3493 4.90493C12.3489 5.28973 12.3484 5.67454 12.3484 6.05934C12.3484 6.80193 12.3486 7.54462 12.3488 8.28735V8.28766C12.3494 10.8875 12.3501 13.488 12.3428 16.0874C12.3428 16.3637 12.3951 16.4843 12.7053 16.462C13.0959 16.4342 13.492 16.4379 13.8826 16.462C14.1965 16.4806 14.3161 16.4101 14.3068 16.0614C14.288 15.3242 14.2914 14.5861 14.2948 13.8483V13.8481V13.8479C14.2961 13.5594 14.2975 13.271 14.2975 12.9827C14.2975 12.7468 14.2973 12.511 14.2972 12.2752V12.2749C14.2969 11.5674 14.2965 10.8605 14.2993 10.1525C14.2993 10.132 14.2976 10.1112 14.296 10.0906C14.2877 9.98835 14.28 9.89224 14.4806 9.87063C15.9008 9.72226 17.2014 10.6014 17.549 11.9719C17.7247 12.6656 17.7415 13.3722 17.7097 14.0807C17.6779 14.791 17.8218 15.4587 18.1918 16.0726C18.1975 16.0819 18.2031 16.0912 18.2086 16.1005C18.2726 16.2078 18.3334 16.3098 18.5002 16.3081C18.9792 16.3014 19.4582 16.3024 19.9734 16.3035C20.1738 16.304 20.3797 16.3044 20.5931 16.3044C19.6644 15.1749 19.5149 13.9323 19.6121 12.6285C19.619 12.5465 19.6135 12.4635 19.6079 12.3803C19.606 12.3524 19.6041 12.3244 19.6027 12.2965C19.5392 10.8981 18.8814 9.90773 17.5565 9.37359C17.4909 9.34728 17.4274 9.31786 17.3605 9.28689ZM14.297 4.61541C14.2963 4.88897 14.2956 5.16257 14.2956 5.43618H14.2975V8.43143C14.2975 8.44749 14.2971 8.46337 14.2967 8.47892C14.2936 8.61052 14.2911 8.71812 14.5217 8.71148C16.4502 8.6577 18.0592 6.70847 17.7022 4.83713C17.4219 3.3701 16.3269 2.43165 14.645 2.1887C14.3629 2.14789 14.2862 2.19797 14.29 2.48358C14.3008 3.19346 14.2989 3.9043 14.297 4.61541Z" fill="#BDBDBE"/>
<path fill-rule="evenodd" clip-rule="evenodd" d="M0.00807197 7.09317C0.00777347 7.65307 0.007475 8.21293 0.007475 8.77268L0.00560589 8.77083V16.093C0.00560589 16.1144 0.00506061 16.1357 0.0045262 16.1566C0.000213999 16.3248 -0.00339003 16.4653 0.285912 16.462C1.96775 16.4491 3.64024 16.3174 5.18192 15.6182C8.06907 14.3088 9.90227 12.1333 9.99384 8.92476C10.0835 5.73478 8.3419 3.51106 5.56127 2.07556C3.96166 1.24839 2.19012 1.10187 0.407378 1.0722C0.0579299 1.06663 0 1.17977 0 1.4932C0.0100626 3.35932 0.00906713 5.22654 0.00807197 7.09317ZM2.00384 7.47827C2.00354 7.93878 2.00324 8.39932 2.00324 8.85986H2.00137C2.00137 9.35822 2.00172 9.85669 2.00207 10.3553C2.00312 11.8512 2.00418 13.348 1.99577 14.8448C1.99577 15.1063 2.05369 15.199 2.32092 15.1248C2.47131 15.0836 2.62318 15.0486 2.77489 15.0137C2.96437 14.97 3.1536 14.9264 3.33936 14.8708C6.00227 14.0788 7.97376 11.5769 8.01113 8.95073C8.05785 5.59197 5.75373 2.99918 2.34708 2.5689C2.07238 2.53552 1.99577 2.58745 1.99577 2.87492C2.00583 4.40855 2.00483 5.94328 2.00384 7.47827Z" fill="#BDBDBE"/>
<path fill-rule="evenodd" clip-rule="evenodd" d="M81.1672 3.08449C81.1624 4.60622 79.7109 5.68646 78.1792 5.42691C76.6319 5.16355 75.7125 3.77813 76.2114 2.45948C76.5796 1.48393 77.6634 0.834807 78.7996 0.910847C79.9414 0.986888 80.8907 1.73246 81.1317 2.75066C81.1617 2.87446 81.165 3.00489 81.1665 3.06137C81.1667 3.06841 81.1668 3.0743 81.167 3.07888L81.1671 3.08188L81.1672 3.08449ZM78.6239 5.21548C77.1271 5.21548 76.0339 3.93021 76.4394 2.64494C76.7365 1.70093 77.74 1.07221 78.8108 1.15937C79.8778 1.24654 80.7169 1.96429 80.8701 2.925C81.0607 4.11939 79.9881 5.21363 78.6239 5.21363V5.21548ZM79.7273 4.04524C79.5414 3.78028 79.3585 3.51968 79.0724 3.31817C79.6555 3.09005 79.8199 2.88048 79.7582 2.50213C79.6966 2.13491 79.448 1.96614 78.8986 1.94388C78.6844 1.93621 78.4689 1.93696 78.2533 1.9377C78.1039 1.93822 77.9545 1.93874 77.8055 1.93646C77.6466 1.93275 77.5401 1.94759 77.5438 2.15346C77.5532 2.84524 77.5494 3.53888 77.5438 4.23251C77.542 4.37161 77.5868 4.43096 77.7326 4.43467C77.8989 4.43838 77.9082 4.34194 77.9082 4.22139C77.9082 4.14713 77.9084 4.07308 77.9086 3.9991V3.9989L77.9088 3.94353C77.9091 3.81435 77.9093 3.68527 77.9082 3.55557L77.9082 3.54449C77.908 3.4319 77.9079 3.32912 78.0689 3.32374L78.0693 3.32372C78.3962 3.3126 78.7193 3.3016 78.9398 3.61121C78.9936 3.68655 79.0505 3.75988 79.1073 3.83314C79.2044 3.95824 79.3013 4.08316 79.3826 4.21768C79.5265 4.45507 79.7059 4.47918 79.9694 4.37532C79.8831 4.26732 79.8051 4.1561 79.7276 4.04564L79.7274 4.04543L79.7273 4.04524ZM79.0893 2.25361C78.9136 2.21466 78.7323 2.21281 78.5511 2.21466V2.21281C78.5199 2.21322 78.4886 2.21382 78.4575 2.21441C78.3486 2.2165 78.24 2.21857 78.1325 2.21281C77.898 2.20064 77.8986 2.37558 77.8991 2.55656C77.8992 2.59626 77.8994 2.63624 77.897 2.67461C77.8963 2.6874 77.8954 2.70017 77.8945 2.71287C77.8846 2.85488 77.8753 2.98738 78.0503 3.02143C78.3941 3.09005 78.7734 3.09933 79.1248 2.97692C79.2986 2.91757 79.4013 2.7896 79.3939 2.60228C79.3845 2.41125 79.263 2.29256 79.0893 2.25361Z" fill="#BDBDBE"/>
</svg>
