<svg width="71" height="18" viewBox="0 0 71 18" fill="none" xmlns="http://www.w3.org/2000/svg">
<path d="M60.9119 2.79102L66.6805 13.0258L67.0828 12.9605L66.9797 2.99303L68.421 2.79102V15.355H66.5717L60.5208 4.75322L60.0142 4.76184L60.1117 15.153L58.6704 15.355V2.79102H60.9119Z" fill="#BDBDBE"/>
<path d="M9.67764 4.14596H3.9173V8.21079H9.31762L9.31642 9.56573L9.13761 9.44256H3.9173V14.0001H9.91766V15.355H2.2972L2.11719 15.1703V2.97578L2.2972 2.79102H9.49763L9.67764 4.14596Z" fill="#BDBDBE"/>
<path d="M40.7593 2.79102V4.14596H34.9989V8.21079H40.5193V9.44256H34.9989V14.0001H41.1193V15.355H33.3188V2.79102H40.7593Z" fill="#BDBDBE"/>
<path d="M19.0566 3.23004L18.6484 4.53628C16.995 3.85325 13.6366 3.50516 13.6755 6.16429C13.8687 8.62007 19.2167 7.9514 19.6272 11.1847C20.1978 15.6752 14.6634 15.9802 11.8677 14.6943L12.0826 13.3965C13.8847 14.0603 17.1436 14.9312 17.9154 12.3833C18.3705 8.9275 12.3731 10.1715 11.9683 6.63798C11.5155 2.68219 16.4644 2.26352 19.0566 3.23004Z" fill="#BDBDBE"/>
<path d="M31.3687 2.79102V4.14596H27.4333L27.2571 4.33072V15.355H25.6124V4.14596H21.6769L21.6182 2.79102H31.3687Z" fill="#BDBDBE"/>
<path d="M45.3956 13.8549H50.7026L50.8702 15.355H43.8873L43.7197 15.1675V2.79102H45.3956V13.8549Z" fill="#BDBDBE"/>
<path d="M54.7703 2.79102H53.4702V15.355H54.7703V2.79102Z" fill="#BDBDBE"/>
</svg>
