<svg width="98" height="24" viewBox="0 0 98 24" fill="none" xmlns="http://www.w3.org/2000/svg">
<path d="M84.7957 2.76904L92.8482 17.056L93.4099 16.9649L93.2659 3.05104L95.2779 2.76904V20.3075H92.6964L84.2497 5.50814L83.5426 5.52017L83.6787 20.0255L81.6667 20.3075V2.76904H84.7957Z" fill="#BDBDBE"/>
<path d="M13.276 4.66045H5.23499V10.3347H12.7734L12.7718 12.2261L12.5222 12.0541H5.23499V18.4161H13.6111V20.3075H2.97345L2.72217 20.0496V3.02696L2.97345 2.76904H13.0247L13.276 4.66045Z" fill="#BDBDBE"/>
<path d="M56.6642 2.76904V4.66045H48.6231V10.3347H56.3291V12.0541H48.6231V18.4161H57.1667V20.3075H46.2778V2.76904H56.6642Z" fill="#BDBDBE"/>
<path d="M26.3685 3.38189L25.7986 5.2053C23.4906 4.25185 18.8026 3.76594 18.8568 7.47789C19.1266 10.906 26.5919 9.97257 27.165 14.486C27.9615 20.7544 20.2359 21.1802 16.3333 19.3852L16.6333 17.5735C19.1489 18.5002 23.6981 19.7158 24.7755 16.1592C25.4108 11.3351 17.0388 13.0717 16.4737 8.13913C15.8416 2.61712 22.7499 2.0327 26.3685 3.38189Z" fill="#BDBDBE"/>
<path d="M43.5554 2.76904V4.66045H38.0618L37.8158 4.91836V20.3075H35.52V4.66045H30.0263L29.9443 2.76904H43.5554Z" fill="#BDBDBE"/>
<path d="M63.1358 18.2134H70.5439L70.7779 20.3075H61.0303L60.7964 20.0457V2.76904H63.1358V18.2134Z" fill="#BDBDBE"/>
<path d="M76.2223 2.76904H74.4075V20.3075H76.2223V2.76904Z" fill="#BDBDBE"/>
</svg>
