<svg width="79" height="41" viewBox="0 0 79 41" fill="none" xmlns="http://www.w3.org/2000/svg">
<path d="M57.4776 35.7307L56.6897 36.6539C52.3967 39.7992 47.1117 36.2993 47.7896 31.0651C48.607 24.7596 58.9684 24.2587 60.5912 30.1549C60.9957 31.6262 61.0816 35.7076 60.8997 37.2631C60.884 37.3983 60.8886 37.5011 60.7565 37.5826H57.6162L57.4776 37.4437V35.7307ZM56.5217 34.4021C58.0623 32.8576 57.691 29.5966 55.5361 28.8345C52.7357 27.8447 50.4968 30.2234 51.2754 33.0132C51.9026 35.2595 54.9182 36.0095 56.5217 34.4011V34.4021Z" fill="#BDBDBE"/>
<path d="M25.3043 28.5941H16.3168C15.182 28.5941 13.8245 29.6975 13.6295 30.8395C13.2602 32.9959 14.4818 34.3792 16.5815 34.5376L27.4505 34.444V37.0539L16.4921 37.0575C8.38103 36.6777 8.06714 26.5763 16.4921 26.0706C19.267 25.9041 22.2029 26.2065 24.9957 26.0706L25.3043 26.2101V28.595V28.5941Z" fill="#BDBDBE"/>
<path d="M14.1905 3.15381V5.72581L14.0551 5.86118H8.00852C7.63941 5.86118 6.69993 6.73836 6.69993 7.07949V9.92223H13.3783V12.6296H6.69993V18.1346H3.27051V6.899C3.27051 5.30346 5.75503 3.15381 7.28654 3.15381H14.1905Z" fill="#BDBDBE"/>
<path d="M20.8176 7.12737C25.203 6.72749 29.5418 10.2204 27.8594 14.9593C25.6471 21.1899 14.3085 19.915 15.0006 12.2616C15.2651 9.3397 18.1366 7.37101 20.8167 7.12644L20.8176 7.12737ZM20.9982 9.72934C17.3752 10.2036 17.4846 15.8762 20.9818 16.2957C26.2024 16.9224 26.0821 9.06443 20.9982 9.72934Z" fill="#BDBDBE"/>
<path d="M48.5105 14.1624H40.2513C40.5817 15.066 41.1437 15.7249 42.0217 16.0458C42.1402 16.0896 42.6519 16.2571 42.7201 16.2571H46.9395L47.0742 16.4V18.9231H42.4508C39.9748 18.9231 37.0787 16.5371 36.8417 13.8273C36.4117 8.91714 40.5081 6.21879 44.7409 7.35374C46.5768 7.84599 48.5105 9.93212 48.5105 12.0201V14.1624ZM45.2787 12.0678C45.0605 8.80098 40.6266 8.93237 40.2513 12.0678H45.2787Z" fill="#BDBDBE"/>
<path d="M46.1702 33.0086H38.0487C38.0879 33.9089 38.8813 34.5833 39.631 34.8684C39.8818 34.9643 40.6324 35.1722 40.86 35.1722H44.653V37.8062C41.2268 37.9191 36.3181 38.0696 34.8571 33.9738C32.8241 28.2759 39.2464 24.1152 43.7873 26.9129C44.9439 27.625 46.1702 29.5543 46.1702 30.9861V33.0086ZM42.9573 31.0331C42.7984 27.7491 38.2325 27.8724 37.9594 31.0331H42.9573Z" fill="#BDBDBE"/>
<path d="M59.8149 7.09802V9.51533L59.677 9.65216H53.9754C53.9156 9.65216 53.511 9.97964 53.465 10.0572C53.1285 10.6346 53.6563 11.1527 54.2467 11.2065C55.9802 11.3643 57.6391 10.9128 59.3248 11.7338C61.2605 12.677 61.4987 15.4035 60.0926 16.9059C59.6374 17.3921 58.4079 18.1347 57.7449 18.1347H50.6179V15.5805H57.1012C57.286 15.5805 57.6759 15.1071 57.698 14.8882C57.7752 14.1283 57.0828 13.8966 56.4602 13.8437C55.078 13.726 53.7428 14.0462 52.3643 13.6193C49.4491 12.7171 49.3287 9.0045 51.91 7.60337C52.1693 7.46289 53.0797 7.09619 53.3299 7.09619H59.8131L59.8149 7.09802Z" fill="#BDBDBE"/>
<path d="M75.0297 37.846H71.8388V30.8732C71.8388 30.7224 71.5374 30.0421 71.4346 29.8828C70.4419 28.3526 68.1222 28.233 67.0684 29.7509C66.9638 29.9017 66.6101 30.5506 66.6101 30.6835V37.846H63.4635L63.3306 37.7037V31.0629C63.3306 25.2248 72.781 24.1689 74.7186 29.4046C74.793 29.6058 75.0306 30.3362 75.0306 30.4937V37.846H75.0297Z" fill="#BDBDBE"/>
<path d="M66.9893 4.73096V7.62544H70.3505V10.2398H66.9893V15.702C66.9893 15.8607 67.3219 16.3089 67.4758 16.3089H70.3505V18.9233H66.4143C65.329 18.9233 63.8049 17.4452 63.8049 16.2622V10.2398H61.7705V7.62544H63.8049V4.87101L63.9376 4.73096H66.9893Z" fill="#BDBDBE"/>
<path d="M32.9105 21.2886V36.9219L32.784 37.0578H29.917L29.7905 36.9219V21.2886H32.9105Z" fill="#BDBDBE"/>
<path d="M36.8105 7.09619V9.65055H33.6749C33.6094 9.65055 33.1601 10.02 33.1601 10.0611V18.1347H29.7905V9.42248C29.7905 9.08859 30.3961 8.1672 30.6816 7.91906C31.0728 7.57878 32.139 7.09619 32.6453 7.09619H36.8105Z" fill="#BDBDBE"/>
</svg>
