<svg width="100" height="52" viewBox="0 0 100 52" fill="none" xmlns="http://www.w3.org/2000/svg">
<path d="M73.4963 45.3173L72.4863 46.4881C66.9823 50.4773 60.2067 46.0383 61.0758 39.3998C62.1238 31.4026 75.4075 30.7673 77.4881 38.2455C78.0067 40.1115 78.1169 45.2879 77.8836 47.2608C77.8635 47.4323 77.8694 47.5626 77.7 47.666H73.674L73.4963 47.4898V45.3173ZM72.2707 43.6321C74.2459 41.6733 73.7699 37.5373 71.0073 36.5709C67.4169 35.3155 64.5466 38.3324 65.5448 41.8706C66.3488 44.7196 70.2151 45.6708 72.2707 43.6309V43.6321Z" fill="#BDBDBE"/>
<path d="M32.2484 36.2659H20.726C19.2711 36.2659 17.5307 37.6653 17.2808 39.1138C16.8073 41.8487 18.3734 43.6031 21.0654 43.804L35 43.6853V46.9954L20.9507 47C10.5519 46.5183 10.1495 33.7068 20.9507 33.0653C24.5083 32.8542 28.2723 33.2377 31.8528 33.0653L32.2484 33.2423V36.2671V36.2659Z" fill="#BDBDBE"/>
<path d="M18 4V7.26205L17.8264 7.43373H10.0744C9.60116 7.43373 8.39669 8.54627 8.39669 8.97892V12.5843H16.9587V16.0181H8.39669V23H4V8.75C4 6.72639 7.18529 4 9.14876 4H18Z" fill="#BDBDBE"/>
<path d="M26.4967 9.03954C32.1189 8.53238 37.6816 12.9623 35.5245 18.9728C32.6883 26.875 18.1516 25.258 19.039 15.5512C19.378 11.8454 23.0595 9.34855 26.4955 9.03836L26.4967 9.03954ZM26.7282 12.3396C22.0833 12.9411 22.2236 20.1357 26.7071 20.6676C33.4003 21.4626 33.246 11.4963 26.7282 12.3396Z" fill="#BDBDBE"/>
<path d="M62 17.9621H51.4112C51.8348 19.1081 52.5553 19.9437 53.6809 20.3507C53.8328 20.4062 54.4889 20.6188 54.5763 20.6188H59.9858L60.1585 20.7999V24H54.2311C51.0567 24 47.3438 20.9738 47.0399 17.537C46.4886 11.3095 51.7404 7.8872 57.1671 9.32664C59.5208 9.95096 62 12.5968 62 15.245V17.9621ZM57.8566 15.3054C57.5769 11.1622 51.8923 11.3288 51.4112 15.3054H57.8566Z" fill="#BDBDBE"/>
<path d="M59 41.8648H48.5877C48.6381 43.0066 49.6553 43.862 50.6164 44.2235C50.9379 44.3452 51.9002 44.6089 52.192 44.6089H57.0549V47.9495C52.6623 48.0927 46.3691 48.2836 44.4961 43.0889C41.8896 35.8624 50.1233 30.5854 55.945 34.1336C57.4279 35.0368 59 37.4838 59 39.2997V41.8648ZM54.8809 39.3593C54.6772 35.1943 48.8234 35.3506 48.4733 39.3593H54.8809Z" fill="#BDBDBE"/>
<path d="M76.4931 9.00231V12.0682L76.3162 12.2417H69.0066C68.9299 12.2417 68.4112 12.6571 68.3522 12.7554C67.9207 13.4877 68.5974 14.1449 69.3544 14.2131C71.5767 14.4133 73.7036 13.8406 75.8647 14.8818C78.3464 16.0781 78.6518 19.5362 76.8491 21.4416C76.2655 22.0583 74.6892 23 73.8392 23H64.7021V19.7606H73.0139C73.2509 19.7606 73.7508 19.1602 73.7791 18.8825C73.8781 17.9188 72.9903 17.6249 72.1922 17.5578C70.4202 17.4086 68.7083 17.8146 66.941 17.2732C63.2036 16.129 63.0492 11.4203 66.3586 9.64325C66.691 9.46509 67.8582 9 68.1789 9H76.4907L76.4931 9.00231Z" fill="#BDBDBE"/>
<path d="M95.9989 48H91.908V39.1565C91.908 38.9652 91.5216 38.1025 91.3898 37.9003C90.117 35.9596 87.1432 35.808 85.792 37.7331C85.658 37.9244 85.2045 38.7474 85.2045 38.9158V48H81.1705L81 47.8195V39.3971C81 31.9926 93.1159 30.6535 95.6 37.2939C95.6955 37.549 96 38.4755 96 38.6752V48H95.9989Z" fill="#BDBDBE"/>
<path d="M85.6907 6V9.67105H90V12.9868H85.6907V19.9145C85.6907 20.1158 86.1171 20.6842 86.3144 20.6842H90V24H84.9536C83.5622 24 81.6082 22.1254 81.6082 20.625V12.9868H79V9.67105H81.6082V6.17763L81.7784 6H85.6907Z" fill="#BDBDBE"/>
<path d="M42 27V46.8276L41.8378 47H38.1622L38 46.8276V27H42Z" fill="#BDBDBE"/>
<path d="M47 9V12.2397H42.98C42.896 12.2397 42.32 12.7083 42.32 12.7603V23H38V11.9504C38 11.5269 38.7764 10.3583 39.1424 10.0436C39.644 9.61207 41.0108 9 41.66 9H47Z" fill="#BDBDBE"/>
</svg>
