<svg width="95" height="70" viewBox="0 0 95 70" fill="none" xmlns="http://www.w3.org/2000/svg">
<path d="M83.9276 9.51697C84.1629 9.74368 83.7628 10.3975 83.6082 10.6834C82.8048 12.1784 81.2484 15.0205 80.2298 16.2526C78.0986 18.8286 74.4513 20.0082 72.3302 22.6597C71.8057 22.0585 72.4108 21.122 72.4781 20.5043C72.5487 19.857 72.4243 19.1999 72.5218 18.5756C73.0563 15.1881 74.0009 11.035 78.2129 10.8312C78.3306 10.4402 77.5271 10.2595 77.3187 10.2563C74.6933 10.1971 72.3133 12.7238 71.5738 15.0238C69.9838 19.9753 71.3889 25.5314 70.4006 30.6341C69.261 36.5254 65.6944 40.6358 59.5327 41.6971C54.2415 42.6105 48.1605 42.0683 42.7685 42.7255C41.7903 42.8438 36.9127 44.0299 36.5261 43.6882C36.59 43.3728 36.3076 42.8536 36.7244 42.6861C39.3868 41.6116 47.1991 40.1922 48.3689 37.6852C48.5807 37.2318 48.5437 36.7422 48.6983 36.3644C49.3 34.9022 52.7389 34.5704 53.8516 33.5157C54.5743 32.8323 54.5575 31.3011 55.6769 30.6998L59.0452 28.574C57.267 28.9321 55.5324 29.4414 53.7474 29.7996C44.7687 31.6001 35.4638 34.577 26.28 35.152C25.5035 35.2012 23.5639 35.2801 22.9353 35.1158C21.1671 34.6591 24.2463 33.887 24.9152 33.818C29.8399 33.3087 33.9343 32.7698 38.5363 30.7031C39.175 30.414 43.2122 28.4491 42.2374 27.585C34.1058 25.607 25.6413 24.6279 18.0341 21.0103C17.9064 20.225 18.1282 20.2743 18.8577 20.3696C22.7638 20.8822 27.2313 22.5973 31.3493 23.2775C37.4438 24.2829 43.3333 24.5885 49.3034 22.824C51.4649 22.1866 56.1744 20.57 55.1996 17.7082C54.7357 16.3479 53.4953 16.4695 52.8331 15.7499C52.3994 15.2801 52.2246 14.1597 51.9153 13.8541C51.5523 13.4959 50.1909 13.2692 49.6496 12.9472C48.7319 12.4018 48.3958 11.2715 47.8041 10.8082C47.1621 10.299 45.804 10.0887 44.9435 9.33297C44.335 8.80069 44.2409 8.2684 43.4879 7.79855C40.9062 6.19842 35.4974 6.67813 32.4888 5.89613C32.2199 5.19299 33.1679 4.94 33.6856 4.91042C34.2469 4.87428 34.7579 5.23571 35.3361 5.25214C42.2542 5.43285 48.1941 4.21714 54.8332 3.91815C59.8285 3.69472 64.1044 4.65414 65.6137 9.82911C65.9902 11.127 65.9499 13.1411 66.5012 14.2188C66.9281 15.0534 67.6071 14.9055 68.3064 14.4554C69.4997 13.6865 70.8746 11.6592 72.1789 10.6834C73.863 9.42497 75.527 8.92226 77.6851 9.20154C78.6028 9.31983 79.7794 10.1511 80.3811 10.1511C80.9828 10.1511 83.6149 9.21797 83.9208 9.5104L83.9276 9.51697ZM47.9588 6.55984H53.8415C53.9121 6.55984 54.3121 6.19842 54.8433 6.2017C55.2904 6.2017 57.3006 6.51713 57.8048 6.62884C59.1831 6.9377 60.968 7.85441 61.6975 9.06683C62.4875 10.3811 62.4438 12.3164 63.5934 13.4565L63.0018 9.76668C61.6504 4.30586 54.8466 5.57414 50.5035 5.9257L47.9621 6.56313L47.9588 6.55984ZM57.7073 9.1884C57.909 9.01097 57.5628 8.36698 57.1594 8.24541C55.6904 7.80512 52.4431 8.42283 50.9842 9.03726C50.4531 9.26397 50.1606 9.01097 50.3152 9.84554C51.3943 8.89597 57.4317 9.43154 57.7073 9.1884ZM83.2552 9.84554C83.1477 9.72725 80.2399 11.3175 81.7425 12.1422C82.1022 11.8465 83.5275 10.1478 83.2552 9.84554ZM59.3881 11.1598C59.4721 10.7425 59.2637 10.3384 58.8435 10.2103C57.8283 9.90468 54.0331 11.0382 53.3373 12.1455C55.3408 11.6888 57.351 11.449 59.3881 11.1598ZM78.5491 13.4598C78.7003 13.3152 78.5692 11.9517 78.0415 11.817C77.0027 11.5508 75.7253 13.2199 77.3658 13.4664C77.6145 13.5025 78.5054 13.4992 78.5491 13.4598ZM56.0265 14.4455C56.682 14.2155 60.3798 13.3481 60.3932 12.9669C60.4369 11.6198 56.1005 13.4072 56.0265 14.4455ZM47.9588 24.3026C46.3721 24.2402 44.6342 24.8579 43.0946 24.9663C41.1583 25.1043 39.0103 24.917 37.0337 24.9564C36.6269 24.963 35.7798 24.7133 35.8605 25.2817C39.1481 25.9783 42.6643 26.3923 45.9486 25.4526L47.9621 24.2993L47.9588 24.3026ZM53.6734 26.274L35.4369 32.9275L34.5125 33.4993C39.8708 32.6154 44.9905 30.9298 49.8715 28.6364L53.6734 26.274ZM51.6565 41.0596C55.5324 40.7311 59.499 40.7409 62.9783 38.8221C66.834 36.693 68.8375 32.1718 68.461 27.9201L67.624 30.8806C64.6557 38.0795 59.657 39.2689 52.5675 40.4781C52.2818 40.5274 51.559 40.6489 51.6565 41.0629V41.0596ZM64.0943 30.874C62.7127 30.3318 61.6807 30.5651 60.3226 30.966C59.973 31.0678 59.3108 31.0613 59.3881 31.5278C60.3394 31.5574 61.3008 31.4917 62.2555 31.518C63.0959 31.541 64.0136 32.4051 64.0943 30.874ZM62.4135 34.4882C62.7497 34.1925 62.1076 33.5715 61.5799 33.496C59.7646 33.2397 57.7309 33.5748 56.0265 34.1597C55.9425 34.7314 56.8165 34.5112 57.1796 34.4685C58.6217 34.2977 58.625 34.4357 59.8823 34.4981C60.2756 34.5178 62.3194 34.5704 62.4135 34.485V34.4882ZM51.3203 37.4454C53.5457 37.1825 55.4921 37.7181 57.6199 38.0269C59.3411 38.2767 59.4251 37.4454 57.788 36.8737C55.9425 36.233 54.7592 36.4925 52.9305 36.8868C52.4868 36.9821 51.3069 36.9755 51.3203 37.4454Z" fill="#BDBDBE"/>
<path d="M31.4785 59.4217C31.3872 59.4986 31.4244 60.865 31.5157 61.1891C31.8302 62.2817 33.2643 62.1881 34.1842 61.9242C36.3048 61.3127 40.8571 57.3269 42.2844 55.5628C44.2561 53.1272 47.0904 45.6799 51.1827 46.7758C53.4454 47.3805 53.8343 52.2151 52.2143 52.6795C50.5942 53.1439 50.5266 51.2662 50.1343 50.1369C50.0294 49.8362 50.0396 49.5021 49.5593 49.7159C49.3462 49.8095 48.2775 50.9287 48.034 51.2194C46.5154 53.0336 44.503 57.9684 45.8457 60.0632C47.4387 62.5489 51.6934 59.3181 53.1105 57.9049C53.8952 57.1197 56.5197 53.8689 56.9053 52.9668C57.531 51.4934 57.3517 48.2024 58.6741 47.3638C62.8984 44.681 59.5163 54.046 59.8748 54.3934C61.9649 54.36 65.0629 53.6851 66.0404 51.6304C66.6695 50.3073 66.5477 47.0398 68.4992 47.0531C69.5882 47.0598 70.1091 47.7714 69.9501 48.7972C69.4157 52.2886 67.329 55.8601 67.6367 59.5854C67.7619 61.1056 68.5837 60.9553 69.666 60.2236C71.8542 58.7368 72.2939 55.4459 73.6772 53.1606C74.8339 51.2495 78.1112 47.3572 80.4178 47.0966C82.0682 46.9095 82.19 48.4062 82.88 48.874C83.6849 49.4186 84.3918 48.8105 84.2125 50.5278C84.0028 52.5391 82.863 55.0416 82.8529 57.2333C82.8529 57.8648 83.3061 59.6222 83.8811 59.9128C86.093 61.0288 88.9407 56.8324 89.6611 55.0817C90.0839 54.9247 90.9057 55.1619 90.9937 55.5695C91.1661 56.3747 87.7739 60.8617 86.9419 61.5867C84.8111 63.4343 81.3512 64.5068 80.5733 60.8483C80.4245 60.14 80.6883 59.3181 80.34 58.7401C78.7504 61.1123 76.897 64.7741 73.5757 64.7808C71.7663 64.7808 70.9208 63.8453 71.0358 62.0812C65.6683 65.89 64.214 63.725 64.5996 57.8948C64.6334 57.377 64.8871 56.9961 64.9513 56.5684C65.1204 55.4659 63.8488 56.5117 63.3516 56.662C62.435 56.9426 60.1386 57.2701 59.6076 57.8046C58.7621 58.6566 58.7316 62.7093 58.3663 64.1126C58.062 65.2752 55.7892 65.4757 55.5186 64.5502C55.0823 63.0601 55.8399 60.6145 55.8906 58.9774C55.8906 58.8704 56.3066 58.0385 55.6471 58.0786C55.4645 58.0886 54.9098 59.1244 54.6426 59.4217C53.212 61.0087 50.5976 63.6582 48.4703 64.019C45.1017 64.5903 43.157 63.4276 42.3588 60.1768C42.2133 59.5921 42.5651 58.396 41.9495 58.4127C41.9529 58.7134 41.8143 59.0308 41.6181 59.2547C39.8966 61.1925 35.8211 64.5803 33.2507 65.0213C24.9037 66.458 28.2858 54.3099 31.3162 50.4176C33.1357 48.0788 38.449 44.6542 40.4174 48.3962C42.3926 52.1549 37.3566 57.0228 34.1808 58.5898C33.4942 58.9306 31.5867 59.3382 31.4819 59.4317L31.4785 59.4217ZM31.4616 57.4004C33.5484 57.0295 36.5517 54.2531 36.8628 52.2151C37.0861 50.7483 36.8189 49.5823 35.0635 50.1035C33.4841 50.5713 31.1437 55.6831 31.4616 57.4037V57.4004ZM79.7177 50.4376C77.4753 50.9488 74.2319 57.3803 74.0661 59.562C74.012 60.2603 73.9342 60.9586 74.5836 61.403C77.2961 60.0899 79.0582 56.6453 80.2318 53.9557C80.712 52.8532 82.2543 49.8596 79.7211 50.4376H79.7177Z" fill="#BDBDBE"/>
<path d="M26.9316 39.0465C27.2352 39.3214 27.8626 40.7324 27.9427 41.1894C28.4399 43.9682 25.59 47.277 23.6779 49.0688L26.5011 51.5627C29.411 55.8717 24.0683 61.9725 20.234 63.8703C16.1827 65.8774 8.30378 67.4175 4.48278 64.4731C2.97107 63.3106 2.62401 62.1679 3.40156 60.4125C4.51949 57.8788 8.41724 56.8951 10.9468 56.4778C12.1148 52.6094 12.5586 48.1215 13.9035 44.3425C14.5509 42.5242 15.3985 41.5968 17.4942 41.61C18.0181 41.61 18.0648 41.5206 18.0048 42.1168L14.3306 56.5209C14.8579 56.3884 18.6822 56.6269 18.3351 57.6801C17.948 58.8393 14.938 57.4449 14.0169 57.8656C13.5397 59.2732 13.5664 62.8933 11.8311 63.1516C8.4673 63.655 10.1092 60.0681 10.6631 58.1802C7.27595 58.4319 5.16355 62.7575 9.088 64.2115C12.4985 65.4767 16.9769 63.9299 19.68 61.6645C22.0727 59.6574 24.7558 55.0305 21.9893 52.4007C20.4208 50.9103 20.0237 51.9701 18.4887 52.1987C17.1104 52.404 16.3763 52.51 16.6666 51.056C16.8902 49.9398 19.6133 48.7873 20.6478 48.052C22.6233 46.6477 24.8158 44.8128 24.3453 42.1135C23.9148 39.6394 18.1549 40.3316 16.3229 40.7787C13.9235 41.3616 10.9902 42.65 9.66532 44.7664C10.523 45.8826 11.8278 44.6406 12.9991 44.932C12.7622 49.0058 6.11797 47.2803 8.99122 43.4383C10.9701 40.792 17.2372 38.245 20.4976 37.9668C22.1361 37.8277 25.6801 37.9138 26.9316 39.0531V39.0465Z" fill="#BDBDBE"/>
<path d="M86.7481 38.9758C89.6356 38.4607 91.3668 40.2791 90.934 43.1369C90.6244 45.1877 87.9581 46.224 86.1258 45.4232C82.935 44.0257 83.4942 39.5599 86.7481 38.9789V38.9758ZM89.604 44.1701C90.4633 43.2468 90.378 41.4411 89.5408 40.4581C87.2031 37.7227 83.3331 41.6389 85.5635 44.0979C86.5175 45.15 88.6658 45.1814 89.604 44.1733V44.1701Z" fill="#BDBDBE"/>
<path d="M89.868 41.9637C89.7383 42.0406 89.4528 41.9836 89.2743 41.9979V42.1375C89.7902 42.3141 90.173 43.4793 89.9199 43.7043C89.8843 43.7356 89.0505 43.8553 88.9499 43.5134C88.5021 41.9637 87.743 42.2742 87.9733 43.7072H87V40.8555C87.73 40.9154 89.6896 40.5991 89.9199 41.2857C89.9719 41.4395 89.9589 41.9124 89.868 41.9666V41.9637ZM88.9466 41.995C89.044 41.4737 88.6092 41.0606 87.9733 41.1404V41.995H88.9466Z" fill="#BDBDBE"/>
</svg>
