<svg width="65" height="47" viewBox="0 0 65 47" fill="none" xmlns="http://www.w3.org/2000/svg">
<path d="M56.9124 6.39033C57.0709 6.54255 56.8014 6.98156 56.6973 7.1735C56.156 8.17728 55.1075 10.0856 54.4213 10.9129C52.9855 12.6424 50.5284 13.4344 49.0994 15.2148C48.7461 14.811 49.1538 14.1823 49.1991 13.7676C49.2466 13.333 49.1628 12.8917 49.2285 12.4726C49.5886 10.1981 50.2249 7.40955 53.0625 7.27277C53.1418 7.01024 52.6005 6.88891 52.4601 6.8867C50.6915 6.84699 49.0881 8.54349 48.5899 10.0878C47.5187 13.4124 48.4653 17.1429 47.7995 20.569C47.0318 24.5245 44.629 27.2844 40.4779 27.997C36.9134 28.6103 32.8167 28.2463 29.1842 28.6875C28.5252 28.7669 25.2392 29.5633 24.9788 29.3339C25.0218 29.1221 24.8316 28.7735 25.1124 28.661C26.906 27.9396 32.169 26.9866 32.9571 25.3033C33.0998 24.9989 33.0749 24.6701 33.179 24.4164C33.5844 23.4347 35.9011 23.2119 36.6507 22.5037C37.1376 22.0449 37.1263 21.0168 37.8804 20.6131L40.1496 19.1858C38.9516 19.4262 37.783 19.7682 36.5805 20.0086C30.5317 21.2176 24.2632 23.2163 18.0762 23.6024C17.553 23.6355 16.2463 23.6884 15.8229 23.5781C14.6317 23.2715 16.7061 22.753 17.1567 22.7067C20.4744 22.3648 23.2327 22.003 26.333 20.6153C26.7633 20.4212 29.4831 19.1019 28.8264 18.5217C23.3482 17.1936 17.6459 16.5362 12.521 14.1073C12.435 13.58 12.5844 13.6131 13.0759 13.6771C15.7074 14.0213 18.7171 15.1728 21.4912 15.6295C25.597 16.3046 29.5647 16.5098 33.5867 15.3251C35.0428 14.8971 38.2156 13.8117 37.5588 11.8902C37.2463 10.9768 36.4107 11.0585 35.9645 10.5753C35.6724 10.2598 35.5546 9.50756 35.3463 9.30239C35.1017 9.06193 34.1845 8.9097 33.8199 8.69351C33.2017 8.32729 32.9752 7.56839 32.5766 7.25733C32.1441 6.91538 31.2292 6.77419 30.6494 6.26679C30.2395 5.9094 30.1761 5.55201 29.6688 5.23653C27.9296 4.16216 24.2858 4.48425 22.259 3.9592C22.0778 3.48709 22.7164 3.31722 23.0652 3.29736C23.4434 3.2731 23.7876 3.51577 24.1771 3.5268C28.8377 3.64813 32.8393 2.83187 37.312 2.63112C40.6772 2.4811 43.5578 3.12529 44.5747 6.59991C44.8283 7.47132 44.8011 8.82367 45.1725 9.54727C45.4601 10.1076 45.9176 10.0083 46.3886 9.70611C47.1926 9.18988 48.1188 7.82871 48.9975 7.1735C50.1321 6.32856 51.2531 5.99102 52.707 6.17854C53.3252 6.25796 54.1178 6.81611 54.5232 6.81611C54.9286 6.81611 56.7018 6.18957 56.9079 6.38592L56.9124 6.39033ZM32.6808 4.40483H36.6439C36.6915 4.40483 36.961 4.16216 37.3188 4.16436C37.62 4.16436 38.9742 4.37615 39.3139 4.45116C40.2424 4.65853 41.4449 5.27404 41.9364 6.08809C42.4686 6.97053 42.4391 8.26993 43.2136 9.03545L42.815 6.55799C41.9047 2.89144 37.321 3.743 34.3951 3.97905L32.6831 4.40704L32.6808 4.40483ZM39.2482 6.16972C39.3841 6.05059 39.1509 5.61819 38.8791 5.53656C37.8895 5.24094 35.7018 5.65569 34.719 6.06824C34.3612 6.22046 34.1641 6.05059 34.2683 6.61094C34.9953 5.97337 39.0625 6.33297 39.2482 6.16972ZM56.4595 6.61094C56.387 6.53152 54.4281 7.59928 55.4404 8.15301C55.6827 7.95446 56.6429 6.8139 56.4595 6.61094ZM40.3806 7.49338C40.4372 7.21321 40.2968 6.94185 40.0137 6.85582C39.3298 6.65065 36.773 7.41176 36.3042 8.15521C37.6539 7.84857 39.0082 7.68752 40.3806 7.49338ZM53.289 9.03766C53.3909 8.94059 53.3026 8.02505 52.947 7.9346C52.2473 7.75591 51.3867 8.87661 52.4918 9.04207C52.6594 9.06634 53.2595 9.06413 53.289 9.03766ZM38.1159 9.69949C38.5575 9.54506 41.0486 8.96265 41.0577 8.70674C41.0871 7.80224 38.1658 9.00236 38.1159 9.69949ZM32.6808 16.3178C31.6119 16.2759 30.4411 16.6906 29.4039 16.7635C28.0994 16.8561 26.6523 16.7304 25.3207 16.7568C25.0467 16.7612 24.476 16.5936 24.5304 16.9752C26.7452 17.4429 29.114 17.7209 31.3266 17.09L32.6831 16.3156L32.6808 16.3178ZM36.5307 17.6415L24.245 22.1089L23.6223 22.4927C27.2321 21.8993 30.6811 20.7675 33.9694 19.2277L36.5307 17.6415ZM35.1719 27.569C37.783 27.3484 40.4553 27.355 42.7992 26.0666C45.3967 24.6371 46.7465 21.6014 46.4928 18.7467L45.9289 20.7344C43.9292 25.568 40.5617 26.3666 35.7856 27.1785C35.5931 27.2116 35.1062 27.2932 35.1719 27.5712V27.569ZM43.5511 20.73C42.6203 20.366 41.925 20.5227 41.0101 20.7918C40.7746 20.8602 40.3285 20.8558 40.3806 21.1691C41.0215 21.1889 41.6691 21.1448 42.3123 21.1624C42.8785 21.1779 43.4967 21.7581 43.5511 20.73ZM42.4187 23.1568C42.6452 22.9582 42.2127 22.5413 41.8571 22.4905C40.6342 22.3184 39.2641 22.5435 38.1159 22.9361C38.0593 23.32 38.6481 23.1722 38.8927 23.1435C39.8642 23.0288 39.8665 23.1215 40.7135 23.1634C40.9784 23.1766 42.3553 23.2119 42.4187 23.1546V23.1568ZM34.9454 25.1423C36.4446 24.9658 37.7559 25.3254 39.1894 25.5327C40.3489 25.7004 40.4055 25.1423 39.3026 24.7584C38.0593 24.3282 37.2622 24.5025 36.0302 24.7672C35.7313 24.8312 34.9364 24.8268 34.9454 25.1423Z" fill="#BDBDBE"/>
<path d="M21.5783 39.8977C21.5168 39.9493 21.5418 40.8668 21.6033 41.0844C21.8152 41.818 22.7813 41.7551 23.4011 41.5779C24.8297 41.1674 27.8965 38.4912 28.858 37.3067C30.1864 35.6714 32.0957 30.6711 34.8527 31.4069C36.377 31.8129 36.639 35.059 35.5476 35.3708C34.4562 35.6826 34.4107 34.4219 34.1464 33.6636C34.0757 33.4617 34.0826 33.2374 33.759 33.381C33.6155 33.4438 32.8955 34.1953 32.7314 34.3905C31.7084 35.6086 30.3527 38.9219 31.2573 40.3284C32.3304 41.9974 35.1967 39.8282 36.1514 38.8793C36.68 38.3521 38.4481 36.1694 38.7079 35.5637C39.1294 34.5744 39.0086 32.3648 39.8995 31.8017C42.7454 30.0004 40.4669 36.2883 40.7084 36.5216C42.1165 36.4991 44.2036 36.046 44.8621 34.6664C45.2859 33.778 45.2038 31.5841 46.5185 31.5931C47.2522 31.5976 47.6031 32.0754 47.496 32.7641C47.136 35.1083 45.7302 37.5064 45.9375 40.0076C46.0218 41.0283 46.5755 40.9274 47.3046 40.4361C48.7788 39.4378 49.075 37.2282 50.0069 35.6938C50.7861 34.4106 52.994 31.7972 54.5479 31.6222C55.6598 31.4966 55.7418 32.5016 56.2066 32.8157C56.7489 33.1813 57.2251 32.773 57.1043 33.9261C56.9631 35.2765 56.1952 36.9568 56.1884 38.4284C56.1884 38.8523 56.4937 40.0323 56.8811 40.2275C58.3712 40.9767 60.2897 38.1592 60.775 36.9837C61.0598 36.8783 61.6135 37.0375 61.6727 37.3112C61.7889 37.8518 59.5036 40.8646 58.9431 41.3514C57.5076 42.5919 55.1768 43.312 54.6527 40.8556C54.5524 40.38 54.7302 39.8282 54.4955 39.4401C53.4246 41.0328 52.176 43.4914 49.9385 43.4959C48.7195 43.4959 48.1499 42.8678 48.2274 41.6834C44.6114 44.2407 43.6317 42.7871 43.8914 38.8725C43.9142 38.5248 44.0851 38.2691 44.1284 37.9819C44.2423 37.2417 43.3856 37.9438 43.0507 38.0448C42.4332 38.2332 40.8861 38.453 40.5284 38.812C39.9588 39.384 39.9383 42.1051 39.6922 43.0473C39.4871 43.8279 37.956 43.9625 37.7737 43.3411C37.4798 42.3406 37.9902 40.6986 38.0243 39.5994C38.0243 39.5276 38.3046 38.969 37.8603 38.9959C37.7373 39.0026 37.3636 39.6981 37.1836 39.8977C36.2198 40.9633 34.4585 42.7422 33.0254 42.9845C30.756 43.3681 29.4459 42.5874 28.9081 40.4047C28.8102 40.0121 29.0471 39.209 28.6324 39.2202C28.6347 39.4221 28.5413 39.6352 28.4092 39.7855C27.2494 41.0866 24.5038 43.3613 22.7722 43.6574C17.1489 44.6221 19.4274 36.4655 21.4689 33.8521C22.6947 32.2818 26.2742 29.9824 27.6003 32.4949C28.9309 35.0186 25.5383 38.287 23.3988 39.3391C22.9362 39.5679 21.6512 39.8416 21.5805 39.9044L21.5783 39.8977ZM21.5669 38.5405C22.9727 38.2915 24.996 36.4274 25.2056 35.059C25.356 34.0742 25.176 33.2912 23.9935 33.6412C22.9294 33.9553 21.3527 37.3875 21.5669 38.5428V38.5405ZM54.0762 33.8655C52.5656 34.2087 50.3805 38.5271 50.2689 39.9919C50.2324 40.4608 50.18 40.9296 50.6175 41.228C52.4449 40.3464 53.6319 38.0335 54.4226 36.2277C54.7461 35.4874 55.7851 33.4774 54.0785 33.8655H54.0762Z" fill="#BDBDBE"/>
<path d="M18.5149 26.2172C18.7195 26.4018 19.1421 27.3491 19.1961 27.656C19.5311 29.5218 17.6111 31.7434 16.3229 32.9464L18.2249 34.621C20.1853 37.5141 16.586 41.6104 14.0028 42.8846C11.2736 44.2322 5.96565 45.2663 3.3915 43.2894C2.37309 42.5088 2.13928 41.7416 2.6631 40.563C3.41623 38.8618 6.04209 38.2013 7.7462 37.9211C8.53305 35.3237 8.83206 32.3104 9.73807 29.7731C10.1742 28.5522 10.7452 27.9296 12.1571 27.9384C12.5101 27.9384 12.5415 27.8784 12.5011 28.2787L10.0258 37.95C10.381 37.8611 12.9574 38.0212 12.7236 38.7283C12.4628 39.5067 10.435 38.5704 9.8145 38.8529C9.49302 39.798 9.511 42.2286 8.34196 42.4021C6.07581 42.7401 7.18191 40.3317 7.5551 39.0641C5.27322 39.2331 3.85013 42.1374 6.49397 43.1137C8.79159 43.9632 11.8086 42.9247 13.6296 41.4036C15.2416 40.0559 17.0491 36.9493 15.1854 35.1836C14.1287 34.1829 13.8612 34.8945 12.827 35.0479C11.8986 35.1858 11.404 35.257 11.5995 34.2807C11.7502 33.5313 13.5847 32.7574 14.2816 32.2637C15.6125 31.3209 17.0896 30.0889 16.7726 28.2765C16.4826 26.6153 12.6022 27.0801 11.368 27.3803C9.75156 27.7717 7.77542 28.6367 6.8829 30.0577C7.46068 30.8072 8.33971 29.9732 9.12882 30.1689C8.9692 32.9042 4.4931 31.7456 6.42877 29.166C7.76193 27.3892 11.984 25.6791 14.1804 25.4923C15.2843 25.3989 17.6718 25.4567 18.5149 26.2217V26.2172Z" fill="#BDBDBE"/>
<path d="M58.8123 26.1698C60.7576 25.824 61.9239 27.0449 61.6323 28.9637C61.4237 30.3407 59.6274 31.0365 58.393 30.4988C56.2435 29.5605 56.6202 26.562 58.8123 26.1719V26.1698ZM60.7363 29.6575C61.3152 29.0375 61.2577 27.8251 60.6937 27.1651C59.1188 25.3285 56.5117 27.9579 58.0142 29.609C58.657 30.3154 60.1042 30.3364 60.7363 29.6596V29.6575Z" fill="#BDBDBE"/>
<path d="M60.9141 28.1754C60.8267 28.227 60.6343 28.1887 60.5141 28.1983V28.292C60.8616 28.4106 61.1195 29.1929 60.9491 29.3441C60.925 29.3651 60.3633 29.4454 60.2955 29.2159C59.9939 28.1754 59.4825 28.3839 59.6376 29.346H58.9819V27.4313C59.4737 27.4715 60.7939 27.2592 60.9491 27.7201C60.984 27.8234 60.9753 28.1409 60.9141 28.1773V28.1754ZM60.2933 28.1964C60.3589 27.8464 60.066 27.569 59.6376 27.6226V28.1964H60.2933Z" fill="#BDBDBE"/>
</svg>
