<svg width="729" height="290" viewBox="0 0 729 290" fill="none" xmlns="http://www.w3.org/2000/svg">
<mask id="path-1-outside-1_1_1181" maskUnits="userSpaceOnUse" x="8.94922" y="3.81348" width="623" height="283" fill="black">
<rect fill="white" x="8.94922" y="3.81348" width="623" height="283"/>
<path d="M544.388 280.632C543.968 280.331 548.285 273.244 548.836 271.258C554.532 251.151 553.68 161.816 551.414 138.195C548.908 112.095 525.48 108.413 519.772 88.1371C517.218 79.0641 522.122 81.6271 522.818 77.9089C523.309 75.3338 523.213 58.6798 522.554 56.4537C521.295 52.2301 516.175 53.662 515.66 53.1566C515.18 52.6873 516.259 45.8886 514.509 43.1691C513.31 41.3039 509.952 42.0259 509.545 40.3774C508.945 37.9106 509.773 12.1355 510.792 11.0886C511.811 10.0417 518.765 13.8562 516.859 6.97321C516.139 4.38608 482.531 4.69894 477.771 5.03587C472.243 5.42093 464.786 6.62425 459.618 8.47736C457.496 9.23545 445.733 14.8429 450.481 17.0931C458.191 20.7512 463.778 13.3749 471.956 12.4483C497.075 9.59645 490.301 24.0002 493.922 42.2906C483.814 42.6998 488.478 49.7512 485.72 53.65C484.557 55.2985 480.025 54.2276 478.682 60.0998C477.975 63.2043 478.874 74.6599 479.641 77.8608C480.325 80.7006 482.963 81.4948 483.106 83.8052C484.329 102.421 452.544 114.141 449.762 136.992C446.177 166.545 446.824 214.823 448.443 245.134C448.863 253.004 449.75 270.428 454.966 275.891C457.28 278.31 460.181 278.358 461.608 280.632L413.66 279.429C416.765 274.134 414.343 267.287 414.871 260.801C415.77 249.887 418.695 239.19 419.631 228.276C422.185 198.469 420.698 166.666 423.264 136.86C423.803 130.626 431.441 109.652 428.048 106.74C424.127 103.383 409.727 106.079 404.655 106.103C389.715 106.187 371.514 104.334 356.635 106.091C349.764 106.897 352.846 114.55 354.045 119.628C363.433 159.301 362.953 207.627 365.687 248.732C366.395 259.394 363.709 270.633 368.073 280.62L311.732 278.213C313.698 274.194 318.71 277.419 322.523 276.517C325.232 275.879 349.548 261.62 351.335 259.61C353.121 257.601 353.901 255.134 353.781 252.378C353.565 247.505 336.287 215.376 332.738 208.409C328.794 200.66 315.592 172.297 311.348 167.893C308.47 164.909 303.315 164.391 299.43 165.414C296.42 166.208 266.181 181.226 263.351 183.332C259.754 186.015 260.965 189.348 258.459 189.156C255.714 188.939 243.076 185.738 240.031 184.728C227.885 180.696 235.726 178.338 234.995 175.39C234.683 174.114 231.793 173.85 231.518 173.368C231.182 172.779 233.148 160.228 229.587 160.288C225.846 160.36 228.076 163.597 226.722 165.715C226.398 166.221 218.772 173.801 218.256 174.102C217.249 174.68 206.302 174.969 204.06 175.474C196.386 177.195 186.974 179.89 184.001 187.952C182.442 192.188 183.089 197.254 177.382 200.599C175.811 201.526 173.006 200.996 172.694 201.273C170.224 203.608 175.847 221.032 175.044 221.669C174.049 222.44 164.912 222.307 163.282 228.564C164.709 244.677 158.654 261.355 164.253 277.022H84.4978L10.7912 282.484L12.5657 284.891L84.4978 279.441H163.677C202.07 283.977 236.386 283.592 272.848 280.608C303.458 278.153 334.009 282.738 364.56 283.977C372.102 284.29 376.982 283.977 387.389 282.906C388.157 282.678 388.588 281.992 387.701 281.486C386.586 280.777 385.195 280.632 383.876 280.596C380.603 280.488 377.306 280.861 374.068 280.391C372.258 280.127 370.351 279.513 369.248 278.045C368.121 276.553 368.073 274.519 368.073 272.654C368.073 264.086 368.085 255.531 368.097 246.963C383.277 246.963 398.468 246.963 413.648 246.963C413.252 255.374 412.856 263.786 412.461 272.197C409.667 272.113 406.753 272.714 404.02 272.161C402.713 271.643 402.077 270.211 401.37 268.996C398.384 263.365 390.675 260.404 385.171 264.171C382.054 266.276 380.327 270.127 376.982 271.848C375.003 272.859 372.605 272.991 370.531 272.197C371.203 274.519 374.02 274.82 376.083 274.724C388.193 274.603 400.303 274.579 412.413 274.676C412.748 277.503 412.029 279.742 408.888 279.477C402.521 279.453 401.478 279.742 395.111 279.766C393.984 279.766 391.91 281.27 393.312 282.172C416.693 283.977 436.873 282.618 460.865 282.93C476.884 282.834 493.142 287.311 509.557 285.445C510.708 282.124 504.521 282.281 502.638 282.112C481.452 280.235 455.505 287.936 452.172 259.418C448.395 227.036 449.066 173.164 452.04 140.469C454.27 115.946 472.315 114.141 481.776 96.9093C483.934 92.9865 485.205 82.9027 485.72 82.4213C486.967 81.2661 507.914 81.9761 512.554 80.833C514.329 80.3998 514.677 81.7715 514.365 78.4624H486.188C485.277 78.4624 482.843 81.6031 482.003 76.6454C481.356 72.8189 479.725 59.4018 483.19 57.3201C485.193 56.1168 488.346 56.1168 490.432 55.9483C496.44 55.455 502.95 56.4657 508.957 55.5633C511.055 55.2504 510.96 56.201 510.756 53.1807H489.173C487.519 40.5097 492.831 45.1184 498.226 44.5168C501.535 44.3724 510.816 43.2292 512.614 45.8886C514.605 48.8367 511.487 55.2023 511.955 55.5753C513.154 56.55 519.365 53.313 520.348 58.5956C520.732 60.6533 520.803 76.0558 520.372 77.6081C520.012 78.8836 517.506 78.7873 516.943 80.3998C514.101 88.6064 523.609 100.784 528.777 106.692C542.074 121.926 547.685 120.085 549.184 143.971C551.067 173.946 550.671 214.991 549.184 245.158C548.824 252.486 548.045 266.457 545.599 272.847C541.151 284.459 534.005 279.284 524.772 282.028C523.249 282.485 522.038 283.773 523.933 284.832L629.175 283.015L630.949 280.608H544.34L544.388 280.632ZM491.859 15.6732C491.308 15.3363 490.984 12.9176 489.197 11.7504C481.812 6.94915 468.467 10.7396 460.805 13.2666C459.99 13.5313 456.68 15.8056 456.884 12.8935C457.016 10.9923 469.785 8.83836 471.956 8.47736L481.44 7.81554H491.859H513.813C514.065 10.0778 510.084 8.2006 508.921 9.78898C507.626 11.5699 508.298 16.2749 507.818 16.8404C507.123 17.6587 504.101 16.3591 501.823 16.2388C498.945 16.0823 494.065 17.0089 491.859 15.6612V15.6732ZM494.041 19.5238C505.204 22.111 507.818 14.7346 507.267 29.8002C507.111 33.9155 505.264 38.0189 506.032 42.3869H496.427L494.041 19.5238ZM356.143 118.196L424.487 119.399C422.928 124.02 421.357 129.604 420.914 134.453C417.856 168.856 419.307 205.894 416.094 240.309C415.866 241.633 415.626 242.691 414.211 243.185L366.934 243.341L365.687 191.923L360.939 139.579C360.939 136.908 355.555 118.629 356.143 118.208V118.196ZM278.219 178.374C286.516 177.123 301.528 162.899 309.046 169.084L349.153 246.133C356.922 257.384 340.172 264.243 331.767 268.803C327.822 270.945 323.314 273.472 318.974 274.603C321.599 269.501 332.187 269.525 330.46 262.582C329.285 257.877 318.41 242.74 315.161 236.916C310.161 227.927 289.094 184.764 284.154 181.394C281.984 179.914 278.735 180.384 278.207 178.362L278.219 178.374ZM236.23 198.794C212.645 203.644 211.23 177.688 228.448 167.532C229.839 176.425 219.887 184.27 227.165 192.874C229.767 195.954 234.083 195.967 236.23 198.794ZM209.06 197.218C200.655 186.857 213.233 174.608 215.858 177.159C216.542 177.833 211.71 189.192 217.033 195.834C218.688 197.892 221.254 197.988 221.854 199.998C217.285 202.2 212.237 201.129 209.072 197.218H209.06ZM188.545 199.745C181.051 188.686 190.152 180.323 201.47 179.577C199.9 182.044 196.722 182.694 194.948 185.642C191.003 192.2 194.18 195.654 197.873 201.213L188.545 199.745ZM316.6 272.209C312.475 261.632 269.023 189.709 271.541 185.522C274.059 181.334 281.241 181.455 284.754 185.63C292.751 195.112 304.549 223.065 311.576 235.724C313.83 239.791 329.045 263.304 328.026 265.037L316.6 272.221V272.209ZM269.814 183.175C268.267 191.647 275.977 202.994 279.982 210.864C290.617 231.789 303.686 251.764 314.094 272.678C311.444 276.408 307.343 276.457 304.753 272.63C292.703 251.223 284.142 227.662 272.836 205.99C269.011 198.65 255.294 185.45 269.814 183.163V183.175ZM265.006 200.01C262.212 202.537 252.392 196.965 249.155 196.075C244.419 194.763 233.124 194.222 231.673 189.553C228.424 179.132 233.544 185.353 237.956 186.857C245.282 189.348 258.16 188.951 263.135 195.281C263.855 196.195 265.761 199.324 264.994 200.022L265.006 200.01ZM188.281 277.022H166.699C166.543 277.022 165.5 274.17 165.5 274.014V235.508C165.5 234.232 168.318 233.691 169.625 233.655C179.9 235.508 196.554 238.071 208.017 238.853C216.997 239.467 272.452 238.275 276.996 233.691C278.243 232.439 277.464 231.356 275.317 231.392C267.836 231.525 256.937 234.316 248.807 234.894C222.057 236.639 191.255 236.097 165.488 230.081C164.852 229.226 170.488 224.557 172.346 224.269C175.368 223.799 178.893 226.326 182.886 226.82C202.382 229.202 233.904 229.816 253.471 227.542C255.366 227.325 260.03 227.133 258.999 224.088C235.258 226.158 211.458 225.316 187.682 224.064L177.478 221.669H256.613L254.838 219.263L176.279 216.243C175.344 213.138 178.833 214.943 179.9 215.027C203.88 216.977 234.395 215.701 258.435 213.246C260.546 213.03 264.742 212.885 263.807 209.636L247.033 210.816C245.978 208.553 261.301 210.803 256.613 207.23C254.682 205.75 214.863 208.625 208.017 208.469C201.171 208.313 191.279 207.687 184.24 207.061C182.13 206.881 173.737 206.64 175.104 203.608L199.624 206.062L264.131 203.896C281.624 213.126 285.461 253.894 283.039 271.595C281.696 283.135 271.613 276.156 262.62 278.562C263.195 271.535 264.646 263.425 263.519 256.241C260.414 236.47 249.239 250.946 238.724 253.594C232.381 255.194 222.189 255.038 215.811 253.582C208.88 251.993 198.94 243.907 192.777 247.156C183.173 252.21 190.176 275.097 188.293 276.986L188.281 277.022ZM285.401 277.022V240.923L301.24 271.354L306.995 277.624L285.401 277.022ZM190.679 277.022V253.557C190.679 243.558 210.511 254.989 214.623 256C224.731 258.467 233.556 258.118 243.4 254.725C246.229 253.75 255.546 247.89 257.092 248.239C263.675 249.719 260.138 274.17 260.198 279.429L225.451 279.441L206.866 279.429L190.667 277.022H190.679Z"/>
</mask>
<path d="M544.388 280.632C543.968 280.331 548.285 273.244 548.836 271.258C554.532 251.151 553.68 161.816 551.414 138.195C548.908 112.095 525.48 108.413 519.772 88.1371C517.218 79.0641 522.122 81.6271 522.818 77.9089C523.309 75.3338 523.213 58.6798 522.554 56.4537C521.295 52.2301 516.175 53.662 515.66 53.1566C515.18 52.6873 516.259 45.8886 514.509 43.1691C513.31 41.3039 509.952 42.0259 509.545 40.3774C508.945 37.9106 509.773 12.1355 510.792 11.0886C511.811 10.0417 518.765 13.8562 516.859 6.97321C516.139 4.38608 482.531 4.69894 477.771 5.03587C472.243 5.42093 464.786 6.62425 459.618 8.47736C457.496 9.23545 445.733 14.8429 450.481 17.0931C458.191 20.7512 463.778 13.3749 471.956 12.4483C497.075 9.59645 490.301 24.0002 493.922 42.2906C483.814 42.6998 488.478 49.7512 485.72 53.65C484.557 55.2985 480.025 54.2276 478.682 60.0998C477.975 63.2043 478.874 74.6599 479.641 77.8608C480.325 80.7006 482.963 81.4948 483.106 83.8052C484.329 102.421 452.544 114.141 449.762 136.992C446.177 166.545 446.824 214.823 448.443 245.134C448.863 253.004 449.75 270.428 454.966 275.891C457.28 278.31 460.181 278.358 461.608 280.632L413.66 279.429C416.765 274.134 414.343 267.287 414.871 260.801C415.77 249.887 418.695 239.19 419.631 228.276C422.185 198.469 420.698 166.666 423.264 136.86C423.803 130.626 431.441 109.652 428.048 106.74C424.127 103.383 409.727 106.079 404.655 106.103C389.715 106.187 371.514 104.334 356.635 106.091C349.764 106.897 352.846 114.55 354.045 119.628C363.433 159.301 362.953 207.627 365.687 248.732C366.395 259.394 363.709 270.633 368.073 280.62L311.732 278.213C313.698 274.194 318.71 277.419 322.523 276.517C325.232 275.879 349.548 261.62 351.335 259.61C353.121 257.601 353.901 255.134 353.781 252.378C353.565 247.505 336.287 215.376 332.738 208.409C328.794 200.66 315.592 172.297 311.348 167.893C308.47 164.909 303.315 164.391 299.43 165.414C296.42 166.208 266.181 181.226 263.351 183.332C259.754 186.015 260.965 189.348 258.459 189.156C255.714 188.939 243.076 185.738 240.031 184.728C227.885 180.696 235.726 178.338 234.995 175.39C234.683 174.114 231.793 173.85 231.518 173.368C231.182 172.779 233.148 160.228 229.587 160.288C225.846 160.36 228.076 163.597 226.722 165.715C226.398 166.221 218.772 173.801 218.256 174.102C217.249 174.68 206.302 174.969 204.06 175.474C196.386 177.195 186.974 179.89 184.001 187.952C182.442 192.188 183.089 197.254 177.382 200.599C175.811 201.526 173.006 200.996 172.694 201.273C170.224 203.608 175.847 221.032 175.044 221.669C174.049 222.44 164.912 222.307 163.282 228.564C164.709 244.677 158.654 261.355 164.253 277.022H84.4978L10.7912 282.484L12.5657 284.891L84.4978 279.441H163.677C202.07 283.977 236.386 283.592 272.848 280.608C303.458 278.153 334.009 282.738 364.56 283.977C372.102 284.29 376.982 283.977 387.389 282.906C388.157 282.678 388.588 281.992 387.701 281.486C386.586 280.777 385.195 280.632 383.876 280.596C380.603 280.488 377.306 280.861 374.068 280.391C372.258 280.127 370.351 279.513 369.248 278.045C368.121 276.553 368.073 274.519 368.073 272.654C368.073 264.086 368.085 255.531 368.097 246.963C383.277 246.963 398.468 246.963 413.648 246.963C413.252 255.374 412.856 263.786 412.461 272.197C409.667 272.113 406.753 272.714 404.02 272.161C402.713 271.643 402.077 270.211 401.37 268.996C398.384 263.365 390.675 260.404 385.171 264.171C382.054 266.276 380.327 270.127 376.982 271.848C375.003 272.859 372.605 272.991 370.531 272.197C371.203 274.519 374.02 274.82 376.083 274.724C388.193 274.603 400.303 274.579 412.413 274.676C412.748 277.503 412.029 279.742 408.888 279.477C402.521 279.453 401.478 279.742 395.111 279.766C393.984 279.766 391.91 281.27 393.312 282.172C416.693 283.977 436.873 282.618 460.865 282.93C476.884 282.834 493.142 287.311 509.557 285.445C510.708 282.124 504.521 282.281 502.638 282.112C481.452 280.235 455.505 287.936 452.172 259.418C448.395 227.036 449.066 173.164 452.04 140.469C454.27 115.946 472.315 114.141 481.776 96.9093C483.934 92.9865 485.205 82.9027 485.72 82.4213C486.967 81.2661 507.914 81.9761 512.554 80.833C514.329 80.3998 514.677 81.7715 514.365 78.4624H486.188C485.277 78.4624 482.843 81.6031 482.003 76.6454C481.356 72.8189 479.725 59.4018 483.19 57.3201C485.193 56.1168 488.346 56.1168 490.432 55.9483C496.44 55.455 502.95 56.4657 508.957 55.5633C511.055 55.2504 510.96 56.201 510.756 53.1807H489.173C487.519 40.5097 492.831 45.1184 498.226 44.5168C501.535 44.3724 510.816 43.2292 512.614 45.8886C514.605 48.8367 511.487 55.2023 511.955 55.5753C513.154 56.55 519.365 53.313 520.348 58.5956C520.732 60.6533 520.803 76.0558 520.372 77.6081C520.012 78.8836 517.506 78.7873 516.943 80.3998C514.101 88.6064 523.609 100.784 528.777 106.692C542.074 121.926 547.685 120.085 549.184 143.971C551.067 173.946 550.671 214.991 549.184 245.158C548.824 252.486 548.045 266.457 545.599 272.847C541.151 284.459 534.005 279.284 524.772 282.028C523.249 282.485 522.038 283.773 523.933 284.832L629.175 283.015L630.949 280.608H544.34L544.388 280.632ZM491.859 15.6732C491.308 15.3363 490.984 12.9176 489.197 11.7504C481.812 6.94915 468.467 10.7396 460.805 13.2666C459.99 13.5313 456.68 15.8056 456.884 12.8935C457.016 10.9923 469.785 8.83836 471.956 8.47736L481.44 7.81554H491.859H513.813C514.065 10.0778 510.084 8.2006 508.921 9.78898C507.626 11.5699 508.298 16.2749 507.818 16.8404C507.123 17.6587 504.101 16.3591 501.823 16.2388C498.945 16.0823 494.065 17.0089 491.859 15.6612V15.6732ZM494.041 19.5238C505.204 22.111 507.818 14.7346 507.267 29.8002C507.111 33.9155 505.264 38.0189 506.032 42.3869H496.427L494.041 19.5238ZM356.143 118.196L424.487 119.399C422.928 124.02 421.357 129.604 420.914 134.453C417.856 168.856 419.307 205.894 416.094 240.309C415.866 241.633 415.626 242.691 414.211 243.185L366.934 243.341L365.687 191.923L360.939 139.579C360.939 136.908 355.555 118.629 356.143 118.208V118.196ZM278.219 178.374C286.516 177.123 301.528 162.899 309.046 169.084L349.153 246.133C356.922 257.384 340.172 264.243 331.767 268.803C327.822 270.945 323.314 273.472 318.974 274.603C321.599 269.501 332.187 269.525 330.46 262.582C329.285 257.877 318.41 242.74 315.161 236.916C310.161 227.927 289.094 184.764 284.154 181.394C281.984 179.914 278.735 180.384 278.207 178.362L278.219 178.374ZM236.23 198.794C212.645 203.644 211.23 177.688 228.448 167.532C229.839 176.425 219.887 184.27 227.165 192.874C229.767 195.954 234.083 195.967 236.23 198.794ZM209.06 197.218C200.655 186.857 213.233 174.608 215.858 177.159C216.542 177.833 211.71 189.192 217.033 195.834C218.688 197.892 221.254 197.988 221.854 199.998C217.285 202.2 212.237 201.129 209.072 197.218H209.06ZM188.545 199.745C181.051 188.686 190.152 180.323 201.47 179.577C199.9 182.044 196.722 182.694 194.948 185.642C191.003 192.2 194.18 195.654 197.873 201.213L188.545 199.745ZM316.6 272.209C312.475 261.632 269.023 189.709 271.541 185.522C274.059 181.334 281.241 181.455 284.754 185.63C292.751 195.112 304.549 223.065 311.576 235.724C313.83 239.791 329.045 263.304 328.026 265.037L316.6 272.221V272.209ZM269.814 183.175C268.267 191.647 275.977 202.994 279.982 210.864C290.617 231.789 303.686 251.764 314.094 272.678C311.444 276.408 307.343 276.457 304.753 272.63C292.703 251.223 284.142 227.662 272.836 205.99C269.011 198.65 255.294 185.45 269.814 183.163V183.175ZM265.006 200.01C262.212 202.537 252.392 196.965 249.155 196.075C244.419 194.763 233.124 194.222 231.673 189.553C228.424 179.132 233.544 185.353 237.956 186.857C245.282 189.348 258.16 188.951 263.135 195.281C263.855 196.195 265.761 199.324 264.994 200.022L265.006 200.01ZM188.281 277.022H166.699C166.543 277.022 165.5 274.17 165.5 274.014V235.508C165.5 234.232 168.318 233.691 169.625 233.655C179.9 235.508 196.554 238.071 208.017 238.853C216.997 239.467 272.452 238.275 276.996 233.691C278.243 232.439 277.464 231.356 275.317 231.392C267.836 231.525 256.937 234.316 248.807 234.894C222.057 236.639 191.255 236.097 165.488 230.081C164.852 229.226 170.488 224.557 172.346 224.269C175.368 223.799 178.893 226.326 182.886 226.82C202.382 229.202 233.904 229.816 253.471 227.542C255.366 227.325 260.03 227.133 258.999 224.088C235.258 226.158 211.458 225.316 187.682 224.064L177.478 221.669H256.613L254.838 219.263L176.279 216.243C175.344 213.138 178.833 214.943 179.9 215.027C203.88 216.977 234.395 215.701 258.435 213.246C260.546 213.03 264.742 212.885 263.807 209.636L247.033 210.816C245.978 208.553 261.301 210.803 256.613 207.23C254.682 205.75 214.863 208.625 208.017 208.469C201.171 208.313 191.279 207.687 184.24 207.061C182.13 206.881 173.737 206.64 175.104 203.608L199.624 206.062L264.131 203.896C281.624 213.126 285.461 253.894 283.039 271.595C281.696 283.135 271.613 276.156 262.62 278.562C263.195 271.535 264.646 263.425 263.519 256.241C260.414 236.47 249.239 250.946 238.724 253.594C232.381 255.194 222.189 255.038 215.811 253.582C208.88 251.993 198.94 243.907 192.777 247.156C183.173 252.21 190.176 275.097 188.293 276.986L188.281 277.022ZM285.401 277.022V240.923L301.24 271.354L306.995 277.624L285.401 277.022ZM190.679 277.022V253.557C190.679 243.558 210.511 254.989 214.623 256C224.731 258.467 233.556 258.118 243.4 254.725C246.229 253.75 255.546 247.89 257.092 248.239C263.675 249.719 260.138 274.17 260.198 279.429L225.451 279.441L206.866 279.429L190.667 277.022H190.679Z" fill="#F7F7F7"/>
<path d="M544.388 280.632C543.968 280.331 548.285 273.244 548.836 271.258C554.532 251.151 553.68 161.816 551.414 138.195C548.908 112.095 525.48 108.413 519.772 88.1371C517.218 79.0641 522.122 81.6271 522.818 77.9089C523.309 75.3338 523.213 58.6798 522.554 56.4537C521.295 52.2301 516.175 53.662 515.66 53.1566C515.18 52.6873 516.259 45.8886 514.509 43.1691C513.31 41.3039 509.952 42.0259 509.545 40.3774C508.945 37.9106 509.773 12.1355 510.792 11.0886C511.811 10.0417 518.765 13.8562 516.859 6.97321C516.139 4.38608 482.531 4.69894 477.771 5.03587C472.243 5.42093 464.786 6.62425 459.618 8.47736C457.496 9.23545 445.733 14.8429 450.481 17.0931C458.191 20.7512 463.778 13.3749 471.956 12.4483C497.075 9.59645 490.301 24.0002 493.922 42.2906C483.814 42.6998 488.478 49.7512 485.72 53.65C484.557 55.2985 480.025 54.2276 478.682 60.0998C477.975 63.2043 478.874 74.6599 479.641 77.8608C480.325 80.7006 482.963 81.4948 483.106 83.8052C484.329 102.421 452.544 114.141 449.762 136.992C446.177 166.545 446.824 214.823 448.443 245.134C448.863 253.004 449.75 270.428 454.966 275.891C457.28 278.31 460.181 278.358 461.608 280.632L413.66 279.429C416.765 274.134 414.343 267.287 414.871 260.801C415.77 249.887 418.695 239.19 419.631 228.276C422.185 198.469 420.698 166.666 423.264 136.86C423.803 130.626 431.441 109.652 428.048 106.74C424.127 103.383 409.727 106.079 404.655 106.103C389.715 106.187 371.514 104.334 356.635 106.091C349.764 106.897 352.846 114.55 354.045 119.628C363.433 159.301 362.953 207.627 365.687 248.732C366.395 259.394 363.709 270.633 368.073 280.62L311.732 278.213C313.698 274.194 318.71 277.419 322.523 276.517C325.232 275.879 349.548 261.62 351.335 259.61C353.121 257.601 353.901 255.134 353.781 252.378C353.565 247.505 336.287 215.376 332.738 208.409C328.794 200.66 315.592 172.297 311.348 167.893C308.47 164.909 303.315 164.391 299.43 165.414C296.42 166.208 266.181 181.226 263.351 183.332C259.754 186.015 260.965 189.348 258.459 189.156C255.714 188.939 243.076 185.738 240.031 184.728C227.885 180.696 235.726 178.338 234.995 175.39C234.683 174.114 231.793 173.85 231.518 173.368C231.182 172.779 233.148 160.228 229.587 160.288C225.846 160.36 228.076 163.597 226.722 165.715C226.398 166.221 218.772 173.801 218.256 174.102C217.249 174.68 206.302 174.969 204.06 175.474C196.386 177.195 186.974 179.89 184.001 187.952C182.442 192.188 183.089 197.254 177.382 200.599C175.811 201.526 173.006 200.996 172.694 201.273C170.224 203.608 175.847 221.032 175.044 221.669C174.049 222.44 164.912 222.307 163.282 228.564C164.709 244.677 158.654 261.355 164.253 277.022H84.4978L10.7912 282.484L12.5657 284.891L84.4978 279.441H163.677C202.07 283.977 236.386 283.592 272.848 280.608C303.458 278.153 334.009 282.738 364.56 283.977C372.102 284.29 376.982 283.977 387.389 282.906C388.157 282.678 388.588 281.992 387.701 281.486C386.586 280.777 385.195 280.632 383.876 280.596C380.603 280.488 377.306 280.861 374.068 280.391C372.258 280.127 370.351 279.513 369.248 278.045C368.121 276.553 368.073 274.519 368.073 272.654C368.073 264.086 368.085 255.531 368.097 246.963C383.277 246.963 398.468 246.963 413.648 246.963C413.252 255.374 412.856 263.786 412.461 272.197C409.667 272.113 406.753 272.714 404.02 272.161C402.713 271.643 402.077 270.211 401.37 268.996C398.384 263.365 390.675 260.404 385.171 264.171C382.054 266.276 380.327 270.127 376.982 271.848C375.003 272.859 372.605 272.991 370.531 272.197C371.203 274.519 374.02 274.82 376.083 274.724C388.193 274.603 400.303 274.579 412.413 274.676C412.748 277.503 412.029 279.742 408.888 279.477C402.521 279.453 401.478 279.742 395.111 279.766C393.984 279.766 391.91 281.27 393.312 282.172C416.693 283.977 436.873 282.618 460.865 282.93C476.884 282.834 493.142 287.311 509.557 285.445C510.708 282.124 504.521 282.281 502.638 282.112C481.452 280.235 455.505 287.936 452.172 259.418C448.395 227.036 449.066 173.164 452.04 140.469C454.27 115.946 472.315 114.141 481.776 96.9093C483.934 92.9865 485.205 82.9027 485.72 82.4213C486.967 81.2661 507.914 81.9761 512.554 80.833C514.329 80.3998 514.677 81.7715 514.365 78.4624H486.188C485.277 78.4624 482.843 81.6031 482.003 76.6454C481.356 72.8189 479.725 59.4018 483.19 57.3201C485.193 56.1168 488.346 56.1168 490.432 55.9483C496.44 55.455 502.95 56.4657 508.957 55.5633C511.055 55.2504 510.96 56.201 510.756 53.1807H489.173C487.519 40.5097 492.831 45.1184 498.226 44.5168C501.535 44.3724 510.816 43.2292 512.614 45.8886C514.605 48.8367 511.487 55.2023 511.955 55.5753C513.154 56.55 519.365 53.313 520.348 58.5956C520.732 60.6533 520.803 76.0558 520.372 77.6081C520.012 78.8836 517.506 78.7873 516.943 80.3998C514.101 88.6064 523.609 100.784 528.777 106.692C542.074 121.926 547.685 120.085 549.184 143.971C551.067 173.946 550.671 214.991 549.184 245.158C548.824 252.486 548.045 266.457 545.599 272.847C541.151 284.459 534.005 279.284 524.772 282.028C523.249 282.485 522.038 283.773 523.933 284.832L629.175 283.015L630.949 280.608H544.34L544.388 280.632ZM491.859 15.6732C491.308 15.3363 490.984 12.9176 489.197 11.7504C481.812 6.94915 468.467 10.7396 460.805 13.2666C459.99 13.5313 456.68 15.8056 456.884 12.8935C457.016 10.9923 469.785 8.83836 471.956 8.47736L481.44 7.81554H491.859H513.813C514.065 10.0778 510.084 8.2006 508.921 9.78898C507.626 11.5699 508.298 16.2749 507.818 16.8404C507.123 17.6587 504.101 16.3591 501.823 16.2388C498.945 16.0823 494.065 17.0089 491.859 15.6612V15.6732ZM494.041 19.5238C505.204 22.111 507.818 14.7346 507.267 29.8002C507.111 33.9155 505.264 38.0189 506.032 42.3869H496.427L494.041 19.5238ZM356.143 118.196L424.487 119.399C422.928 124.02 421.357 129.604 420.914 134.453C417.856 168.856 419.307 205.894 416.094 240.309C415.866 241.633 415.626 242.691 414.211 243.185L366.934 243.341L365.687 191.923L360.939 139.579C360.939 136.908 355.555 118.629 356.143 118.208V118.196ZM278.219 178.374C286.516 177.123 301.528 162.899 309.046 169.084L349.153 246.133C356.922 257.384 340.172 264.243 331.767 268.803C327.822 270.945 323.314 273.472 318.974 274.603C321.599 269.501 332.187 269.525 330.46 262.582C329.285 257.877 318.41 242.74 315.161 236.916C310.161 227.927 289.094 184.764 284.154 181.394C281.984 179.914 278.735 180.384 278.207 178.362L278.219 178.374ZM236.23 198.794C212.645 203.644 211.23 177.688 228.448 167.532C229.839 176.425 219.887 184.27 227.165 192.874C229.767 195.954 234.083 195.967 236.23 198.794ZM209.06 197.218C200.655 186.857 213.233 174.608 215.858 177.159C216.542 177.833 211.71 189.192 217.033 195.834C218.688 197.892 221.254 197.988 221.854 199.998C217.285 202.2 212.237 201.129 209.072 197.218H209.06ZM188.545 199.745C181.051 188.686 190.152 180.323 201.47 179.577C199.9 182.044 196.722 182.694 194.948 185.642C191.003 192.2 194.18 195.654 197.873 201.213L188.545 199.745ZM316.6 272.209C312.475 261.632 269.023 189.709 271.541 185.522C274.059 181.334 281.241 181.455 284.754 185.63C292.751 195.112 304.549 223.065 311.576 235.724C313.83 239.791 329.045 263.304 328.026 265.037L316.6 272.221V272.209ZM269.814 183.175C268.267 191.647 275.977 202.994 279.982 210.864C290.617 231.789 303.686 251.764 314.094 272.678C311.444 276.408 307.343 276.457 304.753 272.63C292.703 251.223 284.142 227.662 272.836 205.99C269.011 198.65 255.294 185.45 269.814 183.163V183.175ZM265.006 200.01C262.212 202.537 252.392 196.965 249.155 196.075C244.419 194.763 233.124 194.222 231.673 189.553C228.424 179.132 233.544 185.353 237.956 186.857C245.282 189.348 258.16 188.951 263.135 195.281C263.855 196.195 265.761 199.324 264.994 200.022L265.006 200.01ZM188.281 277.022H166.699C166.543 277.022 165.5 274.17 165.5 274.014V235.508C165.5 234.232 168.318 233.691 169.625 233.655C179.9 235.508 196.554 238.071 208.017 238.853C216.997 239.467 272.452 238.275 276.996 233.691C278.243 232.439 277.464 231.356 275.317 231.392C267.836 231.525 256.937 234.316 248.807 234.894C222.057 236.639 191.255 236.097 165.488 230.081C164.852 229.226 170.488 224.557 172.346 224.269C175.368 223.799 178.893 226.326 182.886 226.82C202.382 229.202 233.904 229.816 253.471 227.542C255.366 227.325 260.03 227.133 258.999 224.088C235.258 226.158 211.458 225.316 187.682 224.064L177.478 221.669H256.613L254.838 219.263L176.279 216.243C175.344 213.138 178.833 214.943 179.9 215.027C203.88 216.977 234.395 215.701 258.435 213.246C260.546 213.03 264.742 212.885 263.807 209.636L247.033 210.816C245.978 208.553 261.301 210.803 256.613 207.23C254.682 205.75 214.863 208.625 208.017 208.469C201.171 208.313 191.279 207.687 184.24 207.061C182.13 206.881 173.737 206.64 175.104 203.608L199.624 206.062L264.131 203.896C281.624 213.126 285.461 253.894 283.039 271.595C281.696 283.135 271.613 276.156 262.62 278.562C263.195 271.535 264.646 263.425 263.519 256.241C260.414 236.47 249.239 250.946 238.724 253.594C232.381 255.194 222.189 255.038 215.811 253.582C208.88 251.993 198.94 243.907 192.777 247.156C183.173 252.21 190.176 275.097 188.293 276.986L188.281 277.022ZM285.401 277.022V240.923L301.24 271.354L306.995 277.624L285.401 277.022ZM190.679 277.022V253.557C190.679 243.558 210.511 254.989 214.623 256C224.731 258.467 233.556 258.118 243.4 254.725C246.229 253.75 255.546 247.89 257.092 248.239C263.675 249.719 260.138 274.17 260.198 279.429L225.451 279.441L206.866 279.429L190.667 277.022H190.679Z" stroke="#F7F7F7" mask="url(#path-1-outside-1_1_1181)"/>
</svg>
