<svg width="155" height="50" viewBox="0 0 155 50" fill="none" xmlns="http://www.w3.org/2000/svg">
<path d="M33.9705 47.7272C33.5782 47.7272 33.2129 47.6558 32.8746 47.513C32.5412 47.3701 32.2519 47.1717 32.0067 46.9178C31.7615 46.6586 31.5703 46.357 31.433 46.0132C31.2957 45.6693 31.2271 45.2937 31.2271 44.8863C31.2271 44.479 31.2957 44.1033 31.433 43.7595C31.5703 43.4156 31.7615 43.1167 32.0067 42.8628C32.2519 42.6035 32.5412 42.4025 32.8746 42.2597C33.208 42.1168 33.5733 42.0454 33.9705 42.0454C34.3628 42.0454 34.7232 42.1168 35.0517 42.2597C35.3851 42.3972 35.6744 42.5956 35.9196 42.8548C36.1697 43.1088 36.3609 43.4077 36.4933 43.7515C36.6306 44.0954 36.6993 44.4737 36.6993 44.8863C36.6993 45.299 36.6306 45.6772 36.4933 46.0211C36.3609 46.365 36.1697 46.6665 35.9196 46.9257C35.6744 47.1797 35.3851 47.3781 35.0517 47.5209C34.7232 47.6585 34.3628 47.7272 33.9705 47.7272ZM33.9705 47.021C34.2549 47.021 34.5172 46.9681 34.7575 46.8623C35.0027 46.7565 35.2135 46.6083 35.39 46.4179C35.5715 46.2221 35.7112 45.9946 35.8093 45.7354C35.9123 45.4762 35.9637 45.1932 35.9637 44.8863C35.9637 44.5795 35.9123 44.2964 35.8093 44.0372C35.7112 43.778 35.5715 43.5532 35.39 43.3627C35.2135 43.167 35.0027 43.0162 34.7575 42.9104C34.5172 42.8046 34.2549 42.7517 33.9705 42.7517C33.6812 42.7517 33.414 42.8046 33.1688 42.9104C32.9285 43.0162 32.7177 43.167 32.5363 43.3627C32.3548 43.5532 32.2126 43.778 32.1097 44.0372C32.0116 44.2964 31.9626 44.5795 31.9626 44.8863C31.9626 45.1932 32.0116 45.4762 32.1097 45.7354C32.2126 45.9946 32.3548 46.2221 32.5363 46.4179C32.7177 46.6083 32.9285 46.7565 33.1688 46.8623C33.414 46.9681 33.6812 47.021 33.9705 47.021Z" fill="#D73F7C"/>
<path d="M39.0003 47.6637V42.1089H41.0082C41.4593 42.1089 41.8442 42.1856 42.163 42.339C42.4817 42.4924 42.7269 42.7146 42.8985 43.0056C43.0701 43.2966 43.1559 43.6431 43.1559 44.0452C43.1559 44.4472 43.0701 44.7937 42.8985 45.0847C42.7269 45.3704 42.4817 45.5926 42.163 45.7513C41.8442 45.9047 41.4593 45.9814 41.0082 45.9814H39.4048L39.7358 45.6084V47.6637H39.0003ZM39.7358 45.6878L39.4048 45.291H40.9861C41.4569 45.291 41.8124 45.1826 42.0526 44.9657C42.2978 44.7488 42.4204 44.4419 42.4204 44.0452C42.4204 43.6484 42.2978 43.3415 42.0526 43.1246C41.8124 42.9077 41.4569 42.7993 40.9861 42.7993H39.4048L39.7358 42.4025V45.6878Z" fill="#D73F7C"/>
<path d="M46.0826 44.5054H48.7304V45.1799H46.0826V44.5054ZM46.1488 46.9734H49.1497V47.6637H45.4133V42.1089H49.0467V42.7993H46.1488V46.9734Z" fill="#D73F7C"/>
<path d="M51.5175 47.6637V42.1089H52.1206L55.526 46.6718H55.2097V42.1089H55.9452V47.6637H55.3421L51.9367 43.1008H52.253V47.6637H51.5175Z" fill="#D73F7C"/>
<path d="M58.6631 47.6637V42.1089H59.3986V47.6637H58.6631Z" fill="#D73F7C"/>
<path d="M62.1169 47.6637V42.1089H62.72L66.1254 46.6718H65.8091V42.1089H66.5447V47.6637H65.9415L62.5361 43.1008H62.8524V47.6637H62.1169Z" fill="#D73F7C"/>
<path d="M71.5868 47.7272C71.1896 47.7272 70.8243 47.6585 70.4908 47.5209C70.1574 47.3781 69.8681 47.1797 69.6229 46.9257C69.3778 46.6665 69.1865 46.365 69.0492 46.0211C68.9119 45.6772 68.8433 45.299 68.8433 44.8863C68.8433 44.4737 68.9119 44.0954 69.0492 43.7515C69.1865 43.4077 69.3778 43.1088 69.6229 42.8548C69.873 42.5956 70.1648 42.3972 70.4982 42.2597C70.8316 42.1168 71.1994 42.0454 71.6015 42.0454C72.0084 42.0454 72.3811 42.1168 72.7194 42.2597C73.0578 42.4025 73.3446 42.6168 73.58 42.9024L73.124 43.3944C72.9131 43.1723 72.6827 43.0109 72.4326 42.9104C72.1874 42.8046 71.9202 42.7517 71.6309 42.7517C71.3367 42.7517 71.0621 42.8046 70.8071 42.9104C70.557 43.0162 70.3388 43.1643 70.1525 43.3548C69.9711 43.5452 69.8289 43.7727 69.7259 44.0372C69.6278 44.2964 69.5788 44.5795 69.5788 44.8863C69.5788 45.1879 69.6278 45.4709 69.7259 45.7354C69.8289 45.9946 69.9711 46.2221 70.1525 46.4179C70.3388 46.6083 70.557 46.7565 70.8071 46.8623C71.0572 46.9681 71.3293 47.021 71.6235 47.021C71.8981 47.021 72.1605 46.976 72.4105 46.8861C72.6655 46.7908 72.9009 46.6348 73.1166 46.4179L73.5359 47.021C73.2809 47.2537 72.9818 47.431 72.6385 47.5526C72.3002 47.669 71.9496 47.7272 71.5868 47.7272ZM72.8298 46.9178V44.8546H73.5359V47.021L72.8298 46.9178Z" fill="#D73F7C"/>
<path d="M80.2953 47.6637V42.7993H78.5301V42.1089H82.7887V42.7993H81.0235V47.6637H80.2953Z" fill="#D73F7C"/>
<path d="M88.4589 42.1089H89.1944V47.6637H88.4589V42.1089ZM85.5021 47.6637H84.7666V42.1089H85.5021V47.6637ZM88.5251 45.1879H85.4286V44.4975H88.5251V45.1879Z" fill="#D73F7C"/>
<path d="M92.5816 44.5054H95.2294V45.1799H92.5816V44.5054ZM92.6478 46.9734H95.6487V47.6637H91.9123V42.1089H95.5457V42.7993H92.6478V46.9734Z" fill="#D73F7C"/>
<path d="M101.169 47.6637V42.1089H103.478C104.071 42.1089 104.527 42.2385 104.846 42.4977C105.165 42.7517 105.324 43.1008 105.324 43.5452C105.324 43.8468 105.26 44.1007 105.133 44.307C105.01 44.5134 104.844 44.6721 104.633 44.7832C104.422 44.8943 104.194 44.9498 103.949 44.9498L104.081 44.7117C104.375 44.7117 104.635 44.7673 104.861 44.8784C105.086 44.9895 105.265 45.1535 105.398 45.3704C105.53 45.582 105.596 45.8465 105.596 46.1639C105.596 46.6401 105.43 47.0104 105.096 47.2749C104.768 47.5341 104.277 47.6637 103.625 47.6637H101.169ZM101.904 47.021H103.596C104.003 47.021 104.314 46.9469 104.53 46.7988C104.746 46.6506 104.853 46.4179 104.853 46.1005C104.853 45.7777 104.746 45.5423 104.53 45.3942C104.314 45.2461 104.003 45.172 103.596 45.172H101.838V44.5292H103.412C103.784 44.5292 104.074 44.4552 104.28 44.307C104.486 44.1589 104.589 43.9367 104.589 43.6404C104.589 43.3442 104.486 43.122 104.28 42.9739C104.074 42.8257 103.784 42.7517 103.412 42.7517H101.904V47.021Z" fill="#D73F7C"/>
<path d="M108.581 44.5054H111.229V45.1799H108.581V44.5054ZM108.647 46.9734H111.648V47.6637H107.912V42.1089H111.545V42.7993H108.647V46.9734Z" fill="#D73F7C"/>
<path d="M115.517 47.7272C115.124 47.7272 114.749 47.6637 114.391 47.5368C114.033 47.4045 113.751 47.2352 113.545 47.0289L113.818 46.4099C114.014 46.5951 114.264 46.7485 114.568 46.8702C114.872 46.9919 115.188 47.0527 115.517 47.0527C115.816 47.0527 116.058 47.0157 116.245 46.9416C116.431 46.8675 116.568 46.767 116.657 46.6401C116.745 46.5078 116.789 46.3597 116.789 46.1957C116.789 46.0052 116.73 45.8518 116.612 45.7354C116.5 45.619 116.35 45.5264 116.164 45.4577C115.982 45.3836 115.781 45.3201 115.561 45.2672C115.34 45.2143 115.117 45.1535 114.891 45.0847C114.671 45.0106 114.467 44.9181 114.281 44.807C114.099 44.6959 113.952 44.5477 113.84 44.3626C113.727 44.1721 113.67 43.9288 113.67 43.6325C113.67 43.3468 113.739 43.085 113.876 42.8469C114.019 42.6035 114.234 42.4104 114.524 42.2676C114.818 42.1195 115.19 42.0454 115.642 42.0454C115.941 42.0454 116.237 42.0877 116.532 42.1724C116.826 42.257 117.081 42.3787 117.297 42.5374L117.054 43.1723C116.833 43.0135 116.6 42.8998 116.355 42.831C116.11 42.757 115.872 42.7199 115.642 42.7199C115.352 42.7199 115.114 42.7596 114.928 42.839C114.742 42.9183 114.605 43.0241 114.516 43.1564C114.433 43.2886 114.391 43.4368 114.391 43.6008C114.391 43.7965 114.448 43.9526 114.56 44.069C114.678 44.1853 114.828 44.2779 115.009 44.3467C115.195 44.4155 115.399 44.479 115.62 44.5372C115.84 44.5901 116.061 44.6509 116.281 44.7197C116.507 44.7884 116.711 44.8784 116.892 44.9895C117.078 45.1006 117.228 45.2487 117.341 45.4339C117.453 45.619 117.51 45.8571 117.51 46.1481C117.51 46.4285 117.439 46.6903 117.297 46.9337C117.154 47.1717 116.934 47.3648 116.635 47.513C116.34 47.6558 115.968 47.7272 115.517 47.7272Z" fill="#D73F7C"/>
<path d="M120.712 47.6637V42.7993H118.946V42.1089H123.205V42.7993H121.44V47.6637H120.712Z" fill="#D73F7C"/>
<path d="M99.1812 22.9496C100.968 22.2822 102.792 21.686 104.643 21.2173C105.655 20.9609 106.695 20.8021 107.702 20.5221C107.969 20.4481 108.622 20.2964 108.821 20.1703C109.02 20.0442 109.119 19.0684 109.265 18.7471C109.492 18.2486 110.196 17.6474 110.668 17.381C113.536 15.7677 115.69 18.4181 116.145 21.0806C116.171 21.238 116.18 21.9617 116.239 22.0186C116.376 22.1533 118.88 21.7002 119.264 21.6176C121.173 21.2088 123.011 20.4972 124.939 20.1703C124.75 19.1752 124.322 16.3696 125.957 16.403C126.027 16.4045 126.677 16.5142 126.704 16.5412C126.801 16.6424 126.669 18.9259 126.715 19.344C126.865 20.7038 127.782 22.4068 128.688 23.4133C128.9 23.6497 130.176 24.8364 130.413 24.7894C130.633 24.7452 131.882 23.3 132.123 23.0208C133.457 21.4709 135.066 19.4658 136.149 17.7428C136.624 16.9871 137.483 15.0732 138.205 14.6843C138.787 14.3709 139.342 14.742 139.441 15.3667C139.593 16.3233 138.476 17.9658 137.961 18.7828C136.886 20.4872 135.64 22.1447 134.316 23.6611C134.065 23.9496 132.371 25.6178 132.371 25.7617C132.37 25.9055 133.642 26.1776 133.84 26.2047C137.361 26.6905 142.216 24.4639 145.32 22.8427C146.643 22.1518 150.298 19.8248 151.647 20.0314C152.115 20.1026 152.305 20.5855 152.041 20.9901C151.637 21.6091 148.909 23.149 148.126 23.602C145.693 25.0095 143.007 26.4112 140.383 27.4184C137.794 28.412 135.402 29.1856 132.637 28.4135C132.282 28.3144 130.483 27.578 130.365 27.5972C130.168 27.6285 128.453 29.1336 128.116 29.3886C127.39 29.9377 125.372 31.4214 124.541 31.4912C123.656 31.5653 123.419 30.8039 123.705 30.0773C124.602 29.4562 125.537 28.8957 126.418 28.2489C126.706 28.0367 128.51 26.6541 128.543 26.4661C128.564 26.3464 127.604 25.4789 127.451 25.3015C126.513 24.2196 125.898 22.9047 125.18 21.6767C122.246 22.691 119.244 23.5436 116.161 23.9781C115.788 25.5081 115.417 27.0516 114.645 28.4355C113.626 30.2625 110.071 33.9877 108.026 31.6052C106.367 29.6713 107.57 25.5088 108.699 23.518C108.833 23.2822 109.482 22.4987 109.507 22.3997C109.528 22.3092 109.39 22.0407 109.323 22.0222C109.093 21.9581 108.108 22.1981 107.803 22.2587C105.388 22.738 101.92 23.513 99.702 24.5038C98.2861 25.1363 98.7093 25.3393 98.088 26.5117C97.5297 27.5658 96.0784 28.8351 94.9859 29.301C92.563 30.3323 90.9447 28.9263 92.7796 26.7239C93.877 25.4062 95.5781 24.7288 96.97 23.7844C97.098 23.6348 97.2962 22.6291 97.2021 22.5222C96.9516 22.238 95.0326 24.1426 94.7976 24.3392C94.015 24.9924 92.8829 25.8649 91.8016 25.501C91.6078 25.4354 91.7634 24.6662 91.7571 24.4055C91.7238 23.0586 91.7917 22.3356 92.0592 21.0122C92.8291 17.2008 94.262 13.4685 95.2724 9.71619C95.7593 7.9063 96.3565 4.03578 97.287 2.6269C97.8707 1.74368 99.0355 1.1532 99.4473 2.49086C99.9384 4.08636 98.5111 6.95327 97.9797 8.52384C96.3912 13.2234 95.0906 18.0185 93.6641 22.7701L95.7649 21.0385C96.4258 20.5556 97.5644 19.901 98.3583 20.3961C98.5444 20.5122 99.1841 21.2366 99.1841 21.4168V22.9482L99.1812 22.9496ZM110.786 19.8156H112.944C112.993 19.8156 113.159 20.1432 113.175 20.2237C113.235 20.5186 113.175 20.7914 113.039 21.0507C112.975 21.1725 112.348 21.8206 112.414 21.8812L114.146 22.0963C114.366 20.6568 113.059 17.7136 111.28 19.1375C111.186 19.213 110.717 19.765 110.786 19.8156ZM113.971 24.018C113.011 23.9525 112.038 23.8264 111.145 23.451C110 25.1263 108.895 27.5929 109.164 29.6749C109.33 30.9563 110.26 30.4121 110.951 29.9185C112.737 28.64 113.725 26.1527 113.971 24.018Z" fill="#232327"/>
<path d="M36.9137 21.9524C37.9751 21.2679 38.9573 20.4523 40.0321 19.7856C41.1069 19.119 42.5816 18.1161 43.7753 19.1389C43.4123 19.4694 43.1937 19.8547 42.7797 20.1297C42.2801 20.4616 41.6391 20.6796 41.1069 21.0101C40.4192 21.4374 39.6132 22.0571 38.9721 22.565C38.7796 22.7174 37.6284 23.6341 37.5831 23.7352C37.506 23.9055 38.0381 26.1997 38.1046 26.6292C38.6912 30.437 38.5256 34.3268 35.3188 36.9081C33.3516 38.4915 29.2065 39.8776 27.9137 36.8162C26.5728 33.6416 29.6742 29.192 31.7107 26.9376C32.6575 25.8899 34.0062 24.8784 34.8624 23.8421C34.9784 23.701 35.1426 23.5408 35.1412 23.3513C35.1405 23.2245 34.7024 21.9346 34.6402 21.8897C34.5723 21.8413 34.3826 21.8983 34.2913 21.9139L25.7315 24.0529C25.1555 26.9276 22.8721 32.2533 19.4692 32.4222C15.6998 32.6095 16.7301 27.0509 17.6535 24.8962C17.8573 24.4204 18.1382 23.9788 18.3731 23.5201C15.1564 24.8749 12.038 26.6114 8.60893 27.402C7.93175 27.558 7.06353 27.7461 6.37857 27.7924C-1.65342 28.3315 3.69464 18.9452 8.85517 19.4601C9.65972 19.5406 10.3298 20.1546 9.77081 20.9502C9.34696 21.5535 7.77467 21.4388 7.03239 21.7551C6.12595 22.1404 4.57348 23.716 4.2593 24.6612C4.03145 25.3457 4.26284 25.5993 4.92728 25.7652C6.85195 26.2467 9.7701 25.2716 11.5985 24.57C13.9258 23.6768 16.1244 22.4716 18.4446 21.5614C18.6229 21.4111 18.3519 20.5471 18.3455 20.2529C18.3123 18.6474 19.8598 17.2093 21.3896 17.0469C24.4479 16.7229 25.6501 19.4665 25.7322 22.0956C28.5767 21.8698 31.3661 21.0763 34.0819 20.2422C33.0792 17.9259 32.9625 14.6088 35.6407 13.4435C36.187 13.2056 37.0828 12.8823 37.588 13.3303C38.6728 14.2919 36.3023 15.4351 35.7815 16.0782C35.0152 17.0249 35.2954 17.8062 35.6372 18.8554C35.9832 19.9167 36.5528 20.8975 36.913 21.9524H36.9137ZM23.7502 22.0948C23.69 20.6753 23.0843 18.3746 21.2035 18.9972C20.6417 19.1831 20.0013 19.8775 20.2808 20.4965L22.3378 19.921C22.9195 20.6347 22.5168 21.2038 22.0519 21.8092L23.7495 22.0948H23.7502ZM23.6101 24.0187L20.5752 23.5985C19.593 25.5059 18.1212 27.8351 18.8331 30.0723C18.9385 30.405 18.9151 30.5268 19.2958 30.4698C21.8404 30.0894 23.223 26.2182 23.6101 24.0187ZM35.8502 25.3713C35.7447 25.2923 34.1137 27.0694 33.975 27.2218C32.1692 29.2112 29.4131 32.9222 29.6962 35.7335C29.8922 37.6823 32.0758 36.6816 33.0728 35.9999C35.8431 34.1045 36.9328 30.603 36.3957 27.3522C36.3519 27.0858 35.9698 25.4604 35.8509 25.3713H35.8502Z" fill="#232327"/>
<path d="M76.538 21.6675C78.9332 21.4474 81.2018 20.7607 83.5135 20.1774C84.052 20.0413 85.2181 19.6624 85.7035 19.6717C86.2739 19.6824 86.7366 20.4637 86.4062 20.9531C86.2604 21.1696 82.0325 22.3662 81.4501 22.5172C79.8361 22.9353 78.2001 23.2865 76.55 23.5315C75.9167 26.5202 74.3897 30.3102 71.3498 31.5104C67.2429 33.1323 67.2514 27.8878 68.0984 25.3172C68.2718 24.7901 68.5697 24.325 68.7536 23.805C66.4929 25.1612 64.2165 26.5316 61.7972 27.5929C60.5547 28.1378 57.899 29.3017 56.6374 28.7019C55.6206 28.2183 55.9843 26.3372 56.0989 25.4176C56.2907 23.8762 56.6989 22.3627 56.832 20.8135C55.3425 22.0436 54.2768 23.8506 52.7965 25.085C51.215 26.4027 50.2194 25.7716 50.2838 23.7666C50.3397 22.0286 50.9907 20.3419 51.1266 18.6318C51.1393 18.4708 51.174 17.5099 51.1351 17.4658C51.0587 17.3796 50.5718 17.9216 50.5004 18.0014C48.6012 20.1218 47.0451 23.6113 45.5309 26.105C45.1551 26.7232 44.3244 28.3265 43.6387 28.4733C41.8612 28.8536 42.5922 26.0914 42.5738 25.1227L43.2757 19.9174C44.0067 19.2393 45.1926 19.3875 45.325 20.5C45.429 21.374 45.1629 22.0557 45.0101 22.8748C44.9966 22.9481 44.9167 23.1077 45.0483 23.0913C45.6773 21.8947 46.346 20.6831 47.072 19.5363C47.8582 18.2948 49.5309 15.6601 51.0452 15.4165C52.1448 15.2399 52.8553 15.9465 52.9656 17.0106C53.1737 19.0242 52.3373 21.1603 52.1965 23.1633C53.289 22.0087 54.2966 20.7429 55.484 19.671C56.2072 19.0185 57.8934 17.5861 58.6222 19.0093C59.4041 20.5371 58.0653 24.164 57.8658 25.9141C57.8453 26.0914 57.7731 27.001 57.8573 27.0808C57.9075 27.1278 59.0171 26.7923 59.1848 26.7432C62.9372 25.6349 65.9211 22.8712 69.462 21.3099C67.9541 17.6203 73.1181 14.7121 75.4645 18.0114C75.8063 18.4921 76.538 20.0855 76.538 20.6347V21.6675ZM74.5567 21.5962C74.539 20.4089 74.1152 18.5726 72.6851 18.4594C71.9598 18.4024 71.3442 18.7835 71.192 19.5264C71.1687 19.6389 71.1277 20.1332 71.1609 20.171C71.2097 20.2258 72.1098 19.6289 72.3058 19.5791C73.0955 19.3789 73.7125 19.8932 73.4415 20.7216C73.3481 21.0065 73.0594 21.1055 73.0007 21.3811L74.5567 21.5955V21.5962ZM74.4152 23.5913C73.4394 23.503 72.4551 23.3962 71.5352 23.0343C71.4001 23.0329 71.2204 23.3299 71.1312 23.4546C70.2276 24.7217 69.1994 28.0003 69.6516 29.4897C69.9028 30.3181 70.6868 29.8124 71.1821 29.4897C73.087 28.2475 74.0508 25.7638 74.4152 23.592V23.5913Z" fill="#232327"/>
</svg>
