<svg width="174" height="53" viewBox="0 0 174 53" fill="none" xmlns="http://www.w3.org/2000/svg">
<path d="M36.636 53C36.1835 53 35.7622 52.92 35.372 52.76C34.9874 52.6 34.6537 52.3777 34.3709 52.0932C34.0881 51.8028 33.8676 51.465 33.7092 51.0798C33.5509 50.6945 33.4717 50.2737 33.4717 49.8174C33.4717 49.361 33.5509 48.9402 33.7092 48.555C33.8676 48.1698 34.0881 47.8349 34.3709 47.5504C34.6537 47.26 34.9874 47.0348 35.372 46.8748C35.7565 46.7148 36.1779 46.6348 36.636 46.6348C37.0884 46.6348 37.5041 46.7148 37.883 46.8748C38.2676 47.0289 38.6013 47.2511 38.8841 47.5415C39.1725 47.826 39.3931 48.1609 39.5458 48.5461C39.7041 48.9313 39.7833 49.3551 39.7833 49.8174C39.7833 50.2797 39.7041 50.7034 39.5458 51.0887C39.3931 51.4739 39.1725 51.8117 38.8841 52.1021C38.6013 52.3866 38.2676 52.6088 37.883 52.7689C37.5041 52.923 37.0884 53 36.636 53ZM36.636 52.2088C36.964 52.2088 37.2666 52.1495 37.5437 52.031C37.8265 51.9125 38.0697 51.7465 38.2733 51.5332C38.4825 51.3139 38.6437 51.059 38.7568 50.7686C38.8756 50.4782 38.935 50.1611 38.935 49.8174C38.935 49.4736 38.8756 49.1566 38.7568 48.8662C38.6437 48.5757 38.4825 48.3239 38.2733 48.1105C38.0697 47.8912 37.8265 47.7223 37.5437 47.6038C37.2666 47.4852 36.964 47.426 36.636 47.426C36.3023 47.426 35.9941 47.4852 35.7113 47.6038C35.4342 47.7223 35.191 47.8912 34.9817 48.1105C34.7725 48.3239 34.6085 48.5757 34.4897 48.8662C34.3766 49.1566 34.32 49.4736 34.32 49.8174C34.32 50.1611 34.3766 50.4782 34.4897 50.7686C34.6085 51.059 34.7725 51.3139 34.9817 51.5332C35.191 51.7465 35.4342 51.9125 35.7113 52.031C35.9941 52.1495 36.3023 52.2088 36.636 52.2088Z" fill="#C69178"/>
<path d="M42.4373 52.9289V46.7059H44.7533C45.2736 46.7059 45.7175 46.7918 46.0851 46.9637C46.4528 47.1356 46.7355 47.3845 46.9335 47.7105C47.1314 48.0364 47.2304 48.4246 47.2304 48.875C47.2304 49.3255 47.1314 49.7137 46.9335 50.0396C46.7355 50.3597 46.4528 50.6086 46.0851 50.7864C45.7175 50.9583 45.2736 51.0442 44.7533 51.0442H42.9039L43.2856 50.6264V52.9289H42.4373ZM43.2856 50.7153L42.9039 50.2708H44.7278C45.2707 50.2708 45.6808 50.1493 45.9579 49.9063C46.2407 49.6633 46.3821 49.3195 46.3821 48.875C46.3821 48.4305 46.2407 48.0868 45.9579 47.8438C45.6808 47.6008 45.2707 47.4793 44.7278 47.4793H42.9039L43.2856 47.0348V50.7153Z" fill="#C69178"/>
<path d="M50.6061 49.3907H53.6601V50.1463H50.6061V49.3907ZM50.6824 52.1555H54.1436V52.9289H49.8341V46.7059H54.0249V47.4793H50.6824V52.1555Z" fill="#C69178"/>
<path d="M56.8746 52.9289V46.7059H57.5703L61.4981 51.8176H61.1333V46.7059H61.9816V52.9289H61.286L57.3582 47.8171H57.723V52.9289H56.8746Z" fill="#C69178"/>
<path d="M65.1164 52.9289V46.7059H65.9648V52.9289H65.1164Z" fill="#C69178"/>
<path d="M69.1 52.9289V46.7059H69.7956L73.7234 51.8176H73.3586V46.7059H74.207V52.9289H73.5113L69.5835 47.8171H69.9483V52.9289H69.1Z" fill="#C69178"/>
<path d="M80.0225 53C79.5644 53 79.1431 52.923 78.7585 52.7689C78.3739 52.6088 78.0403 52.3866 77.7575 52.1021C77.4747 51.8117 77.2541 51.4739 77.0958 51.0887C76.9374 50.7034 76.8582 50.2797 76.8582 49.8174C76.8582 49.3551 76.9374 48.9313 77.0958 48.5461C77.2541 48.1609 77.4747 47.826 77.7575 47.5415C78.0459 47.2511 78.3824 47.0289 78.767 46.8748C79.1516 46.7148 79.5757 46.6348 80.0395 46.6348C80.5089 46.6348 80.9387 46.7148 81.329 46.8748C81.7192 47.0348 82.0501 47.2748 82.3215 47.5949L81.7956 48.1461C81.5524 47.8971 81.2866 47.7164 80.9981 47.6038C80.7153 47.4852 80.4071 47.426 80.0734 47.426C79.7341 47.426 79.4174 47.4852 79.1233 47.6038C78.8349 47.7223 78.5832 47.8883 78.3683 48.1016C78.159 48.315 77.995 48.5698 77.8762 48.8662C77.7631 49.1566 77.7066 49.4736 77.7066 49.8174C77.7066 50.1552 77.7631 50.4723 77.8762 50.7686C77.995 51.059 78.159 51.3139 78.3683 51.5332C78.5832 51.7465 78.8349 51.9125 79.1233 52.031C79.4117 52.1495 79.7256 52.2088 80.0649 52.2088C80.3817 52.2088 80.6842 52.1584 80.9727 52.0577C81.2668 51.951 81.5382 51.7762 81.7871 51.5332L82.2706 52.2088C81.9765 52.4696 81.6315 52.6681 81.2357 52.8044C80.8454 52.9348 80.4411 53 80.0225 53ZM81.4562 52.0932V49.7818H82.2706V52.2088L81.4562 52.0932Z" fill="#C69178"/>
<path d="M90.067 52.9289V47.4793H88.031V46.7059H92.9429V47.4793H90.9069V52.9289H90.067Z" fill="#C69178"/>
<path d="M99.4828 46.7059H100.331V52.9289H99.4828V46.7059ZM96.0725 52.9289H95.2242V46.7059H96.0725V52.9289ZM99.5592 50.1552H95.9877V49.3818H99.5592V50.1552Z" fill="#C69178"/>
<path d="M104.238 49.3907H107.292V50.1463H104.238V49.3907ZM104.314 52.1555H107.776V52.9289H103.466V46.7059H107.657V47.4793H104.314V52.1555Z" fill="#C69178"/>
<path d="M114.142 52.9289V46.7059H116.806C117.49 46.7059 118.016 46.8511 118.384 47.1415C118.751 47.426 118.935 47.8171 118.935 48.315C118.935 48.6528 118.862 48.9373 118.715 49.1684C118.573 49.3996 118.381 49.5774 118.138 49.7018C117.895 49.8263 117.632 49.8885 117.349 49.8885L117.502 49.6218C117.841 49.6218 118.141 49.684 118.401 49.8085C118.661 49.933 118.867 50.1167 119.02 50.3597C119.173 50.5967 119.249 50.8931 119.249 51.2487C119.249 51.7821 119.057 52.1969 118.672 52.4933C118.293 52.7837 117.728 52.9289 116.976 52.9289H114.142ZM114.99 52.2088H116.942C117.411 52.2088 117.77 52.1258 118.019 51.9599C118.268 51.7939 118.392 51.5332 118.392 51.1776C118.392 50.816 118.268 50.5523 118.019 50.3863C117.77 50.2204 117.411 50.1374 116.942 50.1374H114.914V49.4173H116.73C117.159 49.4173 117.493 49.3344 117.731 49.1684C117.968 49.0025 118.087 48.7535 118.087 48.4217C118.087 48.0898 117.968 47.8408 117.731 47.6749C117.493 47.5089 117.159 47.426 116.73 47.426H114.99V52.2088Z" fill="#C69178"/>
<path d="M122.692 49.3907H125.746V50.1463H122.692V49.3907ZM122.768 52.1555H126.23V52.9289H121.92V46.7059H126.111V47.4793H122.768V52.1555Z" fill="#C69178"/>
<path d="M130.691 53C130.239 53 129.806 52.9289 129.393 52.7866C128.98 52.6385 128.655 52.4488 128.418 52.2177L128.731 51.5243C128.958 51.7317 129.246 51.9036 129.597 52.0399C129.947 52.1762 130.312 52.2444 130.691 52.2444C131.036 52.2444 131.316 52.2029 131.531 52.1199C131.746 52.0369 131.904 51.9243 132.006 51.7821C132.108 51.6339 132.159 51.468 132.159 51.2842C132.159 51.0709 132.091 50.899 131.955 50.7686C131.825 50.6382 131.653 50.5345 131.438 50.4575C131.228 50.3745 130.997 50.3034 130.742 50.2441C130.488 50.1848 130.23 50.1167 129.97 50.0396C129.716 49.9567 129.481 49.8529 129.266 49.7285C129.057 49.604 128.887 49.4381 128.757 49.2306C128.627 49.0173 128.562 48.7447 128.562 48.4128C128.562 48.0927 128.641 47.7994 128.799 47.5327C128.963 47.26 129.212 47.0437 129.546 46.8837C129.885 46.7177 130.315 46.6348 130.835 46.6348C131.18 46.6348 131.523 46.6822 131.862 46.777C132.201 46.8718 132.495 47.0081 132.744 47.1859L132.464 47.8971C132.21 47.7193 131.941 47.5919 131.658 47.5149C131.375 47.4319 131.101 47.3904 130.835 47.3904C130.502 47.3904 130.227 47.4349 130.012 47.5238C129.798 47.6127 129.639 47.7312 129.537 47.8794C129.441 48.0275 129.393 48.1935 129.393 48.3772C129.393 48.5965 129.458 48.7713 129.588 48.9017C129.724 49.0321 129.897 49.1358 130.106 49.2129C130.321 49.2899 130.555 49.361 130.81 49.4262C131.064 49.4855 131.319 49.5537 131.573 49.6307C131.834 49.7077 132.068 49.8085 132.278 49.933C132.492 50.0574 132.665 50.2234 132.795 50.4308C132.925 50.6382 132.99 50.9049 132.99 51.2309C132.99 51.545 132.908 51.8384 132.744 52.111C132.58 52.3777 132.326 52.594 131.981 52.76C131.641 52.92 131.211 53 130.691 53Z" fill="#C69178"/>
<path d="M136.683 52.9289V47.4793H134.647V46.7059H139.559V47.4793H137.523V52.9289H136.683Z" fill="#C69178"/>
<path d="M125.72 24.6406C125.368 24.9876 124.997 25.509 124.646 26.1436C124.252 26.8548 123.894 27.6904 123.621 28.542C123.349 29.3943 123.165 30.2542 123.115 31.0146C123.065 31.7825 123.155 32.4131 123.39 32.8359C123.587 33.1902 123.84 33.3099 124.125 33.3125C124.439 33.3153 124.822 33.1753 125.237 32.9277C126.06 32.4354 126.87 31.6016 127.237 31.1211L127.466 30.8027C128.528 29.2579 129.2 27.194 129.401 25.3291C128.167 25.3084 126.882 25.1523 125.72 24.6406ZM108.409 27.8818C108.054 28.0956 107.617 28.388 107.189 28.707C106.718 29.0577 106.266 29.4333 105.948 29.7676C105.865 29.8549 105.794 29.9371 105.735 30.0127C106.818 29.6378 107.784 28.8546 108.409 27.8818ZM126.832 19.3359C126.396 19.3581 125.849 19.6446 125.457 20.0693C125.125 20.4298 124.96 20.8269 125.007 21.1807L127.484 21.1025L127.67 21.0967L127.752 21.2646C127.9 21.5677 127.801 21.8628 127.669 22.083C127.539 22.3013 127.339 22.5118 127.168 22.6895C126.984 22.8811 126.834 23.0348 126.745 23.1709C126.702 23.2368 126.689 23.2772 126.686 23.2959L126.685 23.2979C126.675 23.2834 126.684 23.3046 126.77 23.3418C126.846 23.375 126.954 23.4083 127.09 23.4404C127.361 23.5045 127.709 23.5556 128.078 23.5986C128.447 23.6416 128.824 23.6755 129.154 23.708C129.315 23.7239 129.469 23.7399 129.605 23.7568C129.628 22.9033 129.454 21.8265 129.039 20.9453C128.602 20.0158 127.939 19.3701 127.02 19.335L126.832 19.3359ZM143.513 20.3604C143.513 20.3622 143.513 20.3698 143.515 20.3848C143.517 20.4022 143.521 20.425 143.527 20.4531C143.537 20.5094 143.553 20.5803 143.573 20.6631C143.614 20.8285 143.671 21.0314 143.732 21.2393C143.854 21.6564 143.991 22.0792 144.052 22.2441L144.198 22.6055C144.959 24.3613 146.438 25.9388 148.07 26.9248C148.081 26.9186 148.094 26.9132 148.109 26.9043C148.182 26.8583 148.275 26.7884 148.386 26.6934C148.608 26.5038 148.883 26.2316 149.198 25.8975C149.825 25.2303 150.588 24.3352 151.35 23.4023C152.874 21.5356 154.381 19.5397 154.779 18.9619C155.132 18.4495 155.462 17.8177 155.825 17.1729C156.182 16.5412 156.568 15.8993 157.021 15.4219C157.156 15.2784 157.311 15.1685 157.485 15.1348C157.675 15.0979 157.843 15.162 157.965 15.2725C158.078 15.3742 158.15 15.5113 158.197 15.6406C158.244 15.7734 158.273 15.9201 158.284 16.0635L158.283 16.1875C158.273 16.3145 158.235 16.4504 158.19 16.5791C158.126 16.7612 158.033 16.9703 157.922 17.1934C157.7 17.6402 157.394 18.1668 157.072 18.6895C156.426 19.7361 155.7 20.7886 155.408 21.1992C153.735 23.5571 151.815 25.7399 149.751 27.7529C151.839 28.7464 154.29 28.6513 156.769 28.0498C159.384 27.415 161.98 26.2302 164.131 25.2412C165.204 24.7477 166.645 23.903 168.118 23.1152C169.567 22.3404 171.056 21.6155 172.159 21.417C172.335 21.3854 172.485 21.3698 172.604 21.3799C172.663 21.3849 172.737 21.398 172.806 21.4346C172.883 21.4752 172.96 21.5497 172.989 21.6641C173.014 21.7669 172.988 21.8562 172.965 21.9102C172.941 21.9662 172.907 22.0149 172.876 22.0537C172.814 22.1318 172.729 22.2098 172.643 22.2822C172.301 22.5698 171.737 22.9173 171.549 23.0371C169.435 24.3844 166.001 26.3679 162.482 27.9854C160.722 28.7941 158.935 29.514 157.279 30.0166C155.626 30.5179 154.082 30.8099 152.814 30.7471C151.913 30.7023 151.06 30.4801 150.24 30.2041C149.831 30.0661 149.426 29.9131 149.028 29.7617C148.675 29.6279 148.328 29.4966 147.981 29.373C147.358 29.8216 146.758 30.3099 146.146 30.8027C145.659 31.1944 145.166 31.5872 144.654 31.9561L144.135 32.3164C143.851 32.5051 142.91 33.174 142.111 33.5645C141.909 33.663 141.707 33.748 141.522 33.8037C141.343 33.8574 141.148 33.8933 140.971 33.8643C140.878 33.849 140.781 33.8139 140.696 33.7461C140.609 33.6769 140.549 33.5855 140.516 33.4824C140.454 33.2897 140.482 33.0607 140.552 32.8213L140.583 32.7178L140.674 32.6592C142.721 31.348 144.779 30.0586 146.44 28.3428C144.405 26.8134 143.303 24.7078 142.193 22.5654C138.654 23.8223 134.996 24.8015 131.264 25.334C130.835 27.5136 130.212 29.7918 128.809 31.6318C128.214 32.4113 127.066 33.6088 125.835 34.3086C125.22 34.6583 124.555 34.9004 123.912 34.877C123.251 34.8528 122.645 34.5479 122.174 33.875C121.35 32.6972 121.355 31.0093 121.675 29.4121C121.998 27.7997 122.657 26.1988 123.241 25.124L123.242 25.123C123.345 24.9345 123.64 24.5443 123.884 24.2197C124.012 24.0503 124.131 23.8922 124.218 23.7705C124.237 23.7443 124.252 23.7195 124.267 23.6982C124.265 23.6961 124.264 23.6936 124.263 23.6914C124.206 23.6084 124.126 23.5002 124.041 23.3916C123.956 23.2831 123.869 23.1777 123.797 23.0977C123.766 23.0629 123.739 23.0356 123.719 23.0156H123.718C123.677 23.0155 123.619 23.0186 123.541 23.0264C123.387 23.0418 123.179 23.073 122.931 23.1162C122.436 23.2025 121.799 23.3346 121.146 23.4785C119.84 23.7661 118.482 24.0963 118.09 24.1943L118.091 24.1953C117.374 24.3754 115.757 24.7713 114.232 25.252C113.469 25.4924 112.736 25.7517 112.154 26.0137C111.862 26.1447 111.615 26.2741 111.422 26.3984C111.225 26.5256 111.105 26.6336 111.049 26.7168C110.883 26.963 110.779 27.2583 110.64 27.623C110.505 27.9765 110.344 28.377 110.067 28.7646H110.066C109.732 29.2291 108.895 30.0854 108.451 30.4395C107.67 31.0653 106.873 31.4649 106.168 31.6553C105.477 31.842 104.826 31.8394 104.379 31.5869C104.147 31.4559 103.972 31.2565 103.891 30.9941C103.812 30.7366 103.833 30.4472 103.936 30.1445C104.139 29.547 104.682 28.8287 105.622 28.0127C105.837 27.8263 106.187 27.5934 106.577 27.3506C106.972 27.105 107.426 26.8391 107.859 26.5859C108.293 26.3316 108.706 26.0906 109.025 25.8926C109.184 25.7935 109.317 25.7075 109.415 25.6377C109.464 25.6029 109.501 25.5742 109.528 25.5518C109.542 25.5391 109.551 25.5313 109.555 25.5273H109.556C109.62 25.4384 109.698 25.2649 109.764 25.0371C109.828 24.8146 109.872 24.5631 109.881 24.3301C109.89 24.0909 109.859 23.9011 109.801 23.7812C109.752 23.681 109.693 23.6398 109.592 23.6367C109.285 23.6273 108.909 23.7999 108.45 24.1357C108 24.466 107.527 24.9099 107.023 25.3672C106.526 25.8169 106.001 26.2782 105.471 26.6084C104.943 26.9369 104.37 27.162 103.782 27.082L103.512 27.0459L103.533 26.7744C103.56 26.4244 103.542 26.0492 103.525 25.6514C103.508 25.2711 103.494 24.8698 103.532 24.4893V24.4736L103.534 24.458C103.728 22.6664 104.439 19.9829 105.229 17.2998C106.026 14.5908 106.894 11.9106 107.436 10.0303C107.916 8.36476 108.184 7.16034 108.467 5.96582C108.75 4.76993 109.047 3.58911 109.581 1.98633L109.589 1.96582L109.599 1.94531C109.937 1.29098 110.272 0.851547 110.594 0.62207C110.758 0.505472 110.937 0.429078 111.125 0.428711C111.321 0.428456 111.49 0.510775 111.618 0.640625C111.858 0.881863 111.965 1.28758 111.988 1.72559C112.008 2.12292 111.962 2.59469 111.84 3.10547L111.782 3.32715C111.423 4.63452 111.24 5.1388 111.029 5.66211C110.822 6.1736 110.592 6.69462 110.129 8.05566C108.213 13.7012 106.59 19.4538 104.883 25.1816C104.885 25.1804 104.887 25.18 104.889 25.1787C104.941 25.1357 105.013 25.074 105.057 25.04L105.059 25.0381C105.328 24.8335 105.693 24.4989 106.13 24.1035C106.561 23.7132 107.053 23.272 107.557 22.8721C108.059 22.4736 108.586 22.106 109.091 21.8691C109.588 21.6361 110.116 21.5044 110.59 21.6602H110.591C110.719 21.7027 110.84 21.7982 110.932 21.8828C111.032 21.9747 111.132 22.0856 111.221 22.1973C111.309 22.3088 111.391 22.4278 111.452 22.5361C111.483 22.5902 111.512 22.6466 111.533 22.7012C111.553 22.7501 111.575 22.8221 111.575 22.9004V24.8037C113.539 24.145 115.523 23.4634 117.531 22.9072V22.9062C118.028 22.769 119.474 22.4834 120.786 22.1777C121.452 22.0227 122.09 21.8615 122.578 21.708C122.823 21.6311 123.023 21.5584 123.167 21.4922C123.24 21.459 123.292 21.4303 123.326 21.4072C123.341 21.3976 123.348 21.3896 123.353 21.3857C123.595 20.979 123.58 20.6839 123.697 20.2109C123.813 19.7362 124.05 19.2568 124.771 18.6973L124.945 18.5674C125.815 17.9437 126.669 17.7096 127.466 17.792C128.312 17.8795 129.051 18.32 129.644 18.9443C130.75 20.1107 131.391 21.9696 131.3 23.6504C133.096 23.6605 134.85 23.299 136.611 22.8408C138.397 22.3757 140.211 21.8067 142.035 21.46C142.036 21.4475 142.038 21.4337 142.038 21.4189C142.037 21.2881 142.02 21.1085 141.994 20.8877C141.944 20.4574 141.86 19.8875 141.83 19.3486C141.802 18.82 141.819 18.2535 142.009 17.8447C142.108 17.6309 142.264 17.4418 142.498 17.3359C142.73 17.2313 142.999 17.2268 143.293 17.2998L143.513 17.3535V20.3604Z" fill="#C69178" stroke="#C69178" stroke-width="0.577293"/>
<path d="M39.4692 13.4893C39.7764 13.4047 40.1206 13.3478 40.3931 13.417C40.5387 13.454 40.6889 13.5341 40.7856 13.6885C40.881 13.8408 40.895 14.0197 40.8657 14.1953C40.8528 14.2725 40.8166 14.334 40.7925 14.3701C40.765 14.4112 40.732 14.4512 40.6987 14.4873C40.632 14.5599 40.5444 14.6401 40.4487 14.7227C40.2566 14.8884 40.0028 15.0864 39.7466 15.2861C39.4874 15.4882 39.2234 15.6939 38.9995 15.8818C38.8266 16.0269 38.6915 16.1504 38.603 16.2461L38.5308 16.332C38.1237 16.884 37.9571 17.2827 37.9194 17.6777C37.8807 18.084 37.9736 18.5212 38.1597 19.1699L38.2466 19.458C38.4625 20.1325 38.7574 20.8198 39.0669 21.5195C39.3786 22.2243 39.7028 22.9453 39.9644 23.6572C39.9753 23.6511 39.9876 23.6456 39.9995 23.6387C40.1752 23.5365 40.4163 23.375 40.7104 23.1699C41.289 22.7665 42.0707 22.1947 42.8716 21.6484C43.6757 21.1 44.5266 20.5581 45.2729 20.1982C45.6457 20.0185 46.0046 19.8787 46.3257 19.8086C46.6396 19.7401 46.963 19.7284 47.231 19.8623L47.5894 20.041L47.312 20.3174C47.02 20.7099 46.6059 20.9563 46.2065 21.1523C45.7742 21.3645 45.3886 21.5095 45.0415 21.7275C44.6452 21.9765 43.5491 22.7385 42.5142 23.5215C41.9973 23.9125 41.5006 24.3055 41.1167 24.6396C40.9246 24.8069 40.7641 24.9562 40.645 25.0811C40.5711 25.1586 40.5221 25.2192 40.4907 25.2617C41.0243 27.6423 41.5725 30.2316 41.4878 32.7061C41.4013 35.2313 40.6554 37.6573 38.561 39.6357C36.7808 41.318 34.2791 42.2557 32.3638 41.917C31.3928 41.7452 30.5602 41.241 30.0796 40.3301C29.6042 39.4289 29.4969 38.1752 29.8657 36.5479C30.539 33.5745 32.7806 30.7983 34.731 28.6621C35.0331 28.3314 35.9182 27.5075 36.728 26.7344C37.1375 26.3434 37.5318 25.9619 37.8335 25.6533C37.9846 25.4988 38.1101 25.3655 38.2017 25.2598C38.2474 25.2069 38.2823 25.1635 38.3071 25.1299C38.3257 25.1047 38.3338 25.0903 38.3364 25.0859C38.3627 25.0223 38.3711 24.8905 38.3228 24.6641C38.2767 24.4485 38.1908 24.1969 38.0894 23.9268C37.9929 23.67 37.8726 23.3719 37.7817 23.1221C37.7315 22.9841 37.6847 22.8444 37.6479 22.7109L26.856 25.3555C26.6023 26.9416 25.8528 29.1491 24.7319 31.0312C23.5747 32.9744 21.9642 34.6682 20.0181 34.8496C19.0484 34.94 18.3388 34.6571 17.8628 34.1055C17.401 33.5702 17.1942 32.8218 17.1274 32.042C16.9938 30.4803 17.4081 28.6297 17.7485 27.5762C17.9953 26.8128 18.3393 26.1647 18.686 25.5459C18.9141 25.1388 19.1385 24.7461 19.3472 24.3369C18.4615 24.7179 17.5597 25.127 16.644 25.5449C15.4891 26.072 14.3114 26.6125 13.1226 27.1191C10.7462 28.1319 8.3077 29.0191 5.87354 29.418C3.4826 29.8094 1.9216 29.543 1.06299 28.7998C0.176913 28.0325 0.139562 26.8583 0.544434 25.7178C0.951303 24.5718 1.82514 23.3775 2.91064 22.4375C3.99549 21.4982 5.32183 20.7864 6.65186 20.6465L6.89209 20.6289C7.17855 20.6165 7.58099 20.6256 7.9126 20.71C8.12288 20.7635 8.38379 20.8661 8.52197 21.0908C8.66306 21.3205 8.62445 21.5765 8.4917 21.8164L8.4292 21.918C8.35469 22.0285 8.23468 22.0866 8.15576 22.1191C8.06424 22.1568 7.95567 22.1879 7.84326 22.2139C7.61765 22.2661 7.33326 22.3096 7.04639 22.3516C6.7545 22.3942 6.45601 22.4354 6.18506 22.4844C5.91042 22.534 5.68701 22.5881 5.53955 22.6484C5.09693 22.8293 4.49463 23.2328 3.89893 23.7607C3.30599 24.2862 2.74141 24.9149 2.36377 25.5273C1.97685 26.1548 1.82719 26.698 1.93994 27.0859C2.02885 27.3917 2.316 27.6973 3.04443 27.8613L3.38428 27.9229L3.81689 27.9697C6.01238 28.1423 8.63443 27.3757 11.269 26.3262C12.6676 25.769 14.0566 25.1389 15.3726 24.5391C16.666 23.9496 17.8929 23.3883 18.979 22.9639C19.074 22.8837 19.1148 22.8039 19.1313 22.7178C19.1516 22.6119 19.1404 22.48 19.104 22.3047C19.0861 22.2186 19.0641 22.1289 19.0396 22.0312C19.0155 21.9357 18.9895 21.8325 18.9673 21.7275C18.9229 21.5181 18.8883 21.2822 18.9146 21.0391C19.0389 19.8849 19.7598 18.9654 20.6899 18.4199C21.6184 17.8756 22.7823 17.6871 23.8315 18.0205C25.1078 18.426 25.857 19.3915 26.2915 20.4961C26.6879 21.5039 26.8308 22.6499 26.8823 23.6543C27.724 23.6794 28.5606 23.5497 29.4282 23.416C29.8883 23.3451 31.8727 22.9199 33.7583 22.4463C34.6995 22.2099 35.608 21.9635 36.2837 21.7451C36.6229 21.6355 36.8956 21.5354 37.0815 21.4502C37.1235 21.431 37.1586 21.4131 37.188 21.3975C36.748 20.3123 36.3758 19.0517 36.3569 17.8242C36.3369 16.5165 36.7177 15.2296 37.8521 14.2549C37.9945 14.1325 38.2495 13.9836 38.5278 13.8496C38.8124 13.7126 39.1485 13.5776 39.4692 13.4893ZM38.9233 26.6826C38.7881 26.7737 38.6975 26.8272 38.6177 26.9004L38.6147 26.9043H38.6138C37.2956 28.117 35.7038 29.8097 34.355 31.6426C33.0019 33.4814 31.9131 35.4346 31.5679 37.1699C31.3491 38.2708 31.3898 39.0579 31.5835 39.5889C31.7718 40.1047 32.1078 40.3911 32.5376 40.5098C32.9833 40.6326 33.5593 40.5827 34.2144 40.3525C34.8658 40.1236 35.5723 39.7238 36.2642 39.1826C40.0545 36.2189 40.8779 30.9104 38.981 26.6387C38.9605 26.6531 38.9426 26.6696 38.9233 26.6826ZM21.0688 24.7549C20.3149 26.0637 19.489 27.4854 19.0259 28.9492C18.563 30.4123 18.4763 31.8843 19.1772 33.3008C20.9461 33.2131 22.3006 32.0388 23.2788 30.4209C24.232 28.8441 24.7958 26.8952 25.0112 25.2939L21.0688 24.7549ZM23.7212 19.748C23.353 19.5043 22.8815 19.3775 22.2651 19.4502C21.6038 19.5282 21.0079 19.9255 20.6958 20.4395C20.4204 20.8931 20.3673 21.4298 20.6821 21.9404L22.8638 21.2754L23.0933 21.2051L23.2046 21.418C23.3534 21.704 23.2428 21.9989 23.1235 22.2041C22.9984 22.4195 22.8082 22.6332 22.6362 22.8164C22.484 22.9786 22.3513 23.1152 22.2476 23.2334L25.1938 23.748C25.1567 22.7969 25.0046 21.7044 24.6069 20.8535C24.3849 20.3785 24.0945 19.9952 23.7212 19.748Z" fill="#C69178" stroke="#C69178" stroke-width="0.577293"/>
<path d="M55.8364 16.7891C56.4168 16.4464 57.1479 16.2432 57.7905 16.7012H57.8022L57.8823 16.7676C58.1291 16.9704 58.2794 17.2623 58.3687 17.5869C58.4581 17.9122 58.4926 18.2924 58.4927 18.6992C58.4928 19.5122 58.3546 20.487 58.1851 21.4619C58.0128 22.4524 57.8123 23.4236 57.6733 24.292C57.5639 24.976 57.5023 25.5462 57.519 25.9561C57.5435 25.9378 57.5715 25.9191 57.6001 25.8955C57.8205 25.7139 58.0967 25.4285 58.3813 25.1094C58.6636 24.7929 58.9456 24.4543 59.1772 24.1729C59.402 23.8997 59.5933 23.6636 59.6782 23.5742V23.5732C60.0287 23.2054 60.8213 22.3539 61.6304 21.582C62.0348 21.1962 62.4489 20.8244 62.8188 20.541C63.0037 20.3994 63.1826 20.2756 63.3472 20.1826C63.5064 20.0927 63.6755 20.0177 63.8364 19.9971C64.0416 19.9708 64.2747 19.9473 64.4888 20.0107C64.7298 20.0823 64.9068 20.2492 65.0356 20.5059C65.2616 20.9572 65.2919 21.6088 65.2417 22.3037C65.1905 23.0129 65.0496 23.8264 64.8843 24.6387C64.7197 25.4473 64.526 26.2796 64.3716 27.0029C64.2146 27.7385 64.0974 28.3641 64.0737 28.7998C64.0475 29.2819 64.0516 29.5964 64.0874 29.7988C64.1223 29.9958 64.1731 30.0118 64.1802 30.0146C64.2244 30.0337 64.3319 30.0431 64.5942 29.9873C64.8465 29.9336 65.1541 29.8432 65.5776 29.7344C67.7558 29.1743 69.8956 27.9685 72.0396 26.6582C74.0768 25.4131 76.1242 24.069 78.1665 23.1533C77.7418 22.2237 77.6677 21.2614 77.9419 20.4023C78.2442 19.4553 78.96 18.6621 80.0288 18.1895C80.8553 17.8236 81.6077 17.7283 82.2798 17.8555C82.9517 17.9827 83.519 18.328 83.9839 18.7998C84.7902 19.6182 85.3037 20.8314 85.561 22.042L85.6558 22.5596L85.6704 22.7627C85.6719 22.8349 85.6708 22.9099 85.6694 22.9805C85.6664 23.1334 85.6612 23.2862 85.6655 23.4307C85.6698 23.5724 85.6836 23.679 85.7046 23.748C87.3398 23.5443 88.9649 23.2819 90.5737 22.9395C90.9932 22.8503 92.3844 22.4569 93.7329 22.0918C94.4017 21.9107 95.0563 21.7378 95.563 21.6162C95.8158 21.5556 96.0362 21.5062 96.2046 21.4756C96.288 21.4605 96.364 21.4493 96.4272 21.4434C96.4588 21.4404 96.4927 21.4389 96.5249 21.4395C96.5381 21.4397 96.5573 21.4395 96.5796 21.4424L96.6538 21.46L96.7661 21.5068C96.874 21.5626 96.9692 21.6444 97.0356 21.7549C97.1248 21.9035 97.1431 22.0739 97.1108 22.2402L97.0786 22.4043L96.9204 22.459C93.2613 23.7074 89.5149 24.7569 85.6626 25.3242C85.4248 26.8485 84.8771 28.6529 84.0405 30.2754C83.1669 31.9695 81.9629 33.5019 80.4419 34.2871C79.3199 34.8664 78.4103 35.0082 77.6948 34.7686C76.9705 34.5258 76.5269 33.9205 76.2759 33.1973C75.7797 31.7673 75.9696 29.7042 76.3657 28.2246C76.5596 27.5013 76.8698 26.8332 77.1938 26.1934C77.3793 25.827 77.5652 25.4727 77.7427 25.1191C74.7702 26.839 71.8115 28.7465 68.606 30.1064C68.1195 30.3126 66.8238 30.8958 65.5874 31.2334C64.972 31.4014 64.3427 31.5166 63.8228 31.4824C63.3047 31.4483 62.801 31.2526 62.6206 30.708C62.5397 30.4636 62.5111 30.1427 62.5112 29.79C62.5114 29.4313 62.5411 29.0145 62.5894 28.5664C62.6858 27.6704 62.8594 26.6257 63.0327 25.624C63.2069 24.6173 63.3801 23.6568 63.481 22.915C63.5314 22.5436 63.5623 22.2371 63.5669 22.0127C63.5681 21.9523 63.5673 21.9007 63.5649 21.8574C63.4764 21.8805 63.3853 21.9233 63.2876 21.9873C63.1087 22.1044 62.9615 22.2469 62.7661 22.4062L62.7651 22.4053C62.4908 22.6305 62.0905 23.067 61.6089 23.6182C61.1364 24.1588 60.5886 24.8074 60.0464 25.418C59.5022 26.0308 58.9475 26.6252 58.4448 27.0713C58.1937 27.2942 57.9486 27.486 57.7192 27.626C57.4955 27.7626 57.2581 27.867 57.0278 27.8789C56.6979 27.8959 56.4397 27.7705 56.2661 27.5459C56.1068 27.3395 56.0361 27.0723 56.0034 26.8232C55.9386 26.3281 56.0076 25.734 56.0259 25.4297C56.0894 24.3868 56.3362 23.2367 56.5591 22.1221C56.7846 20.9944 56.9861 19.8997 56.98 18.9238C56.9777 18.5747 56.9386 18.3523 56.8882 18.2207C56.8638 18.1573 56.8404 18.1248 56.8257 18.1094C56.8131 18.0962 56.8061 18.0938 56.8022 18.0928C56.7879 18.0891 56.7286 18.085 56.6021 18.1533C56.4816 18.2184 56.3382 18.3287 56.1782 18.4785C55.5305 19.085 54.8088 20.1445 54.5083 20.5576L54.5093 20.5586C53.9686 21.3036 52.5881 23.7533 51.2554 26.0908C50.593 27.2526 49.9449 28.3806 49.4272 29.2393C49.1688 29.668 48.9411 30.0338 48.7583 30.3037C48.6671 30.4383 48.5843 30.5539 48.5132 30.6426C48.4521 30.7187 48.3711 30.812 48.2837 30.8633C47.9993 31.0299 47.7165 31.1207 47.4614 31.042C47.1877 30.9574 47.0639 30.7183 47.0073 30.5176C46.9498 30.3133 46.938 30.0738 46.939 29.8574C46.94 29.6416 46.9555 29.4089 46.9614 29.2393C47.0041 28.0001 47.1768 26.7151 47.3608 25.4424C47.5457 24.1642 47.7411 22.9002 47.8354 21.6816L47.8462 21.5459L47.9585 21.4668C48.2094 21.2922 48.5526 21.1941 48.8647 21.2295C49.0241 21.2476 49.1894 21.3024 49.3276 21.415C49.4696 21.5308 49.5654 21.694 49.603 21.8936C49.7889 22.8777 49.5145 23.9296 49.2603 24.9053C49.0855 25.5756 48.9214 26.2133 48.8696 26.8174C49.6728 25.5608 50.4431 24.1749 51.2417 22.791C52.2013 21.1281 53.2027 19.4745 54.3462 18.1123C54.6752 17.7206 55.223 17.1513 55.8364 16.7891ZM80.0952 24.6289C79.8811 24.7944 79.6498 25.0586 79.4146 25.4131C79.1375 25.8307 78.8685 26.3525 78.6255 26.9326C78.1389 28.0941 77.7668 29.4643 77.6362 30.6523C77.5709 31.2467 77.567 31.7845 77.6343 32.2227C77.7025 32.6669 77.8376 32.9722 78.0161 33.1445C78.1778 33.3006 78.412 33.383 78.7856 33.3018C79.1737 33.2173 79.6928 32.9578 80.3638 32.4404C81.3819 31.6549 82.2115 30.4532 82.8071 29.1113C83.3559 27.875 83.6948 26.536 83.8052 25.3291C82.5615 25.3085 81.2653 25.1501 80.0952 24.6289ZM82.1069 19.5186C81.1633 19.1509 80.3875 19.4316 79.9214 20C79.485 20.5323 79.3032 21.3404 79.5493 22.1729C79.6196 22.1488 79.6994 22.1149 79.7886 22.0684C79.9726 21.9723 80.163 21.8472 80.3716 21.7148C80.5719 21.5877 80.7908 21.4522 81.0044 21.3633C81.1884 21.2867 81.4053 21.2282 81.6245 21.2656L81.7183 21.2881L81.7505 21.2979L81.7798 21.3145C81.9299 21.4014 82.0547 21.516 82.1216 21.6689C82.1906 21.8269 82.18 21.9853 82.1353 22.1211C82.054 22.3674 81.8416 22.5933 81.6646 22.7656C81.4715 22.9535 81.308 23.0922 81.1763 23.2314L83.9927 23.7461C83.9876 23.0049 83.8956 22.151 83.644 21.3936C83.3524 20.5153 82.8654 19.8143 82.1069 19.5186Z" fill="#C69178" stroke="#C69178" stroke-width="0.577293"/>
</svg>
