<svg width="124" height="40" viewBox="0 0 124 40" fill="none" xmlns="http://www.w3.org/2000/svg">
<path d="M27.1765 38.1818C26.8626 38.1818 26.5704 38.1247 26.2997 38.0104C26.033 37.8961 25.8015 37.7374 25.6054 37.5343C25.4093 37.3269 25.2563 37.0857 25.1464 36.8106C25.0366 36.5355 24.9817 36.235 24.9817 35.9091C24.9817 35.5832 25.0366 35.2827 25.1464 35.0076C25.2563 34.7325 25.4093 34.4934 25.6054 34.2902C25.8015 34.0829 26.033 33.922 26.2997 33.8078C26.5665 33.6935 26.8587 33.6364 27.1765 33.6364C27.4903 33.6364 27.7786 33.6935 28.0414 33.8078C28.3082 33.9178 28.5396 34.0765 28.7357 34.2839C28.9358 34.487 29.0888 34.7262 29.1947 35.0013C29.3045 35.2764 29.3595 35.579 29.3595 35.9091C29.3595 36.2392 29.3045 36.5418 29.1947 36.8169C29.0888 37.092 28.9358 37.3332 28.7357 37.5406C28.5396 37.7438 28.3082 37.9025 28.0414 38.0167C27.7786 38.1268 27.4903 38.1818 27.1765 38.1818ZM27.1765 37.6168C27.404 37.6168 27.6138 37.5745 27.8061 37.4898C28.0022 37.4052 28.1709 37.2867 28.3121 37.1343C28.4572 36.9777 28.569 36.7957 28.6475 36.5884C28.7299 36.381 28.771 36.1546 28.771 35.9091C28.771 35.6636 28.7299 35.4372 28.6475 35.2298C28.569 35.0224 28.4572 34.8425 28.3121 34.6902C28.1709 34.5336 28.0022 34.413 27.8061 34.3283C27.6138 34.2437 27.404 34.2014 27.1765 34.2014C26.945 34.2014 26.7312 34.2437 26.5351 34.3283C26.3429 34.413 26.1742 34.5336 26.0291 34.6902C25.8839 34.8425 25.7702 35.0224 25.6878 35.2298C25.6093 35.4372 25.5701 35.6636 25.5701 35.9091C25.5701 36.1546 25.6093 36.381 25.6878 36.5884C25.7702 36.7957 25.8839 36.9777 26.0291 37.1343C26.1742 37.2867 26.3429 37.4052 26.5351 37.4898C26.7312 37.5745 26.945 37.6168 27.1765 37.6168Z" fill="#D73F7C"/>
<path d="M31.2003 38.131V33.6871H32.8066C33.1675 33.6871 33.4754 33.7485 33.7304 33.8712C33.9854 33.994 34.1815 34.1717 34.3188 34.4045C34.4561 34.6373 34.5248 34.9145 34.5248 35.2361C34.5248 35.5578 34.4561 35.835 34.3188 36.0678C34.1815 36.2963 33.9854 36.4741 33.7304 36.6011C33.4754 36.7238 33.1675 36.7852 32.8066 36.7852H31.5239L31.7887 36.4868V38.131H31.2003ZM31.7887 36.5503L31.5239 36.2328H32.789C33.1655 36.2328 33.4499 36.1461 33.6422 35.9726C33.8383 35.799 33.9364 35.5536 33.9364 35.2361C33.9364 34.9187 33.8383 34.6733 33.6422 34.4997C33.4499 34.3262 33.1655 34.2395 32.789 34.2395H31.5239L31.7887 33.922V36.5503Z" fill="#D73F7C"/>
<path d="M36.8661 35.6044H38.9844V36.144H36.8661V35.6044ZM36.9191 37.5787H39.3198V38.131H36.3307V33.6871H39.2374V34.2395H36.9191V37.5787Z" fill="#D73F7C"/>
<path d="M41.214 38.131V33.6871H41.6965L44.4208 37.3375H44.1678V33.6871H44.7562V38.131H44.2737L41.5494 34.4807H41.8024V38.131H41.214Z" fill="#D73F7C"/>
<path d="M46.9305 38.131V33.6871H47.519V38.131H46.9305Z" fill="#D73F7C"/>
<path d="M49.6935 38.131V33.6871H50.176L52.9004 37.3375H52.6474V33.6871H53.2358V38.131H52.7533L50.0289 34.4807H50.282V38.131H49.6935Z" fill="#D73F7C"/>
<path d="M57.2695 38.1818C56.9517 38.1818 56.6595 38.1268 56.3927 38.0167C56.126 37.9025 55.8945 37.7438 55.6984 37.5406C55.5023 37.3332 55.3493 37.092 55.2394 36.8169C55.1296 36.5418 55.0747 36.2392 55.0747 35.9091C55.0747 35.579 55.1296 35.2764 55.2394 35.0013C55.3493 34.7262 55.5023 34.487 55.6984 34.2839C55.8985 34.0765 56.1319 33.9178 56.3986 33.8078C56.6654 33.6935 56.9596 33.6364 57.2812 33.6364C57.6068 33.6364 57.9049 33.6935 58.1756 33.8078C58.4463 33.922 58.6758 34.0934 58.864 34.322L58.4992 34.7156C58.3306 34.5378 58.1462 34.4087 57.9461 34.3283C57.75 34.2437 57.5362 34.2014 57.3048 34.2014C57.0694 34.2014 56.8497 34.2437 56.6457 34.3283C56.4457 34.413 56.2711 34.5315 56.1221 34.6838C55.9769 34.8362 55.8632 35.0182 55.7808 35.2298C55.7023 35.4372 55.6631 35.6636 55.6631 35.9091C55.6631 36.1503 55.7023 36.3767 55.7808 36.5884C55.8632 36.7957 55.9769 36.9777 56.1221 37.1343C56.2711 37.2867 56.4457 37.4052 56.6457 37.4898C56.8458 37.5745 57.0635 37.6168 57.2989 37.6168C57.5185 37.6168 57.7284 37.5808 57.9285 37.5089C58.1325 37.4327 58.3207 37.3078 58.4933 37.1343L58.8287 37.6168C58.6248 37.803 58.3855 37.9448 58.1109 38.0421C57.8402 38.1353 57.5597 38.1818 57.2695 38.1818ZM58.2639 37.5343V35.8837H58.8287V37.6168L58.2639 37.5343Z" fill="#D73F7C"/>
<path d="M64.2363 38.131V34.2395H62.8241V33.6871H66.231V34.2395H64.8188V38.131H64.2363Z" fill="#D73F7C"/>
<path d="M70.7671 33.6871H71.3556V38.131H70.7671V33.6871ZM68.4017 38.131H67.8133V33.6871H68.4017V38.131ZM70.8201 36.1503H68.3429V35.598H70.8201V36.1503Z" fill="#D73F7C"/>
<path d="M74.0653 35.6044H76.1836V36.144H74.0653V35.6044ZM74.1183 37.5787H76.519V38.131H73.5299V33.6871H76.4366V34.2395H74.1183V37.5787Z" fill="#D73F7C"/>
<path d="M80.9349 38.131V33.6871H82.7825C83.2571 33.6871 83.6219 33.7908 83.8769 33.9982C84.1319 34.2014 84.2594 34.4807 84.2594 34.8362C84.2594 35.0774 84.2084 35.2806 84.1064 35.4456C84.0083 35.6107 83.8749 35.7377 83.7063 35.8266C83.5376 35.9154 83.3552 35.9599 83.159 35.9599L83.265 35.7694C83.5003 35.7694 83.7082 35.8139 83.8887 35.9027C84.0691 35.9916 84.2123 36.1228 84.3182 36.2963C84.4241 36.4656 84.4771 36.6772 84.4771 36.9312C84.4771 37.3121 84.3437 37.6083 84.077 37.8199C83.8141 38.0273 83.4219 38.131 82.9001 38.131H80.9349ZM81.5233 37.6168H82.8766C83.2022 37.6168 83.4513 37.5575 83.6239 37.439C83.7965 37.3205 83.8828 37.1343 83.8828 36.8804C83.8828 36.6222 83.7965 36.4339 83.6239 36.3154C83.4513 36.1969 83.2022 36.1376 82.8766 36.1376H81.4703V35.6234H82.7295C83.0276 35.6234 83.2591 35.5642 83.4238 35.4456C83.5886 35.3271 83.671 35.1494 83.671 34.9124C83.671 34.6754 83.5886 34.4976 83.4238 34.3791C83.2591 34.2606 83.0276 34.2014 82.7295 34.2014H81.5233V37.6168Z" fill="#D73F7C"/>
<path d="M86.8651 35.6044H88.9833V36.144H86.8651V35.6044ZM86.918 37.5787H89.3187V38.131H86.3296V33.6871H89.2364V34.2395H86.918V37.5787Z" fill="#D73F7C"/>
<path d="M92.4133 38.1818C92.0995 38.1818 91.7994 38.131 91.513 38.0294C91.2267 37.9236 91.0011 37.7882 90.8364 37.6231L91.0541 37.128C91.211 37.2761 91.411 37.3988 91.6543 37.4962C91.8975 37.5935 92.1505 37.6422 92.4133 37.6422C92.6526 37.6422 92.8468 37.6126 92.9958 37.5533C93.1449 37.4941 93.2547 37.4137 93.3253 37.3121C93.3959 37.2063 93.4313 37.0878 93.4313 36.9566C93.4313 36.8042 93.3842 36.6815 93.29 36.5884C93.1998 36.4952 93.0802 36.4212 92.9311 36.3662C92.786 36.3069 92.6251 36.2561 92.4486 36.2138C92.2721 36.1715 92.0936 36.1228 91.9131 36.0678C91.7366 36.0085 91.5738 35.9345 91.4248 35.8456C91.2796 35.7567 91.1619 35.6382 91.0717 35.4901C90.9815 35.3377 90.9364 35.143 90.9364 34.906C90.9364 34.6775 90.9913 34.468 91.1012 34.2775C91.2149 34.0829 91.3875 33.9284 91.6189 33.8141C91.8543 33.6956 92.1524 33.6364 92.5133 33.6364C92.7526 33.6364 92.9899 33.6702 93.2253 33.7379C93.4607 33.8056 93.6646 33.903 93.8372 34.03L93.6431 34.5378C93.4666 34.4109 93.2802 34.3199 93.0841 34.2648C92.888 34.2056 92.6977 34.176 92.5133 34.176C92.2819 34.176 92.0916 34.2077 91.9426 34.2712C91.7935 34.3347 91.6837 34.4193 91.6131 34.5251C91.5464 34.6309 91.513 34.7494 91.513 34.8806C91.513 35.0372 91.5581 35.1621 91.6484 35.2552C91.7425 35.3483 91.8622 35.4224 92.0073 35.4774C92.1564 35.5324 92.3192 35.5832 92.4957 35.6298C92.6722 35.6721 92.8487 35.7207 93.0252 35.7758C93.2057 35.8308 93.3685 35.9027 93.5136 35.9916C93.6627 36.0805 93.7823 36.199 93.8726 36.3471C93.9628 36.4952 94.0079 36.6857 94.0079 36.9185C94.0079 37.1428 93.951 37.3523 93.8372 37.547C93.7235 37.7374 93.547 37.8919 93.3077 38.0104C93.0723 38.1247 92.7742 38.1818 92.4133 38.1818Z" fill="#D73F7C"/>
<path d="M96.5694 38.131V34.2395H95.1572V33.6871H98.5641V34.2395H97.1519V38.131H96.5694Z" fill="#D73F7C"/>
<path d="M79.3451 18.3596C80.7744 17.8257 82.2338 17.3488 83.7141 16.9738C84.5242 16.7687 85.3557 16.6416 86.1618 16.4177C86.3752 16.3584 86.8977 16.2371 87.0568 16.1362C87.2159 16.0353 87.2951 15.2547 87.4123 14.9977C87.5934 14.5988 88.1567 14.1179 88.5343 13.9048C90.8292 12.6141 92.5523 14.7344 92.9157 16.8644C92.9372 16.9904 92.944 17.5693 92.991 17.6149C93.1009 17.7226 95.1042 17.3602 95.4116 17.2941C96.9383 16.967 98.409 16.3977 99.951 16.1362C99.7999 15.3402 99.4574 13.0956 100.766 13.1224C100.822 13.1236 101.342 13.2113 101.363 13.233C101.441 13.3139 101.335 15.1407 101.372 15.4752C101.492 16.563 102.226 17.9254 102.95 18.7306C103.12 18.9198 104.141 19.8691 104.33 19.8315C104.507 19.7962 105.506 18.64 105.698 18.4166C106.766 17.1767 108.053 15.5726 108.919 14.1942C109.299 13.5897 109.986 12.0586 110.564 11.7474C111.03 11.4967 111.474 11.7936 111.553 12.2933C111.675 13.0586 110.781 14.3726 110.369 15.0262C109.509 16.3898 108.512 17.7157 107.453 18.9289C107.252 19.1597 105.897 20.4942 105.897 20.6093C105.896 20.7244 106.914 20.9421 107.072 20.9637C109.889 21.3523 113.773 19.5711 116.256 18.2742C117.314 17.7214 120.238 15.8598 121.318 16.0251C121.692 16.0821 121.844 16.4684 121.633 16.7921C121.31 17.2872 119.127 18.5192 118.501 18.8816C116.554 20.0076 114.406 21.129 112.307 21.9347C110.236 22.7296 108.322 23.3484 106.11 22.7307C105.826 22.6515 104.387 22.0623 104.292 22.0777C104.134 22.1028 102.763 23.3068 102.493 23.5108C101.912 23.9502 100.297 25.1371 99.6329 25.1929C98.9247 25.2522 98.7356 24.6431 98.9643 24.0618C99.6815 23.565 100.43 23.1165 101.134 22.5991C101.365 22.4293 102.808 21.3233 102.835 21.1728C102.851 21.0771 102.083 20.3831 101.961 20.2412C101.211 19.3756 100.719 18.3237 100.144 17.3414C97.7971 18.1528 95.3952 18.8349 92.9288 19.1825C92.6304 20.4064 92.3338 21.6412 91.7162 22.7484C90.9011 24.21 88.0565 27.1902 86.4211 25.2841C85.0936 23.737 86.056 20.407 86.9594 18.8144C87.0664 18.6257 87.5855 17.9989 87.6053 17.9197C87.6229 17.8474 87.5125 17.6325 87.4581 17.6177C87.2747 17.5665 86.4862 17.7585 86.2422 17.8069C84.3102 18.1904 81.5358 18.8104 79.7617 19.603C78.629 20.109 78.9675 20.2714 78.4705 21.2093C78.0238 22.0527 76.8628 23.0681 75.9888 23.4407C74.0505 24.2658 72.7559 23.141 74.2237 21.3791C75.1017 20.325 76.4626 19.7831 77.5761 19.0275C77.6785 18.9078 77.837 18.1032 77.7617 18.0177C77.5614 17.7904 76.0261 19.3141 75.8382 19.4714C75.2121 19.9939 74.3064 20.6919 73.4414 20.4007C73.2863 20.3483 73.4108 19.7329 73.4057 19.5244C73.3791 18.4468 73.4335 17.8685 73.6475 16.8097C74.2634 13.7606 75.4097 10.7747 76.218 7.77293C76.6075 6.32501 77.0853 3.2286 77.8297 2.1015C78.2967 1.39492 79.2285 0.922536 79.5579 1.99266C79.9508 3.26906 78.809 5.56259 78.3839 6.81905C77.113 10.5787 76.0726 14.4148 74.9313 18.216L76.612 16.8308C77.1408 16.4445 78.0516 15.9208 78.6867 16.3168C78.8356 16.4097 79.3473 16.9892 79.3473 17.1334V18.3585L79.3451 18.3596ZM88.6288 15.8524H90.3554C90.3944 15.8524 90.5274 16.1145 90.5405 16.1789C90.588 16.4148 90.5405 16.6331 90.4312 16.8405C90.3803 16.9379 89.8782 17.4565 89.9314 17.5049L91.3171 17.677C91.4932 16.5254 90.4476 14.1709 89.0239 15.31C88.9486 15.3704 88.5739 15.812 88.6288 15.8524ZM91.1767 19.2144C90.4091 19.162 89.6308 19.0611 88.9164 18.7608C88.0005 20.101 87.1162 22.0743 87.3313 23.7399C87.4638 24.765 88.2082 24.3297 88.7607 23.9348C90.1901 22.9119 90.9797 20.9221 91.1767 19.2144Z" fill="#232327"/>
<path d="M29.5311 17.5619C30.3802 17.0143 31.1659 16.3618 32.0258 15.8285C32.8857 15.2951 34.0654 14.4928 35.0203 15.3111C34.7299 15.5755 34.555 15.8838 34.2239 16.1037C33.8242 16.3693 33.3113 16.5436 32.8857 16.808C32.3354 17.1499 31.6907 17.6457 31.1778 18.0519C31.0238 18.1739 30.1028 18.9072 30.0666 18.9882C30.0049 19.1243 30.4306 20.9597 30.4838 21.3033C30.9531 24.3496 30.8206 27.4614 28.2551 29.5264C26.6814 30.7931 23.3653 31.902 22.3311 29.4529C21.2583 26.9132 23.7395 23.3536 25.3687 21.5501C26.1261 20.7119 27.205 19.9027 27.89 19.0736C27.9828 18.9608 28.1142 18.8326 28.113 18.681C28.1125 18.5796 27.7621 17.5476 27.7122 17.5117C27.6579 17.473 27.5062 17.5186 27.4332 17.5311L20.5853 19.2423C20.1245 21.5421 18.2977 25.8027 15.5755 25.9377C12.5599 26.0876 13.3842 21.6407 14.1229 19.917C14.2859 19.5363 14.5107 19.183 14.6986 18.8161C12.1252 19.8999 9.63047 21.2891 6.88724 21.9216C6.3455 22.0464 5.65092 22.1968 5.10295 22.2339C-1.32264 22.6652 2.95581 15.1561 7.08424 15.5681C7.72787 15.6325 8.26395 16.1237 7.81675 16.7602C7.47766 17.2428 6.21983 17.1511 5.62601 17.4041C4.90086 17.7123 3.65888 18.9728 3.40754 19.7289C3.22526 20.2765 3.41037 20.4794 3.94192 20.6121C5.48166 20.9973 7.81618 20.2173 9.27893 19.656C11.1408 18.9414 12.8996 17.9773 14.7558 17.2491C14.8984 17.1288 14.6816 16.4376 14.6765 16.2023C14.6499 14.9179 15.8879 13.7675 17.1118 13.6375C19.5584 13.3783 20.5202 15.5732 20.5858 17.6764C22.8615 17.4958 25.093 16.861 27.2656 16.1937C26.4635 14.3407 26.3701 11.687 28.5127 10.7548C28.9497 10.5645 29.6663 10.3058 30.0705 10.6642C30.9383 11.4335 29.042 12.348 28.6253 12.8626C28.0123 13.6199 28.2364 14.245 28.5098 15.0843C28.7867 15.9333 29.2424 16.718 29.5305 17.5619H29.5311ZM19.0002 17.6759C18.9521 16.5402 18.4676 14.6997 16.9629 15.1977C16.5135 15.3464 16.0011 15.902 16.2247 16.3972L17.8703 15.9368C18.3357 16.5077 18.0136 16.963 17.6417 17.4474L18.9997 17.6759H19.0002ZM18.8882 19.2149L16.4602 18.8787C15.6745 20.4047 14.4971 22.268 15.0665 24.0579C15.1509 24.324 15.1322 24.4214 15.4368 24.3758C17.4724 24.0715 18.5785 20.9746 18.8882 19.2149ZM28.6802 20.297C28.5959 20.2338 27.2911 21.6555 27.1801 21.7774C25.7355 23.3689 23.5306 26.3377 23.757 28.5868C23.9138 30.1458 25.6608 29.3452 26.4584 28.7999C28.6746 27.2836 29.5463 24.4824 29.1167 21.8817C29.0816 21.6686 28.7759 20.3683 28.6808 20.297H28.6802Z" fill="#232327"/>
<path d="M61.2305 17.334C63.1467 17.1579 64.9615 16.6086 66.8109 16.1419C67.2417 16.0331 68.1746 15.7299 68.5629 15.7373C69.0192 15.7459 69.3894 16.371 69.125 16.7624C69.0084 16.9356 65.6261 17.8929 65.1602 18.0138C63.869 18.3482 62.5602 18.6292 61.2401 18.8252C60.7335 21.2161 59.5119 24.2482 57.08 25.2083C53.7944 26.5058 53.8012 22.3102 54.4788 20.2537C54.6175 19.8321 54.8558 19.46 55.003 19.044C53.1944 20.1289 51.3733 21.2253 49.4379 22.0743C48.4438 22.5102 46.3193 23.4413 45.31 22.9615C44.4965 22.5746 44.7875 21.0697 44.8792 20.3341C45.0326 19.101 45.3593 17.8901 45.4657 16.6507C44.2741 17.6348 43.4216 19.0805 42.2373 20.068C40.9721 21.1221 40.1756 20.6173 40.2272 19.0132C40.2719 17.6229 40.7927 16.2735 40.9014 14.9054C40.9116 14.7766 40.9393 14.0079 40.9082 13.9726C40.847 13.9036 40.4576 14.3373 40.4004 14.4011C38.881 16.0974 37.6362 18.889 36.4248 20.8839C36.1242 21.3785 35.4596 22.6612 34.9111 22.7786C33.4891 23.0829 34.0739 20.8731 34.0591 20.0982L34.6207 15.9339C35.2055 15.3914 36.1542 15.51 36.2601 16.4C36.3433 17.0992 36.1304 17.6445 36.0082 18.2998C35.9974 18.3585 35.9334 18.4861 36.0387 18.473C36.542 17.5157 37.0769 16.5465 37.6577 15.629C38.2866 14.6358 39.6249 12.5281 40.8363 12.3332C41.716 12.1919 42.2843 12.7571 42.3726 13.6085C42.539 15.2193 41.8699 16.9282 41.7573 18.5306C42.6313 17.6069 43.4374 16.5943 44.3873 15.7367C44.9658 15.2148 46.3148 14.0689 46.8979 15.2074C47.5234 16.4296 46.4524 19.3312 46.2927 20.7312C46.2763 20.8731 46.2186 21.6008 46.2859 21.6646C46.3261 21.7022 47.2137 21.4338 47.3479 21.3945C50.3498 20.5079 52.737 18.297 55.5697 17.0479C54.3633 14.0962 58.4946 11.7696 60.3717 14.4091C60.6451 14.7937 61.2305 16.0684 61.2305 16.5077V17.334ZM59.6454 17.277C59.6313 16.3271 59.2922 14.8581 58.1482 14.7675C57.5679 14.7219 57.0754 15.0267 56.9537 15.6211C56.9351 15.7111 56.9022 16.1066 56.9288 16.1368C56.9679 16.1806 57.6879 15.7031 57.8447 15.6632C58.4765 15.5031 58.9701 15.9145 58.7533 16.5772C58.6786 16.8052 58.4476 16.8844 58.4006 17.1049L59.6454 17.2764V17.277ZM59.5322 18.873C58.7516 18.8024 57.9642 18.7169 57.2283 18.4274C57.1202 18.4263 56.9764 18.6639 56.905 18.7636C56.1822 19.7773 55.3596 22.4002 55.7214 23.5917C55.9223 24.2544 56.5495 23.8499 56.9458 23.5917C58.4697 22.598 59.2407 20.611 59.5322 18.8736V18.873Z" fill="#232327"/>
</svg>
