<svg width="375" height="226" viewBox="0 0 375 226" fill="none" xmlns="http://www.w3.org/2000/svg">
<mask id="path-1-outside-1_1_23280" maskUnits="userSpaceOnUse" x="-96.1445" y="-0.166016" width="497" height="226" fill="black">
<rect fill="white" x="-96.1445" y="-0.166016" width="497" height="226"/>
<path d="M330.868 220.538C330.533 220.298 333.973 214.653 334.413 213.071C338.952 197.054 338.274 125.895 336.468 107.079C334.47 86.2894 315.798 83.3564 311.249 67.2056C309.214 59.9784 313.122 62.02 313.677 59.0583C314.068 57.0071 313.992 43.7413 313.466 41.9681C312.463 38.6037 308.383 39.7444 307.972 39.3418C307.59 38.968 308.45 33.5524 307.054 31.3862C306.099 29.9005 303.423 30.4756 303.098 29.1625C302.62 27.1975 303.28 6.66632 304.092 5.83242C304.904 4.99852 310.447 8.03698 308.927 2.55433C308.354 0.493538 281.569 0.74275 277.775 1.01113C273.37 1.31785 267.426 2.27636 263.307 3.75246C261.616 4.35632 252.242 8.82296 256.026 10.6154C262.17 13.5292 266.623 7.65358 273.14 6.91553C293.16 4.64387 287.761 16.1172 290.647 30.6865C282.591 31.0124 286.308 36.6292 284.111 39.7348C283.184 41.0479 279.572 40.1949 278.501 44.8724C277.937 47.3453 278.654 56.4703 279.266 59.0199C279.81 61.282 281.913 61.9146 282.027 63.755C283.002 78.583 257.669 87.9189 255.452 106.121C252.595 129.662 253.111 168.117 254.401 192.262C254.736 198.531 255.443 212.41 259.6 216.761C261.444 218.688 263.757 218.726 264.894 220.538L226.68 219.579C229.155 215.362 227.224 209.908 227.645 204.742C228.361 196.048 230.693 187.527 231.438 178.833C233.474 155.091 232.289 129.758 234.334 106.015C234.764 101.05 240.851 84.3437 238.147 82.0241C235.022 79.3498 223.545 81.4969 219.503 81.5161C207.596 81.5832 193.09 80.1071 181.232 81.5065C175.756 82.1487 178.212 88.2448 179.168 92.2897C186.65 123.892 186.268 162.385 188.446 195.128C189.01 203.62 186.87 212.573 190.348 220.528L145.445 218.611C147.012 215.41 151.006 217.979 154.045 217.26C156.205 216.752 175.584 205.393 177.008 203.793C178.432 202.192 179.053 200.227 178.957 198.032C178.785 194.15 165.015 168.558 162.187 163.008C159.043 156.835 148.522 134.243 145.139 130.735C142.845 128.358 138.736 127.946 135.64 128.761C133.242 129.393 109.142 141.356 106.887 143.033C104.02 145.17 104.985 147.826 102.988 147.672C100.799 147.5 90.7274 144.95 88.3003 144.145C78.6201 140.934 84.8697 139.055 84.2867 136.707C84.0383 135.691 81.7353 135.48 81.5155 135.097C81.248 134.627 82.8152 124.63 79.9771 124.678C76.9956 124.735 78.773 127.313 77.6932 129C77.4352 129.403 71.3576 135.442 70.9467 135.681C70.144 136.141 61.4195 136.371 59.6325 136.774C53.5167 138.145 46.0153 140.292 43.6454 146.714C42.4032 150.088 42.9192 154.123 38.3706 156.788C37.1187 157.526 34.8826 157.104 34.6342 157.324C32.6657 159.184 37.1474 173.063 36.5071 173.571C35.714 174.184 28.4324 174.079 27.1328 179.063C28.27 191.898 23.4442 205.183 27.9068 217.662H-35.6566L-94.3994 222.013L-92.9852 223.93L-35.6566 219.589H27.4482C58.0462 223.202 85.3952 222.896 114.455 220.519C138.851 218.563 163.2 222.215 187.548 223.202C193.559 223.452 197.448 223.202 205.743 222.349C206.354 222.167 206.698 221.621 205.991 221.218C205.102 220.653 203.994 220.538 202.943 220.509C200.334 220.423 197.706 220.72 195.126 220.346C193.683 220.135 192.164 219.646 191.284 218.477C190.386 217.288 190.348 215.669 190.348 214.183C190.348 207.358 190.357 200.543 190.367 193.719C202.465 193.719 214.572 193.719 226.67 193.719C226.355 200.419 226.039 207.119 225.724 213.819C223.497 213.752 221.175 214.231 218.997 213.79C217.955 213.378 217.449 212.237 216.885 211.269C214.505 206.783 208.361 204.425 203.975 207.425C201.49 209.103 200.114 212.17 197.448 213.541C195.871 214.346 193.96 214.451 192.307 213.819C192.842 215.669 195.088 215.908 196.731 215.832C206.383 215.736 216.034 215.717 225.686 215.793C225.953 218.046 225.38 219.829 222.876 219.618C217.802 219.598 216.971 219.829 211.897 219.848C210.998 219.848 209.345 221.046 210.463 221.765C229.097 223.202 245.18 222.119 264.301 222.369C277.068 222.292 290.026 225.858 303.108 224.372C304.025 221.726 299.094 221.851 297.594 221.717C280.709 220.222 260.03 226.356 257.373 203.639C254.363 177.846 254.898 134.934 257.268 108.891C259.045 89.3566 273.427 87.9189 280.967 74.1931C282.687 71.0684 283.7 63.0361 284.111 62.6527C285.104 61.7325 301.799 62.298 305.497 61.3874C306.911 61.0424 307.188 62.1351 306.94 59.4992H284.483C283.757 59.4992 281.817 62.0009 281.148 58.0518C280.632 55.0038 279.333 44.3164 282.094 42.6582C283.69 41.6997 286.203 41.6997 287.866 41.5655C292.654 41.1725 297.842 41.9777 302.63 41.2588C304.302 41.0096 304.226 41.7668 304.063 39.361H286.863C285.544 29.2679 289.777 32.939 294.077 32.4597C296.715 32.3447 304.111 31.4341 305.545 33.5524C307.131 35.9008 304.646 40.9713 305.019 41.2684C305.975 42.0448 310.925 39.4664 311.708 43.6742C312.014 45.3133 312.071 57.5822 311.727 58.8186C311.441 59.8347 309.443 59.758 308.994 61.0424C306.729 67.5794 314.307 77.2795 318.426 81.9857C329.023 94.1204 333.496 92.6539 334.69 111.68C336.19 135.557 335.875 168.251 334.69 192.281C334.403 198.118 333.782 209.247 331.833 214.336C328.288 223.586 322.592 219.464 315.234 221.65C314.021 222.014 313.056 223.04 314.565 223.883L398.441 222.436L399.855 220.519H330.83L330.868 220.538ZM289.003 9.48433C288.564 9.21594 288.306 7.28935 286.882 6.3596C280.995 2.53516 270.36 5.55445 264.253 7.56731C263.604 7.77819 260.966 9.58976 261.129 7.27018C261.234 5.75574 271.411 4.04001 273.14 3.75246L280.699 3.22528H289.003H306.5C306.701 5.02727 303.528 3.532 302.601 4.79723C301.569 6.21582 302.104 9.96358 301.722 10.4141C301.168 11.0659 298.76 10.0307 296.944 9.93482C294.651 9.81022 290.762 10.5483 289.003 9.47474V9.48433ZM290.742 12.5515C299.639 14.6123 301.722 8.73669 301.283 20.7372C301.158 24.0153 299.687 27.2838 300.298 30.7632H292.644L290.742 12.5515ZM180.84 91.1491L235.309 92.1076C234.066 95.7882 232.814 100.236 232.461 104.098C230.024 131.502 231.18 161.005 228.619 188.418C228.438 189.473 228.247 190.316 227.119 190.709L189.44 190.834L188.446 149.877L184.662 108.182C184.662 106.054 180.372 91.4941 180.84 91.1586V91.1491ZM118.736 139.084C125.349 138.087 137.313 126.758 143.304 131.684L175.269 193.057C181.461 202.019 168.111 207.483 161.413 211.116C158.269 212.822 154.676 214.835 151.216 215.736C153.309 211.672 161.747 211.691 160.371 206.16C159.435 202.412 150.767 190.354 148.178 185.715C144.193 178.555 127.403 144.174 123.466 141.49C121.736 140.311 119.147 140.685 118.726 139.074L118.736 139.084ZM85.271 155.35C66.4745 159.213 65.3469 138.538 79.0692 130.448C80.1777 137.531 72.2463 143.781 78.0467 150.634C80.1204 153.088 83.5605 153.097 85.271 155.35ZM63.6173 154.094C56.9186 145.841 66.9428 136.084 69.0355 138.116C69.5802 138.653 65.7292 147.701 69.972 152.992C71.2907 154.631 73.3357 154.708 73.8135 156.308C70.1727 158.062 66.1496 157.209 63.6269 154.094H63.6173ZM47.2671 156.107C41.2947 147.298 48.5476 140.637 57.5684 140.042C56.3166 142.007 53.7843 142.525 52.37 144.873C49.2261 150.097 51.7584 152.848 54.7016 157.276L47.2671 156.107ZM149.324 213.828C146.037 205.403 111.406 148.113 113.413 144.777C115.42 141.442 121.144 141.538 123.944 144.864C130.318 152.417 139.721 174.683 145.32 184.766C147.117 188.006 159.243 206.735 158.431 208.116L149.324 213.838V213.828ZM112.037 142.908C110.804 149.656 116.949 158.695 120.141 164.964C128.617 181.632 139.033 197.543 147.327 214.202C145.215 217.173 141.947 217.212 139.883 214.164C130.279 197.112 123.456 178.344 114.445 161.082C111.397 155.235 100.465 144.72 112.037 142.899V142.908ZM108.205 156.318C105.979 158.331 98.1524 153.893 95.5723 153.184C91.7977 152.139 82.796 151.707 81.6398 147.988C79.0501 139.688 83.1305 144.643 86.6471 145.841C92.4857 147.826 102.749 147.509 106.714 152.551C107.288 153.279 108.807 155.772 108.196 156.327L108.205 156.318ZM47.0569 217.662H29.8562C29.732 217.662 28.9006 215.391 28.9006 215.266V184.594C28.9006 183.578 31.1463 183.146 32.1879 183.118C40.3773 184.594 53.6505 186.635 62.7859 187.258C69.9433 187.747 114.139 186.798 117.761 183.146C118.755 182.15 118.134 181.287 116.423 181.316C110.46 181.421 101.774 183.645 95.2952 184.105C73.9759 185.495 49.4268 185.063 28.8911 180.271C28.3846 179.59 32.8759 175.871 34.3571 175.641C36.7652 175.268 39.5746 177.28 42.7567 177.673C58.2947 179.571 83.4172 180.06 99.0124 178.249C100.522 178.076 104.24 177.923 103.418 175.498C84.497 177.146 65.5285 176.475 46.5791 175.478L38.447 173.571H101.516L100.102 171.654L37.4914 169.248C36.746 166.775 39.5268 168.213 40.3773 168.28C59.4891 169.833 83.809 168.817 102.969 166.861C104.65 166.689 107.995 166.574 107.25 163.986L93.8809 164.925C93.0399 163.123 105.252 164.916 101.516 162.069C99.9776 160.89 68.2423 163.181 62.7859 163.056C57.3295 162.932 49.4459 162.433 43.8365 161.935C42.1547 161.791 35.4656 161.599 36.5549 159.184L56.0968 161.139L107.508 159.414C121.45 166.766 124.508 199.24 122.577 213.339C121.507 222.531 113.471 216.972 106.304 218.889C106.762 213.292 107.919 206.831 107.02 201.109C104.545 185.361 95.6392 196.891 87.2587 199C82.2036 200.275 74.0811 200.15 68.9973 198.991C63.474 197.725 55.5521 191.284 50.6404 193.872C42.9861 197.898 48.5667 216.129 47.0665 217.634L47.0569 217.662ZM124.46 217.662V188.907L137.083 213.148L141.67 218.142L124.46 217.662ZM48.9681 217.662V198.971C48.9681 191.006 64.7736 200.112 68.0512 200.917C76.1069 202.882 83.14 202.604 90.9854 199.901C93.2407 199.125 100.666 194.457 101.898 194.735C107.145 195.914 104.326 215.391 104.373 219.579L76.6803 219.589L61.8686 219.579L48.9585 217.662H48.9681Z"/>
</mask>
<path d="M330.868 220.538C330.533 220.298 333.973 214.653 334.413 213.071C338.952 197.054 338.274 125.895 336.468 107.079C334.47 86.2894 315.798 83.3564 311.249 67.2056C309.214 59.9784 313.122 62.02 313.677 59.0583C314.068 57.0071 313.992 43.7413 313.466 41.9681C312.463 38.6037 308.383 39.7444 307.972 39.3418C307.59 38.968 308.45 33.5524 307.054 31.3862C306.099 29.9005 303.423 30.4756 303.098 29.1625C302.62 27.1975 303.28 6.66632 304.092 5.83242C304.904 4.99852 310.447 8.03698 308.927 2.55433C308.354 0.493538 281.569 0.74275 277.775 1.01113C273.37 1.31785 267.426 2.27636 263.307 3.75246C261.616 4.35632 252.242 8.82296 256.026 10.6154C262.17 13.5292 266.623 7.65358 273.14 6.91553C293.16 4.64387 287.761 16.1172 290.647 30.6865C282.591 31.0124 286.308 36.6292 284.111 39.7348C283.184 41.0479 279.572 40.1949 278.501 44.8724C277.937 47.3453 278.654 56.4703 279.266 59.0199C279.81 61.282 281.913 61.9146 282.027 63.755C283.002 78.583 257.669 87.9189 255.452 106.121C252.595 129.662 253.111 168.117 254.401 192.262C254.736 198.531 255.443 212.41 259.6 216.761C261.444 218.688 263.757 218.726 264.894 220.538L226.68 219.579C229.155 215.362 227.224 209.908 227.645 204.742C228.361 196.048 230.693 187.527 231.438 178.833C233.474 155.091 232.289 129.758 234.334 106.015C234.764 101.05 240.851 84.3437 238.147 82.0241C235.022 79.3498 223.545 81.4969 219.503 81.5161C207.596 81.5832 193.09 80.1071 181.232 81.5065C175.756 82.1487 178.212 88.2448 179.168 92.2897C186.65 123.892 186.268 162.385 188.446 195.128C189.01 203.62 186.87 212.573 190.348 220.528L145.445 218.611C147.012 215.41 151.006 217.979 154.045 217.26C156.205 216.752 175.584 205.393 177.008 203.793C178.432 202.192 179.053 200.227 178.957 198.032C178.785 194.15 165.015 168.558 162.187 163.008C159.043 156.835 148.522 134.243 145.139 130.735C142.845 128.358 138.736 127.946 135.64 128.761C133.242 129.393 109.142 141.356 106.887 143.033C104.02 145.17 104.985 147.826 102.988 147.672C100.799 147.5 90.7274 144.95 88.3003 144.145C78.6201 140.934 84.8697 139.055 84.2867 136.707C84.0383 135.691 81.7353 135.48 81.5155 135.097C81.248 134.627 82.8152 124.63 79.9771 124.678C76.9956 124.735 78.773 127.313 77.6932 129C77.4352 129.403 71.3576 135.442 70.9467 135.681C70.144 136.141 61.4195 136.371 59.6325 136.774C53.5167 138.145 46.0153 140.292 43.6454 146.714C42.4032 150.088 42.9192 154.123 38.3706 156.788C37.1187 157.526 34.8826 157.104 34.6342 157.324C32.6657 159.184 37.1474 173.063 36.5071 173.571C35.714 174.184 28.4324 174.079 27.1328 179.063C28.27 191.898 23.4442 205.183 27.9068 217.662H-35.6566L-94.3994 222.013L-92.9852 223.93L-35.6566 219.589H27.4482C58.0462 223.202 85.3952 222.896 114.455 220.519C138.851 218.563 163.2 222.215 187.548 223.202C193.559 223.452 197.448 223.202 205.743 222.349C206.354 222.167 206.698 221.621 205.991 221.218C205.102 220.653 203.994 220.538 202.943 220.509C200.334 220.423 197.706 220.72 195.126 220.346C193.683 220.135 192.164 219.646 191.284 218.477C190.386 217.288 190.348 215.669 190.348 214.183C190.348 207.358 190.357 200.543 190.367 193.719C202.465 193.719 214.572 193.719 226.67 193.719C226.355 200.419 226.039 207.119 225.724 213.819C223.497 213.752 221.175 214.231 218.997 213.79C217.955 213.378 217.449 212.237 216.885 211.269C214.505 206.783 208.361 204.425 203.975 207.425C201.49 209.103 200.114 212.17 197.448 213.541C195.871 214.346 193.96 214.451 192.307 213.819C192.842 215.669 195.088 215.908 196.731 215.832C206.383 215.736 216.034 215.717 225.686 215.793C225.953 218.046 225.38 219.829 222.876 219.618C217.802 219.598 216.971 219.829 211.897 219.848C210.998 219.848 209.345 221.046 210.463 221.765C229.097 223.202 245.18 222.119 264.301 222.369C277.068 222.292 290.026 225.858 303.108 224.372C304.025 221.726 299.094 221.851 297.594 221.717C280.709 220.222 260.03 226.356 257.373 203.639C254.363 177.846 254.898 134.934 257.268 108.891C259.045 89.3566 273.427 87.9189 280.967 74.1931C282.687 71.0684 283.7 63.0361 284.111 62.6527C285.104 61.7325 301.799 62.298 305.497 61.3874C306.911 61.0424 307.188 62.1351 306.94 59.4992H284.483C283.757 59.4992 281.817 62.0009 281.148 58.0518C280.632 55.0038 279.333 44.3164 282.094 42.6582C283.69 41.6997 286.203 41.6997 287.866 41.5655C292.654 41.1725 297.842 41.9777 302.63 41.2588C304.302 41.0096 304.226 41.7668 304.063 39.361H286.863C285.544 29.2679 289.777 32.939 294.077 32.4597C296.715 32.3447 304.111 31.4341 305.545 33.5524C307.131 35.9008 304.646 40.9713 305.019 41.2684C305.975 42.0448 310.925 39.4664 311.708 43.6742C312.014 45.3133 312.071 57.5822 311.727 58.8186C311.441 59.8347 309.443 59.758 308.994 61.0424C306.729 67.5794 314.307 77.2795 318.426 81.9857C329.023 94.1204 333.496 92.6539 334.69 111.68C336.19 135.557 335.875 168.251 334.69 192.281C334.403 198.118 333.782 209.247 331.833 214.336C328.288 223.586 322.592 219.464 315.234 221.65C314.021 222.014 313.056 223.04 314.565 223.883L398.441 222.436L399.855 220.519H330.83L330.868 220.538ZM289.003 9.48433C288.564 9.21594 288.306 7.28935 286.882 6.3596C280.995 2.53516 270.36 5.55445 264.253 7.56731C263.604 7.77819 260.966 9.58976 261.129 7.27018C261.234 5.75574 271.411 4.04001 273.14 3.75246L280.699 3.22528H289.003H306.5C306.701 5.02727 303.528 3.532 302.601 4.79723C301.569 6.21582 302.104 9.96358 301.722 10.4141C301.168 11.0659 298.76 10.0307 296.944 9.93482C294.651 9.81022 290.762 10.5483 289.003 9.47474V9.48433ZM290.742 12.5515C299.639 14.6123 301.722 8.73669 301.283 20.7372C301.158 24.0153 299.687 27.2838 300.298 30.7632H292.644L290.742 12.5515ZM180.84 91.1491L235.309 92.1076C234.066 95.7882 232.814 100.236 232.461 104.098C230.024 131.502 231.18 161.005 228.619 188.418C228.438 189.473 228.247 190.316 227.119 190.709L189.44 190.834L188.446 149.877L184.662 108.182C184.662 106.054 180.372 91.4941 180.84 91.1586V91.1491ZM118.736 139.084C125.349 138.087 137.313 126.758 143.304 131.684L175.269 193.057C181.461 202.019 168.111 207.483 161.413 211.116C158.269 212.822 154.676 214.835 151.216 215.736C153.309 211.672 161.747 211.691 160.371 206.16C159.435 202.412 150.767 190.354 148.178 185.715C144.193 178.555 127.403 144.174 123.466 141.49C121.736 140.311 119.147 140.685 118.726 139.074L118.736 139.084ZM85.271 155.35C66.4745 159.213 65.3469 138.538 79.0692 130.448C80.1777 137.531 72.2463 143.781 78.0467 150.634C80.1204 153.088 83.5605 153.097 85.271 155.35ZM63.6173 154.094C56.9186 145.841 66.9428 136.084 69.0355 138.116C69.5802 138.653 65.7292 147.701 69.972 152.992C71.2907 154.631 73.3357 154.708 73.8135 156.308C70.1727 158.062 66.1496 157.209 63.6269 154.094H63.6173ZM47.2671 156.107C41.2947 147.298 48.5476 140.637 57.5684 140.042C56.3166 142.007 53.7843 142.525 52.37 144.873C49.2261 150.097 51.7584 152.848 54.7016 157.276L47.2671 156.107ZM149.324 213.828C146.037 205.403 111.406 148.113 113.413 144.777C115.42 141.442 121.144 141.538 123.944 144.864C130.318 152.417 139.721 174.683 145.32 184.766C147.117 188.006 159.243 206.735 158.431 208.116L149.324 213.838V213.828ZM112.037 142.908C110.804 149.656 116.949 158.695 120.141 164.964C128.617 181.632 139.033 197.543 147.327 214.202C145.215 217.173 141.947 217.212 139.883 214.164C130.279 197.112 123.456 178.344 114.445 161.082C111.397 155.235 100.465 144.72 112.037 142.899V142.908ZM108.205 156.318C105.979 158.331 98.1524 153.893 95.5723 153.184C91.7977 152.139 82.796 151.707 81.6398 147.988C79.0501 139.688 83.1305 144.643 86.6471 145.841C92.4857 147.826 102.749 147.509 106.714 152.551C107.288 153.279 108.807 155.772 108.196 156.327L108.205 156.318ZM47.0569 217.662H29.8562C29.732 217.662 28.9006 215.391 28.9006 215.266V184.594C28.9006 183.578 31.1463 183.146 32.1879 183.118C40.3773 184.594 53.6505 186.635 62.7859 187.258C69.9433 187.747 114.139 186.798 117.761 183.146C118.755 182.15 118.134 181.287 116.423 181.316C110.46 181.421 101.774 183.645 95.2952 184.105C73.9759 185.495 49.4268 185.063 28.8911 180.271C28.3846 179.59 32.8759 175.871 34.3571 175.641C36.7652 175.268 39.5746 177.28 42.7567 177.673C58.2947 179.571 83.4172 180.06 99.0124 178.249C100.522 178.076 104.24 177.923 103.418 175.498C84.497 177.146 65.5285 176.475 46.5791 175.478L38.447 173.571H101.516L100.102 171.654L37.4914 169.248C36.746 166.775 39.5268 168.213 40.3773 168.28C59.4891 169.833 83.809 168.817 102.969 166.861C104.65 166.689 107.995 166.574 107.25 163.986L93.8809 164.925C93.0399 163.123 105.252 164.916 101.516 162.069C99.9776 160.89 68.2423 163.181 62.7859 163.056C57.3295 162.932 49.4459 162.433 43.8365 161.935C42.1547 161.791 35.4656 161.599 36.5549 159.184L56.0968 161.139L107.508 159.414C121.45 166.766 124.508 199.24 122.577 213.339C121.507 222.531 113.471 216.972 106.304 218.889C106.762 213.292 107.919 206.831 107.02 201.109C104.545 185.361 95.6392 196.891 87.2587 199C82.2036 200.275 74.0811 200.15 68.9973 198.991C63.474 197.725 55.5521 191.284 50.6404 193.872C42.9861 197.898 48.5667 216.129 47.0665 217.634L47.0569 217.662ZM124.46 217.662V188.907L137.083 213.148L141.67 218.142L124.46 217.662ZM48.9681 217.662V198.971C48.9681 191.006 64.7736 200.112 68.0512 200.917C76.1069 202.882 83.14 202.604 90.9854 199.901C93.2407 199.125 100.666 194.457 101.898 194.735C107.145 195.914 104.326 215.391 104.373 219.579L76.6803 219.589L61.8686 219.579L48.9585 217.662H48.9681Z" fill="#F7F7F7"/>
<path d="M330.868 220.538C330.533 220.298 333.973 214.653 334.413 213.071C338.952 197.054 338.274 125.895 336.468 107.079C334.47 86.2894 315.798 83.3564 311.249 67.2056C309.214 59.9784 313.122 62.02 313.677 59.0583C314.068 57.0071 313.992 43.7413 313.466 41.9681C312.463 38.6037 308.383 39.7444 307.972 39.3418C307.59 38.968 308.45 33.5524 307.054 31.3862C306.099 29.9005 303.423 30.4756 303.098 29.1625C302.62 27.1975 303.28 6.66632 304.092 5.83242C304.904 4.99852 310.447 8.03698 308.927 2.55433C308.354 0.493538 281.569 0.74275 277.775 1.01113C273.37 1.31785 267.426 2.27636 263.307 3.75246C261.616 4.35632 252.242 8.82296 256.026 10.6154C262.17 13.5292 266.623 7.65358 273.14 6.91553C293.16 4.64387 287.761 16.1172 290.647 30.6865C282.591 31.0124 286.308 36.6292 284.111 39.7348C283.184 41.0479 279.572 40.1949 278.501 44.8724C277.937 47.3453 278.654 56.4703 279.266 59.0199C279.81 61.282 281.913 61.9146 282.027 63.755C283.002 78.583 257.669 87.9189 255.452 106.121C252.595 129.662 253.111 168.117 254.401 192.262C254.736 198.531 255.443 212.41 259.6 216.761C261.444 218.688 263.757 218.726 264.894 220.538L226.68 219.579C229.155 215.362 227.224 209.908 227.645 204.742C228.361 196.048 230.693 187.527 231.438 178.833C233.474 155.091 232.289 129.758 234.334 106.015C234.764 101.05 240.851 84.3437 238.147 82.0241C235.022 79.3498 223.545 81.4969 219.503 81.5161C207.596 81.5832 193.09 80.1071 181.232 81.5065C175.756 82.1487 178.212 88.2448 179.168 92.2897C186.65 123.892 186.268 162.385 188.446 195.128C189.01 203.62 186.87 212.573 190.348 220.528L145.445 218.611C147.012 215.41 151.006 217.979 154.045 217.26C156.205 216.752 175.584 205.393 177.008 203.793C178.432 202.192 179.053 200.227 178.957 198.032C178.785 194.15 165.015 168.558 162.187 163.008C159.043 156.835 148.522 134.243 145.139 130.735C142.845 128.358 138.736 127.946 135.64 128.761C133.242 129.393 109.142 141.356 106.887 143.033C104.02 145.17 104.985 147.826 102.988 147.672C100.799 147.5 90.7274 144.95 88.3003 144.145C78.6201 140.934 84.8697 139.055 84.2867 136.707C84.0383 135.691 81.7353 135.48 81.5155 135.097C81.248 134.627 82.8152 124.63 79.9771 124.678C76.9956 124.735 78.773 127.313 77.6932 129C77.4352 129.403 71.3576 135.442 70.9467 135.681C70.144 136.141 61.4195 136.371 59.6325 136.774C53.5167 138.145 46.0153 140.292 43.6454 146.714C42.4032 150.088 42.9192 154.123 38.3706 156.788C37.1187 157.526 34.8826 157.104 34.6342 157.324C32.6657 159.184 37.1474 173.063 36.5071 173.571C35.714 174.184 28.4324 174.079 27.1328 179.063C28.27 191.898 23.4442 205.183 27.9068 217.662H-35.6566L-94.3994 222.013L-92.9852 223.93L-35.6566 219.589H27.4482C58.0462 223.202 85.3952 222.896 114.455 220.519C138.851 218.563 163.2 222.215 187.548 223.202C193.559 223.452 197.448 223.202 205.743 222.349C206.354 222.167 206.698 221.621 205.991 221.218C205.102 220.653 203.994 220.538 202.943 220.509C200.334 220.423 197.706 220.72 195.126 220.346C193.683 220.135 192.164 219.646 191.284 218.477C190.386 217.288 190.348 215.669 190.348 214.183C190.348 207.358 190.357 200.543 190.367 193.719C202.465 193.719 214.572 193.719 226.67 193.719C226.355 200.419 226.039 207.119 225.724 213.819C223.497 213.752 221.175 214.231 218.997 213.79C217.955 213.378 217.449 212.237 216.885 211.269C214.505 206.783 208.361 204.425 203.975 207.425C201.49 209.103 200.114 212.17 197.448 213.541C195.871 214.346 193.96 214.451 192.307 213.819C192.842 215.669 195.088 215.908 196.731 215.832C206.383 215.736 216.034 215.717 225.686 215.793C225.953 218.046 225.38 219.829 222.876 219.618C217.802 219.598 216.971 219.829 211.897 219.848C210.998 219.848 209.345 221.046 210.463 221.765C229.097 223.202 245.18 222.119 264.301 222.369C277.068 222.292 290.026 225.858 303.108 224.372C304.025 221.726 299.094 221.851 297.594 221.717C280.709 220.222 260.03 226.356 257.373 203.639C254.363 177.846 254.898 134.934 257.268 108.891C259.045 89.3566 273.427 87.9189 280.967 74.1931C282.687 71.0684 283.7 63.0361 284.111 62.6527C285.104 61.7325 301.799 62.298 305.497 61.3874C306.911 61.0424 307.188 62.1351 306.94 59.4992H284.483C283.757 59.4992 281.817 62.0009 281.148 58.0518C280.632 55.0038 279.333 44.3164 282.094 42.6582C283.69 41.6997 286.203 41.6997 287.866 41.5655C292.654 41.1725 297.842 41.9777 302.63 41.2588C304.302 41.0096 304.226 41.7668 304.063 39.361H286.863C285.544 29.2679 289.777 32.939 294.077 32.4597C296.715 32.3447 304.111 31.4341 305.545 33.5524C307.131 35.9008 304.646 40.9713 305.019 41.2684C305.975 42.0448 310.925 39.4664 311.708 43.6742C312.014 45.3133 312.071 57.5822 311.727 58.8186C311.441 59.8347 309.443 59.758 308.994 61.0424C306.729 67.5794 314.307 77.2795 318.426 81.9857C329.023 94.1204 333.496 92.6539 334.69 111.68C336.19 135.557 335.875 168.251 334.69 192.281C334.403 198.118 333.782 209.247 331.833 214.336C328.288 223.586 322.592 219.464 315.234 221.65C314.021 222.014 313.056 223.04 314.565 223.883L398.441 222.436L399.855 220.519H330.83L330.868 220.538ZM289.003 9.48433C288.564 9.21594 288.306 7.28935 286.882 6.3596C280.995 2.53516 270.36 5.55445 264.253 7.56731C263.604 7.77819 260.966 9.58976 261.129 7.27018C261.234 5.75574 271.411 4.04001 273.14 3.75246L280.699 3.22528H289.003H306.5C306.701 5.02727 303.528 3.532 302.601 4.79723C301.569 6.21582 302.104 9.96358 301.722 10.4141C301.168 11.0659 298.76 10.0307 296.944 9.93482C294.651 9.81022 290.762 10.5483 289.003 9.47474V9.48433ZM290.742 12.5515C299.639 14.6123 301.722 8.73669 301.283 20.7372C301.158 24.0153 299.687 27.2838 300.298 30.7632H292.644L290.742 12.5515ZM180.84 91.1491L235.309 92.1076C234.066 95.7882 232.814 100.236 232.461 104.098C230.024 131.502 231.18 161.005 228.619 188.418C228.438 189.473 228.247 190.316 227.119 190.709L189.44 190.834L188.446 149.877L184.662 108.182C184.662 106.054 180.372 91.4941 180.84 91.1586V91.1491ZM118.736 139.084C125.349 138.087 137.313 126.758 143.304 131.684L175.269 193.057C181.461 202.019 168.111 207.483 161.413 211.116C158.269 212.822 154.676 214.835 151.216 215.736C153.309 211.672 161.747 211.691 160.371 206.16C159.435 202.412 150.767 190.354 148.178 185.715C144.193 178.555 127.403 144.174 123.466 141.49C121.736 140.311 119.147 140.685 118.726 139.074L118.736 139.084ZM85.271 155.35C66.4745 159.213 65.3469 138.538 79.0692 130.448C80.1777 137.531 72.2463 143.781 78.0467 150.634C80.1204 153.088 83.5605 153.097 85.271 155.35ZM63.6173 154.094C56.9186 145.841 66.9428 136.084 69.0355 138.116C69.5802 138.653 65.7292 147.701 69.972 152.992C71.2907 154.631 73.3357 154.708 73.8135 156.308C70.1727 158.062 66.1496 157.209 63.6269 154.094H63.6173ZM47.2671 156.107C41.2947 147.298 48.5476 140.637 57.5684 140.042C56.3166 142.007 53.7843 142.525 52.37 144.873C49.2261 150.097 51.7584 152.848 54.7016 157.276L47.2671 156.107ZM149.324 213.828C146.037 205.403 111.406 148.113 113.413 144.777C115.42 141.442 121.144 141.538 123.944 144.864C130.318 152.417 139.721 174.683 145.32 184.766C147.117 188.006 159.243 206.735 158.431 208.116L149.324 213.838V213.828ZM112.037 142.908C110.804 149.656 116.949 158.695 120.141 164.964C128.617 181.632 139.033 197.543 147.327 214.202C145.215 217.173 141.947 217.212 139.883 214.164C130.279 197.112 123.456 178.344 114.445 161.082C111.397 155.235 100.465 144.72 112.037 142.899V142.908ZM108.205 156.318C105.979 158.331 98.1524 153.893 95.5723 153.184C91.7977 152.139 82.796 151.707 81.6398 147.988C79.0501 139.688 83.1305 144.643 86.6471 145.841C92.4857 147.826 102.749 147.509 106.714 152.551C107.288 153.279 108.807 155.772 108.196 156.327L108.205 156.318ZM47.0569 217.662H29.8562C29.732 217.662 28.9006 215.391 28.9006 215.266V184.594C28.9006 183.578 31.1463 183.146 32.1879 183.118C40.3773 184.594 53.6505 186.635 62.7859 187.258C69.9433 187.747 114.139 186.798 117.761 183.146C118.755 182.15 118.134 181.287 116.423 181.316C110.46 181.421 101.774 183.645 95.2952 184.105C73.9759 185.495 49.4268 185.063 28.8911 180.271C28.3846 179.59 32.8759 175.871 34.3571 175.641C36.7652 175.268 39.5746 177.28 42.7567 177.673C58.2947 179.571 83.4172 180.06 99.0124 178.249C100.522 178.076 104.24 177.923 103.418 175.498C84.497 177.146 65.5285 176.475 46.5791 175.478L38.447 173.571H101.516L100.102 171.654L37.4914 169.248C36.746 166.775 39.5268 168.213 40.3773 168.28C59.4891 169.833 83.809 168.817 102.969 166.861C104.65 166.689 107.995 166.574 107.25 163.986L93.8809 164.925C93.0399 163.123 105.252 164.916 101.516 162.069C99.9776 160.89 68.2423 163.181 62.7859 163.056C57.3295 162.932 49.4459 162.433 43.8365 161.935C42.1547 161.791 35.4656 161.599 36.5549 159.184L56.0968 161.139L107.508 159.414C121.45 166.766 124.508 199.24 122.577 213.339C121.507 222.531 113.471 216.972 106.304 218.889C106.762 213.292 107.919 206.831 107.02 201.109C104.545 185.361 95.6392 196.891 87.2587 199C82.2036 200.275 74.0811 200.15 68.9973 198.991C63.474 197.725 55.5521 191.284 50.6404 193.872C42.9861 197.898 48.5667 216.129 47.0665 217.634L47.0569 217.662ZM124.46 217.662V188.907L137.083 213.148L141.67 218.142L124.46 217.662ZM48.9681 217.662V198.971C48.9681 191.006 64.7736 200.112 68.0512 200.917C76.1069 202.882 83.14 202.604 90.9854 199.901C93.2407 199.125 100.666 194.457 101.898 194.735C107.145 195.914 104.326 215.391 104.373 219.579L76.6803 219.589L61.8686 219.579L48.9585 217.662H48.9681Z" stroke="#F7F7F7" mask="url(#path-1-outside-1_1_23280)"/>
</svg>
